<?xml version="1.0" encoding="utf-8"?>
<!-- Generator: Adobe Illustrator 26.3.1, SVG Export Plug-In . SVG Version: 6.00 Build 0)  -->
<svg version="1.1" id="Capa_1" xmlns="http://www.w3.org/2000/svg" xmlns:xlink="http://www.w3.org/1999/xlink" x="0px" y="0px"
	 viewBox="0 0 426 426.5" style="enable-background:new 0 0 426 426.5;" xml:space="preserve">
<style type="text/css">
	.st0{fill:#1FC8A9;}
	.st1{fill:#828282;}
	.st2{fill:#FFFFFF;}
</style>
<path class="st2" d="M307.96,189.1c4.93-1.41,9.31-0.99,13.19,1.79c1.58,1.14,2.51,0.54,3.93-0.23c8.48-4.64,16.25-2.44,21.15,6.04
	c1.07,1.84,1.79,2.33,4.11,1.93c9.34-1.63,17.44,4.94,17.52,14.43c0.19,22.32,0.15,44.64-0.04,66.96
	c-0.06,6.78-2.46,13.02-6.45,18.55c-2.34,3.24-4.72,6.44-7.18,9.58c-2.24,2.85-1.65,6.27-0.95,9.07c0.54,2.18,3.82,1.05,5.76,0.89
	c3.43-0.29,4.04,1.07,4.01,4.18c-0.16,13.99-0.2,27.98,0.02,41.97c0.05,3.44-1.09,4-4.19,3.99c-33.98-0.1-67.97-0.09-101.95-0.01
	c-2.8,0.01-4.06-0.29-4.01-3.66c0.22-14.32,0.13-28.65,0.05-42.97c-0.01-2.36,0.25-3.67,3.16-3.49c2.22,0.14,5.77,1.22,6.49-0.66
	c1.04-2.71,1.02-6.21-0.23-9.25c-0.81-1.99-1.84-3.88-2.99-6.26c-6.7,5.95-14.7,6.49-23.01,6.31c-9.66-0.21-19.33,0.09-28.98-0.13
	c-3.31-0.08-4.99,0.5-4.42,4.22c0.42,2.74-1.43,6.16,4.18,6.01c10.82-0.28,18.68,6.46,20.57,16.53c1.45,7.73-2.87,13.26-10.69,13.27
	c-35.98,0.06-71.97,0.06-107.95,0c-7.84-0.01-12.18-5.51-10.76-13.23c1.85-10.04,9.77-16.87,20.54-16.57
	c5.56,0.15,3.85-3.16,4.24-5.96c0.51-3.65-0.98-4.34-4.38-4.27c-11.49,0.22-22.99,0.14-34.48,0.07
	c-15.47-0.09-26.11-10.59-26.14-25.98c-0.07-32.64-0.07-65.29,0-97.94c0.03-15.4,10.66-25.91,26.14-25.97
	c19.16-0.07,38.32-0.06,57.47,0.03c2.7,0.01,4.51-0.61,6.22-2.95c4.18-5.75,9.77-10.03,16.29-12.79c2.89-1.22,4.01-2.57,3.9-5.75
	c-0.25-7.32-0.15-14.66-0.05-21.98c0.06-4.64-2.08-6.71-6.68-6.57c-4.16,0.12-8.83-1.12-12.35,0.4c-3.63,1.56-2.42,6.98-3.82,10.58
	c-7.54,19.36-28.3,31.83-48.11,28.6c-22.31-3.64-38.27-21.11-39-42.67c-0.73-21.49,13.67-40.67,34.3-45.7
	c24.68-6.02,50.34,10.5,54.67,35.33c0.46,2.65,1.26,3.72,4.05,3.56c3.98-0.23,8-0.17,11.99-0.03c8.55,0.3,14.67,6.39,14.88,14.97
	c0.17,7.16,0.14,14.33-0.01,21.48c-0.05,2.61,0.32,3.75,3.42,3.62c6.61-0.27,6.62-0.05,6.63-6.85c0.01-12.76,5.46-18.26,18.15-18.26
	c7.66-0.01,15.33-0.13,22.99,0.06c2.91,0.07,4.55-0.45,3.84-3.72c-0.98-4.51,1.5-5.73,5.4-6.72c10.64-2.7,10.8-3.02,5.05-12.42
	c-2.21-3.61-2.24-5.75,1.04-8.62c4.76-4.15,9.11-8.78,13.42-13.4c1.8-1.93,3.27-2.28,5.42-0.72c1.6,1.16,3.42,2.03,5.16,3.01
	c5.18,2.94,6.77,2.26,8.38-3.53c2.47-8.91,2.47-8.91,11.35-8.91c5,0,10.01,0.24,14.99-0.09c3.01-0.2,3.9,1.04,4.66,3.62
	c3.5,12.01,3.61,12.06,14.75,5.91c2.23-1.23,3.58-1.29,5.43,0.68c4.79,5.09,9.74,10.05,14.83,14.83c1.98,1.86,2.11,3.34,0.62,5.42
	c-1.06,1.47-1.85,3.14-2.76,4.72c-3.25,5.67-2.59,7.19,3.89,8.87c8.35,2.17,8.35,2.17,8.35,10.81c0,4.33-0.4,8.71,0.1,12.98
	c0.59,5-1.47,6.75-6.1,7.83c-10.05,2.36-10.28,2.8-4.83,11.42c2.75,4.33,2.51,6.95-1.44,10.22c-4.47,3.7-8.41,8.06-12.41,12.3
	c-1.84,1.96-3.36,2.76-5.79,0.91c-1.83-1.4-3.98-2.38-6.03-3.47c-4.41-2.35-8.47,0.11-8.49,5.13
	C307.94,176.59,307.96,182.74,307.96,189.1z M287.99,236.33c0.01,3.03-0.28,5.99-1.03,8.89c-2.65,10.34-5.51,12.75-13.92,12.97
	c-3.46,0.09-4.5-1.23-5.08-4.32c-1.79-9.62-3.71-19.23-5.85-28.79c-2.01-8.97-9.46-15.67-18.28-16.74
	c-1.87-0.23-4.16-1.03-5.43,1.21c-1.14,2.01,0.53,3.45,1.54,4.88c4.86,6.86,8.56,14.01,9.18,22.74
	c1.25,17.48,4.39,34.52,13.95,49.77c2.37,3.77,3.77,8.14,5.98,12.03c2.86,5.04,4.72,10.2,3.92,16.08c-0.3,2.17,0.2,3.24,2.85,3.23
	c21.49-0.11,42.98-0.08,64.46-0.04c1.75,0,3.11-0.24,2.64-2.37c-1.82-8.24,2.92-13.88,7.68-19.46c5.45-6.4,7.55-13.69,7.43-22.09
	c-0.28-19.15-0.09-38.31-0.09-57.46c0-1.33,0.1-2.68-0.08-3.99c-0.41-2.85-2.12-4.57-5.03-4.5c-2.9,0.07-4.52,1.85-4.83,4.73
	c-0.12,1.15-0.05,2.33-0.05,3.49c-0.02,6.93-0.02,6.76-6.83,6.76c-2.77,0-3.29-0.96-3.22-3.42c0.16-5.32,0.07-10.66,0.03-15.99
	c-0.02-3.32-1.6-5.57-5.03-5.54c-3.43,0.03-4.93,2.32-4.95,5.63c-0.02,4.16-0.01,8.33-0.01,12.49c0,7.22,0,7.11-7.25,6.82
	c-2.19-0.09-2.85-0.66-2.79-2.84c0.14-5.33,0.02-10.66,0.06-15.99c0.03-3.46-1.24-6.09-4.98-6.11c-3.74-0.02-5.06,2.57-5.04,6.04
	c0.04,5-0.31,10.02,0.11,14.98c0.36,4.24-1.96,4.09-4.78,3.84c-2.47-0.22-5.59,1.37-5.44-3.7c0.37-12.31,0.12-24.65,0.12-36.97
	c0-12.82,0-25.65,0-38.47c0-3.29-1.45-5.63-4.88-5.7c-3.42-0.07-5.01,2.14-5.1,5.47c-0.03,1.17-0.01,2.33-0.01,3.5
	c0,14.82,0,29.65,0,44.47C287.97,206.69,287.93,221.51,287.99,236.33z M233.97,278.32c3.26,0.02,4.19-0.81,4.09-4.08
	c-0.24-8.32-0.36-16.66-0.01-24.98c0.49-11.63,0.04-22.6-8.1-32.35c-4.48-5.35-2.11-13.61,4.13-16.69c3.92-1.94,4.32-4.41,3.88-7.81
	c-0.21-1.63,1.23-4.81-2.32-4c-2.92,0.67-7.5-3.14-8.61,3.33c-3.58,20.99-22.64,36.59-44.22,36.51
	c-21.3-0.07-40.3-15.74-43.79-36.41c-0.52-3.09-1.71-3.65-4.51-3.62c-13.99,0.13-27.99,0.21-41.97-0.04
	c-3.77-0.07-4.62,0.91-4.59,4.62c0.18,26.98,0.18,53.96,0,80.94c-0.03,3.76,0.91,4.62,4.62,4.59c23.48-0.19,46.97-0.1,70.46-0.1
	C186.67,278.24,210.32,278.17,233.97,278.32z M233.52,288.32c-47.62-0.17-95.25-0.08-142.88-0.09c-9.25,0-12.59-3.37-12.59-12.68
	c-0.01-28.47-0.02-56.94,0.01-85.41c0.01-8.18,3.69-11.81,11.93-11.84c12.99-0.03,25.98-0.01,38.97-0.01c9.06,0,9.07,0,11.21-8.81
	c0.07-0.27-0.12-0.61-0.24-1.15c-19.26,0-38.56-0.21-57.86,0.1c-8.33,0.13-13.97,6.88-13.98,15.77c-0.05,32.63-0.05,65.27,0,97.9
	c0.01,10.01,6.17,16.11,16.25,16.12c52.45,0.03,104.91,0.01,157.36,0.03c3.06,0,5.91-0.56,8.59-2.09c3.38-1.91,4.95-4.12,2.49-7.97
	c-1.68-2.64-2.84-5.61-4.49-8.97C246.05,287.07,240.48,288.35,233.52,288.32z M319.16,155.33c3.3,2.8,5.62,1.86,8.74-0.99
	c4.07-3.71,4.89-6.85,1.33-11.11c-0.92-1.1-2.15-2.89-1.83-3.91c1.19-3.77,2.71-7.49,4.62-10.94c1.18-2.12,4.01-2.19,6.2-2.48
	c3.99-0.53,5.34-2.53,4.77-6.36c-0.24-1.63-0.16-3.33-0.01-4.99c0.17-1.89-0.77-3.06-2.41-3.1c-7.27-0.18-9.89-5-11.96-10.96
	c-0.82-2.36-1.29-3.97,0.1-6.31c4.06-6.86,3.75-6.78-1.61-12.55c-2.48-2.67-4.35-2.64-7.17-0.83c-2,1.29-4.25,3.98-6.49,2.93
	c-5.59-2.62-13.39-3.21-13.42-12.17c-0.01-2.39-1.4-3.51-3.93-3.24c-1.81,0.19-3.69,0.25-5.48-0.01c-3.22-0.47-4.36,1-4.97,3.96
	c-0.51,2.48-0.33,5.98-2.87,7.01c-5.56,2.26-11.17,7.29-17.49,1.26c-1.99-1.9-4.06-1.83-5.86,0.61c-0.88,1.19-1.99,2.26-3.17,3.17
	c-2.55,1.96-2.97,3.95-1,6.69c1.42,1.98,3.52,4.58,3.16,6.5c-0.7,3.81-2.55,7.54-4.59,10.91c-1.3,2.14-4.39,2.17-6.75,2.53
	c-3.35,0.52-4.61,2.08-4.1,5.33c0.1,0.65,0.11,1.35,0,1.99c-0.79,4.73,0.78,7.54,5.94,7.92c1.89,0.14,4.37,0.39,5.1,2.37
	c2.08,5.66,7.23,11.21,1.14,17.5c-1.97,2.04-1.67,4.07,0.7,5.84c1.19,0.89,2.26,1.99,3.16,3.18c1.98,2.6,4.06,2.97,6.68,0.89
	c3.71-2.95,7.63-4.43,11.92-0.52c0.87-6.34,0.54-10.91-4.93-15.49c-13.03-10.9-12.86-31.04-0.71-42.99
	c12.14-11.94,31.76-11.37,43.21,1.27c11.44,12.63,10.2,32.4-3.15,42.98c-3.33,2.64-4.56,5.23-4.1,9.14
	c0.17,1.48,0.03,2.99,0.03,5.58C312.17,152.16,315.72,152.41,319.16,155.33z M349.43,358.26c2.83,0.03,3.64-0.75,3.57-3.57
	c-0.19-7.82-0.16-15.65-0.01-23.48c0.05-2.42-0.69-3.05-3.07-3.05c-27.98,0.08-55.96,0.08-83.94,0c-2.4-0.01-3.11,0.66-3.06,3.06
	c0.15,7.66,0.23,15.32-0.03,22.98c-0.11,3.29,0.86,4.12,4.1,4.08c13.65-0.19,27.31-0.08,40.97-0.08
	C321.79,358.2,335.61,358.12,349.43,358.26z M125.94,76.95C112.07,64.93,91.5,65.6,78.42,78.52c-12.13,11.98-13.91,32.53-3.73,44.43
	c2.77-3.84,6.01-7.28,10.2-9.41c2.87-1.46,2.78-2.37,1.18-4.97c-6.88-11.18-1.14-25.81,11.23-29.31c8.08-2.29,16.52,0.38,21.45,6.78
	c5.24,6.81,5.88,15.35,1.07,22.78c-1.72,2.65-1.07,3.34,1.23,4.59c4.14,2.26,7.4,5.61,10.49,9.68
	C141.98,108.87,139.44,88.65,125.94,76.95z M164.65,193.6c2.94-1.5,3-2.56,1.27-5.31c-4.94-7.89-3.49-17.78,3.07-24.22
	c6.52-6.41,16.63-7.59,24.36-2.86c7.98,4.89,11.61,14.55,8.57,23.38c-0.85,2.46-2.38,4.69-3.68,7.18
	c5.38,2.58,9.66,6.53,13.34,11.27c10.36-15.03,7.73-34.65-5.86-46.31c-13.61-11.67-33.69-11.14-46.8,1.23
	c-12.54,11.84-14.54,31.6-4.46,44.99C157.43,199.33,160.48,195.73,164.65,193.6z M244.78,154.99c-3.68-2.59-3.75-5.07-1.33-8.96
	c5.77-9.29,5.57-9.66-5.15-12.35c-4-1-6.26-2.36-5.32-6.77c0.71-3.37-1.11-3.74-3.9-3.65c-5.65,0.19-11.32,0.12-16.97,0.04
	c-15.41-0.22-14.05-0.32-14.18,14.56c-0.02,2.44,0.94,3.51,2.97,4.35c7.23,2.98,13.18,7.67,17.83,13.93
	c1.1,1.48,2.19,2.21,4.07,2.19c7.94-0.09,15.89-0.04,24.06-0.04C246.77,156.26,245.63,155.58,244.78,154.99z M278.38,131.94
	c1.52,1.72,2.54,2.25,4.75,0.35c6.29-5.39,13.36-5.5,19.39-0.23c2.57,2.25,3.72,1.41,5.45-0.59c5.77-6.68,6.62-16.2,2.01-23.62
	c-4.84-7.78-14.02-11.22-22.97-8.59c-8.17,2.4-14.07,10.43-14.02,20.27C273.08,123.58,274.94,128.06,278.38,131.94z M213.97,338.2
	c4.35,0,4.99-1.02,2.79-4.75c-1.99-3.38-5.01-5.24-9.04-5.24c-29.81,0-59.63,0-89.44,0.01c-4,0-7.06,1.8-9.03,5.23
	c-2.18,3.79-1.59,4.74,2.78,4.75c16.82,0.02,33.64,0.01,50.47,0.01C179.66,338.21,196.82,338.22,213.97,338.2z M277.98,237.18
	c-0.01-22.29-0.14-44.57,0.13-66.86c0.05-3.83-1.97-5.04-4.61-5.81c-3.68-1.07-6.13,1.99-8.78,3.69c-2.37,1.52,0.39,3.14,0.95,4.56
	c1.49,3.76,2.24,7.57,2.35,11.62c0.34,13.28-1.58,26.67,3.93,39.63c2.6,6.12,2.98,13.19,4.42,20.12
	C277.94,241.82,277.98,239.51,277.98,237.18z M121.53,133.02c2.63-1.58,2.97-2.83,1.03-5.37c-9.26-12.13-29.23-12.29-38.82-0.3
	c-2.03,2.54-2.11,4.01,0.9,5.74c5.75,3.31,11.83,5.13,17,5.21C109.44,138.29,116.34,136.15,121.53,133.02z M201.98,212.65
	c2.34-1.46,2.26-2.63,0.79-4.71c-9.04-12.77-31.11-12.64-39.72,0.23c-1.31,1.96-1.28,3.06,0.79,4.36
	c5.92,3.72,12.32,5.66,19.51,5.75C189.93,218.1,196.18,216.26,201.98,212.65z M136.54,308.12c-4.7-0.19-3.49,2.72-3.48,5.1
	c0,2.38-1.21,5.18,3.48,5.11c17.65-0.27,35.3-0.27,52.95,0c4.69,0.07,3.48-2.72,3.48-5.1c0-2.38,1.23-5.31-3.48-5.11
	c-8.64,0.37-17.31,0.11-25.97,0.11C154.52,308.22,145.52,308.48,136.54,308.12z M257.98,186.02c0-1.16,0.04-2.33-0.04-3.49
	c-0.54-7.59-6.11-13.63-13.63-14.09c-6.11-0.38-12.25-0.08-18.42-0.08c1.47,9.77,1.47,9.77,10.81,9.94c0.33,0.01,0.67-0.01,1,0.01
	c6.19,0.31,10.75,4.29,10.09,10.46c-0.82,7.58,1.42,12.15,9,13.74c0.15,0.03,0.32,0.03,1.19,0.09
	C257.98,196.97,257.98,191.49,257.98,186.02z M93.05,98.1c-0.13,5.52,4.47,10.22,10,10.21c5.32-0.01,9.83-4.42,9.97-9.75
	c0.14-5.51-4.47-10.22-10-10.21C97.64,88.36,93.18,92.72,93.05,98.1z M183.65,168.33c-5.53-0.38-10.39,4-10.63,9.56
	c-0.22,5.3,4.01,10,9.33,10.36c5.48,0.38,10.4-4.04,10.63-9.57C193.21,173.39,188.97,168.69,183.65,168.33z M214.33,268.3
	c2.6,0.01,3.79-0.33,3.75-3.4c-0.09-6.51,0.1-6.75-6.44-6.54c-3.32,0.1-3.89-1.09-3.7-3.97c0.23-3.48-0.05-6.99,0.08-10.48
	c0.14-3.52,0.39-6.07-4.91-5.88c-4.63,0.17-5.63,1.54-5.18,5.64c0.31,2.8,0.12,5.66,0.04,8.48c-0.08,2.97,1.48,6.44-4.37,6.36
	c-5.05-0.07-6.32-1.57-5.69-6.14c0.18-1.27,0.98-3.57-0.85-3.9c-2.72-0.49-5.79-0.65-8.37,0.16c-1.66,0.52-0.41,3.31-0.69,5.05
	c-0.08,0.49-0.08,1.01,0,1.49c0.64,4.08-2.4,3.32-4.41,2.99c-2.03-0.33-5.78,2.25-5.63-2.82c0.14-4.66-0.22-9.34,0.11-13.98
	c0.29-4.11-2.48-3.3-4.49-2.98c-2.03,0.32-5.78-2.22-5.61,2.84c0.14,4.49-0.3,9.02,0.12,13.48c0.43,4.66-2.59,3.61-5.03,3.54
	c-2.32-0.07-5.3,1.31-5.16-3.42c0.32-10.98-0.14-21.98,0.22-32.96c0.15-4.65-2.62-3.6-5.06-3.53c-2.32,0.07-5.3-1.31-5.16,3.42
	c0.32,10.81-0.18,21.65,0.24,32.45c0.18,4.57-2.18,4.15-5.08,4.09c-2.76-0.06-5.31,0.75-5.19-3.98c0.38-13.97-0.1-27.97,0.27-41.94
	c0.12-4.56-2.16-4.16-5.07-4.1c-2.75,0.06-5.32-0.77-5.19,3.98c0.38,13.97-0.1,27.97,0.27,41.94c0.12,4.55-2.15,4.17-5.07,4.1
	c-2.75-0.06-5.29,0.77-5.2-3.97c0.34-17.31-0.06-34.63,0.27-51.93c0.09-4.53-2.12-4.19-5.06-4.11c-2.74,0.08-5.28-0.8-5.21,3.96
	c0.31,20.64,0.24,41.28,0.03,61.93c-0.04,3.74,1.25,4.2,4.51,4.18c18.48-0.15,36.96-0.07,55.44-0.07
	C176.7,268.24,195.52,268.2,214.33,268.3z"/>
</svg>
