<?xml version="1.0" encoding="utf-8"?>
<!-- Generator: Adobe Illustrator 26.3.1, SVG Export Plug-In . SVG Version: 6.00 Build 0)  -->
<svg version="1.1" id="Capa_1" xmlns="http://www.w3.org/2000/svg" xmlns:xlink="http://www.w3.org/1999/xlink" x="0px" y="0px"
	 viewBox="0 0 426 426.5" style="enable-background:new 0 0 426 426.5;" xml:space="preserve">
<style type="text/css">
	.st0{fill:#00C2A4;}
	.st1{fill:#00AA89;}
	.st2{fill:#A9EADD;}
	.st3{fill:#828282;}
	.st4{fill:#DCDCDC;}
	.st5{fill:#282828;}
	.st6{fill:#1FC8A9;}
	.st7{fill:#FEFEFE;}
	.st8{fill:#E1F4F0;}
	.st9{fill:#F4F4F4;}
	.st10{fill:#FDFDFD;}
	.st11{fill:#FFFFFF;}
	.st12{fill:none;stroke:#FFFFFF;stroke-width:10;stroke-miterlimit:10;}
</style>
<g>
	<path class="st6" fill='#1FC8A9' d="M57.1,372.31c0-106.04,0-212.08,0-318.12c0.64-9.64,9.83-18.86,19.53-19.53c80.7,0,161.39,0,242.09,0
		c13.93,2.39,21.2,11.14,21.21,25.58c0.01,31.51,0,63.02,0.01,94.53c0,1.26-0.19,2.55,0.27,4.07c1.28-0.42,1.98-1.51,2.81-2.34
		c9.23-9.19,18.38-18.46,27.65-27.6c12.83-12.65,34.22-8.73,41.93,7.56c1.08,2.27,0.94,4.73,1.7,7.02c0,3.02,0,6.05,0,9.07
		c-0.67,7.03-4.77,12.1-9.53,16.85c-20.4,20.35-40.73,40.78-61.19,61.08c-2.59,2.57-3.73,5.22-3.72,8.89
		c0.1,42.65,0.07,85.3,0.06,127.95c0,9.48-4.13,16.65-11.99,21.91c-2.87,1.92-6.1,1.93-9.22,2.61c-80.93,0-161.86,0-242.78,0
		C65.3,389.53,58.83,383.21,57.1,372.31z"/>
	<path class="st7" fill='#FEFEFE' d="M297.09,260.48c0,1.43,0,2.45,0,3.46c0,27.55-0.03,55.11,0.06,82.66c0.01,2.59-0.46,3.47-3.31,3.46
		c-21.74-0.14-43.48-0.08-65.22-0.07c-1.16,0-2.34-0.07-3.48,0.07c-3.54,0.44-6.15,3.41-6.15,6.89c-0.01,3.48,2.59,6.44,6.12,6.92
		c0.92,0.12,1.86,0.07,2.79,0.07c24.76,0,49.53,0.01,74.29,0c6.45,0,8.86-2.39,8.86-8.8c0.01-32.55,0.03-65.11-0.05-97.66
		c-0.01-2.42,0.57-3.71,2.97-4.59c3.66-1.33,7.14-3.15,11.04-4.91c0,1.42,0,2.54,0,3.66c0,38.02,0,76.03,0,114.05
		c0,8.73-3.48,12.21-12.23,12.21c-76.5,0-153,0-229.5,0c-8.74,0-12.21-3.48-12.21-12.22c0-101.61,0-203.22,0-304.84
		c0-8.75,3.47-12.22,12.21-12.23c17.32,0,34.65,0.05,51.97-0.05c2.55-0.02,3.82,0.38,3.49,3.31c-0.29,2.53-0.23,5.12-0.01,7.66
		c0.21,2.42-0.51,3.12-3.01,3.09c-13.83-0.13-27.67-0.07-41.51-0.06c-6.92,0-9.18,2.26-9.18,9.17c0,94.29,0,188.58,0,282.86
		c0,7.19,2.16,9.34,9.37,9.34c24.65,0,49.3,0,73.94,0c1.63,0,3.26,0.09,4.77-0.72c2.86-1.53,4.25-3.9,3.93-7.13
		c-0.3-3.04-2.82-5.57-5.91-6.01c-1.14-0.16-2.32-0.09-3.48-0.09c-21.74,0-43.48-0.04-65.22,0.04c-2.46,0.01-3.52-0.26-3.52-3.24
		c0.1-89.06,0.09-178.11,0.01-267.17c0-2.67,0.7-3.21,3.24-3.18c11.28,0.15,22.55,0.11,33.83,0.02c2.02-0.02,2.67,0.39,2.84,2.6
		c0.8,10.8,9.93,19.61,20.77,19.69c25.58,0.17,51.16,0.16,76.73,0.01c11.03-0.07,20.05-8.78,20.96-19.88
		c0.17-2.02,0.79-2.43,2.65-2.42c11.28,0.08,22.56,0.13,33.83-0.03c2.66-0.04,3.42,0.57,3.42,3.35c-0.1,38.6-0.2,77.2,0.07,115.79
		c0.04,5.83-1.16,10.29-5.87,13.76c-2.49,1.84-3.84,4.54-5.07,7.35c-6.2,14.11-12.46,28.19-18.79,42.24
		c-1.5,3.33-2.09,6.51,0.68,9.34c2.75,2.82,5.91,2.47,9.29,0.9C283.84,266.23,290.32,263.48,297.09,260.48z"/>
	<path class="st8" fill='#E1F4F0' d="M300.55,258.62c0,1.43,0,2.45,0,3.46c0,27.55-0.03,56.97,0.06,84.53c0.01,2.59-0.46,3.47-3.31,3.46
		c-21.74-0.14-43.48-0.08-65.22-0.07c-1.16,0-2.34-0.07-3.48,0.07c-3.54,0.44-6.15,3.41-6.15,6.89c-0.01,3.48,2.59,6.44,6.12,6.92
		c0.92,0.12,1.86,0.07,2.79,0.07c24.76,0,49.53,0.01,74.29,0c6.45,0,8.86-2.39,8.86-8.8c0.01-32.55,0.03-66.97-0.05-99.52
		c-0.01-2.42,0.57-3.71,2.97-4.59c3.66-1.33,7.14-3.15,11.04-4.91c0,1.42,0,2.54,0,3.66c0,38.02,0,77.9,0,115.92
		c0,8.73-3.48,12.21-12.23,12.21c-76.5,0-153,0-229.5,0c-8.74,0-12.21-3.48-12.21-12.22c0-101.61,0-203.22,0-304.84
		c0-8.75,3.47-12.22,12.21-12.23c17.32,0,34.65,0.05,51.97-0.05c2.55-0.02,3.82,0.38,3.49,3.31c-0.29,2.53-0.23,5.12-0.01,7.66
		c0.21,2.42-0.51,3.12-3.01,3.09c-13.83-0.13-27.67-0.07-41.51-0.06c-6.92,0-9.18,2.26-9.18,9.17c0,94.29,0,188.58,0,282.86
		c0,7.19,2.16,9.34,9.37,9.34c24.65,0,49.3,0,73.94,0c1.63,0,3.26,0.09,4.77-0.72c2.86-1.53,4.25-3.9,3.93-7.13
		c-0.3-3.04-2.82-5.57-5.91-6.01c-1.14-0.16-2.32-0.09-3.48-0.09c-21.74,0-43.48-0.04-65.22,0.04c-2.46,0.01-3.52-0.26-3.52-3.24
		c0.1-89.06,0.09-178.11,0.01-267.17c0-2.67,0.7-3.21,3.24-3.18c11.28,0.15,22.55,0.11,33.83,0.02c2.02-0.02,2.67,0.39,2.84,2.6
		c0.8,10.8,9.93,19.61,20.77,19.69c25.58,0.17,51.16,0.16,76.73,0.01c11.03-0.07,20.05-8.78,20.96-19.88
		c0.17-2.02,0.79-2.43,2.65-2.42c11.28,0.08,22.56,0.13,33.83-0.03c2.66-0.04,3.42,0.57,3.42,3.35c-0.1,38.6-0.2,77.2,0.07,115.79
		c0.04,5.83-1.16,10.29-5.87,13.76c-2.49,1.84-3.84,4.54-5.07,7.35c-6.2,14.11-12.46,28.19-18.79,42.24
		c-1.5,3.33-2.09,6.51,0.68,9.34c2.75,2.82,5.91,2.47,9.29,0.9C287.31,266.23,293.78,261.61,300.55,258.62z"/>
	<path class="st8" fill='#E1F4F0' d="M198.27,48.61c14.06,0,28.12,0.06,42.18-0.06c2.41-0.02,3.11,0.52,3.06,3.01c-0.17,8.13-0.04,16.26-0.08,24.4
		c-0.03,5.96-3.03,8.92-9.06,8.92c-24.28,0.02-48.57,0.02-72.85,0c-5.97-0.01-8.89-3-8.91-9.07c-0.03-8.13,0.08-16.27-0.06-24.4
		c-0.04-2.27,0.57-2.87,2.85-2.86C169.69,48.66,183.98,48.61,198.27,48.61z"/>
	<path class="st7" fill='#FEFEFE' d="M311.04,189.68c0-2.03,0-3.25,0-4.47c0-37.76,0-75.51,0-113.27c0-7.21-2.15-9.37-9.32-9.38
		c-13.83,0-27.65-0.05-41.48,0.05c-2.21,0.02-3.07-0.47-2.9-2.83c0.25-3.57-1.18-8.26,0.6-10.44c1.86-2.28,6.74-0.68,10.29-0.69
		c15.1-0.08,30.21-0.04,45.31-0.03c7.76,0.01,11.45,3.74,11.45,11.57c0.01,37.52-0.02,75.05,0.06,112.57c0,2.19-0.67,3.66-2.2,5.12
		C319.03,181.54,315.35,185.35,311.04,189.68z"/>
	<path class="st8" fill='#E1F4F0' d="M303.98,216.52c0.84-0.88,1.53-1.64,2.26-2.36c19.39-19.39,38.83-38.75,58.12-58.23
		c2.11-2.13,3.15-2.01,5.06,0.08c3.85,4.18,7.96,8.14,12.06,12.09c1.24,1.19,1.43,1.89,0.09,3.23
		c-19.93,19.84-39.81,39.73-59.67,59.64c-1.2,1.2-1.92,1.58-3.3,0.15C313.83,226.2,308.92,221.43,303.98,216.52z"/>
	<path class="st8" fill='#E1F4F0' d="M387.15,136.3c6.34,0.09,9.87,2.19,11.97,6.42c2.11,4.25,1.58,8.36-1.28,12.1c-4.31,5.64-4.35,5.61-9.29,0.7
		c-3.46-3.44-6.85-6.96-10.39-10.32c-1.24-1.17-1.18-1.86-0.01-3.01C381.15,139.22,384.01,136.09,387.15,136.3z"/>
	<path class="st8" fill='#E1F4F0' d="M308.32,240.16c-7.26,3.23-13.95,6.21-21.38,9.53c3.11-7.01,5.94-13.38,8.76-19.76c0.7-1.6,1.37-0.62,2.02,0
		C301.13,233.21,304.54,236.51,308.32,240.16z"/>
	<path class="st6" fill='#1FC8A9' d="M147.61,176.97c-6.97,0-13.94,0.02-20.91-0.01c-5.54-0.02-8.19-2.6-8.2-8.04c-0.03-14.17-0.03-28.34,0-42.52
		c0.01-5.43,2.67-8.02,8.21-8.03c14.06-0.02,28.11-0.02,42.17,0c5.67,0.01,8.2,2.61,8.21,8.39c0.02,13.94,0.02,27.88,0,41.82
		c-0.01,5.92-2.53,8.37-8.57,8.38C161.55,176.99,154.58,176.97,147.61,176.97z"/>
	<path class="st6" fill='#1FC8A9' d="M177.09,224.66c0,6.97,0.03,13.94-0.01,20.91c-0.03,5.5-2.63,8.12-8.12,8.13c-14.17,0.03-28.34,0.03-42.52,0
		c-5.25-0.01-7.94-2.7-7.95-7.94c-0.03-14.29-0.04-28.58,0-42.86c0.01-5.06,2.71-7.75,7.76-7.77c14.4-0.04,28.81-0.05,43.21,0
		c4.79,0.02,7.55,2.79,7.6,7.58C177.14,210.03,177.09,217.35,177.09,224.66z"/>
	<path class="st6" fill='#1FC8A9' d="M177.09,301.48c0,6.85,0.02,13.71-0.01,20.56c-0.02,5.78-2.54,8.39-8.2,8.4c-14.06,0.03-28.11,0.03-42.17,0
		c-5.68-0.01-8.22-2.6-8.23-8.37c-0.02-13.94-0.02-27.88,0-41.82c0.01-5.93,2.52-8.39,8.54-8.4c13.82-0.02,27.65-0.02,41.47,0
		c6.16,0.01,8.57,2.46,8.58,8.72C177.11,287.54,177.09,294.51,177.09,301.48z"/>
	<path class="st6" fill='#1FC8A9' d="M217.12,278.45c2.31,0.07,4.09,1.01,5.63,2.57c2.85,2.9,5.81,5.69,8.59,8.65c1.25,1.33,2.04,1.36,3.31,0.01
		c2.77-2.97,5.68-5.82,8.6-8.64c3.41-3.29,7.64-3.43,10.5-0.45c2.8,2.92,2.62,6.88-0.59,10.25c-2.56,2.69-5.14,5.38-7.89,7.87
		c-1.9,1.71-2.37,2.9-0.13,4.81c2.82,2.4,5.34,5.17,7.91,7.84c3.37,3.5,3.55,7.55,0.56,10.49c-2.93,2.9-7.04,2.65-10.5-0.71
		c-2.83-2.75-5.66-5.51-8.35-8.4c-1.36-1.47-2.22-1.41-3.56,0.04c-2.68,2.89-5.52,5.64-8.36,8.39c-3.47,3.35-7.58,3.58-10.51,0.68
		c-2.9-2.87-2.68-7.11,0.61-10.5c2.51-2.58,4.96-5.24,7.67-7.59c2.11-1.83,2.45-3.07,0.12-5.07c-3.07-2.64-5.86-5.63-8.62-8.61
		c-2.1-2.26-2.36-4.98-1.05-7.76C212.27,279.75,214.47,278.62,217.12,278.45z"/>
	<path class="st6" fill='#1FC8A9' d="M263.51,131.88c-0.19,2.16-0.99,3.91-2.45,5.36c-10.28,10.27-20.51,20.58-30.85,30.79
		c-3.29,3.25-7.18,3.17-10.5-0.06c-5-4.87-9.94-9.79-14.8-14.79c-3.16-3.25-3.2-7.44-0.31-10.24c2.92-2.84,6.91-2.69,10.25,0.49
		c2.69,2.57,5.4,5.14,7.86,7.91c1.67,1.88,2.64,2.04,4.53,0.09c7.84-8.1,15.9-15.99,23.86-23.97c2.16-2.17,4.67-3.02,7.61-2.08
		c2.54,0.81,3.98,2.69,4.59,5.24C263.41,131.06,263.45,131.52,263.51,131.88z"/>
	<path class="st6" fill='#1FC8A9' d="M263.5,208.39c-0.11,2.31-0.98,4.13-2.53,5.68c-10.2,10.18-20.36,20.41-30.6,30.55
		c-3.44,3.41-7.3,3.37-10.75,0.01c-4.91-4.79-9.77-9.63-14.56-14.54c-3.24-3.33-3.41-7.35-0.62-10.25c2.91-3.03,7.03-2.91,10.5,0.42
		c2.68,2.57,5.45,5.1,7.85,7.92c1.83,2.15,2.83,1.62,4.53-0.12c7.8-7.98,15.7-15.86,23.64-23.7c4.49-4.44,10.85-2.94,12.29,2.77
		C263.36,207.58,263.43,208.04,263.5,208.39z"/>
	<path class="st6" fill='#1FC8A9' d="M197.94,350c3.72-0.04,6.9,2.99,7.04,6.7c0.14,3.84-3.03,7.17-6.88,7.21c-3.86,0.05-7.09-3.19-7.04-7.05
		C191.12,353.15,194.22,350.05,197.94,350z"/>
	<path class="st8" fill='#E1F4F0' d="M148.12,163.02c-4.53,0-9.07-0.08-13.6,0.04c-1.71,0.04-2.13-0.51-2.11-2.16c0.08-8.83,0.08-17.67,0-26.5
		c-0.02-1.71,0.51-2.13,2.16-2.11c8.83,0.08,17.67,0.08,26.5,0c1.71-0.02,2.13,0.51,2.11,2.16c-0.08,8.83-0.08,17.67,0,26.5
		c0.02,1.71-0.51,2.15-2.16,2.11C156.72,162.95,152.42,163.02,148.12,163.02z"/>
	<path class="st8" fill='#E1F4F0' d="M148.08,239.76c-4.42,0-8.84-0.05-13.25,0.03c-1.63,0.03-2.46-0.15-2.43-2.19c0.13-8.83,0.1-17.67,0.01-26.5
		c-0.02-1.78,0.63-2.07,2.21-2.06c8.83,0.07,17.67,0.08,26.5-0.01c1.78-0.02,2.07,0.63,2.06,2.21c-0.07,8.83-0.08,17.67,0.01,26.5
		c0.02,1.78-0.62,2.1-2.21,2.06C156.68,239.7,152.38,239.76,148.08,239.76z"/>
	<path class="st8" fill='#E1F4F0' d="M163.14,301.22c0,4.3-0.05,8.6,0.03,12.9c0.03,1.63-0.15,2.46-2.19,2.43c-8.83-0.13-17.67-0.1-26.5-0.01
		c-1.78,0.02-2.07-0.63-2.06-2.21c0.07-8.83,0.08-17.67-0.01-26.5c-0.02-1.78,0.63-2.07,2.21-2.06c8.83,0.07,17.67,0.08,26.5-0.01
		c1.78-0.02,2.1,0.62,2.06,2.21C163.08,292.38,163.14,296.8,163.14,301.22z"/>
</g>
<path class="st8" fill='#E1F4F0' d="M312.56,188.15c0-2,0-3.2,0-4.41c0-37.23,0-74.46,0-111.69c0-7.11-2.15-9.24-9.32-9.25
	c-13.83,0-27.65-0.05-41.48,0.05c-2.21,0.02-3.07-0.46-2.9-2.79c0.25-3.52-1.18-8.15,0.6-10.3c1.86-2.25,6.74-0.67,10.29-0.68
	c15.1-0.08,30.21-0.04,45.31-0.03c7.76,0.01,11.45,3.69,11.45,11.41c0.01,37-0.02,74,0.06,111c0,2.16-0.67,3.61-2.2,5.05
	C320.55,180.12,316.87,183.88,312.56,188.15z"/>
</svg>
