<?xml version="1.0" encoding="utf-8"?>
<!-- Generator: Adobe Illustrator 26.3.1, SVG Export Plug-In . SVG Version: 6.00 Build 0)  -->
<svg version="1.1" id="Capa_1" xmlns="http://www.w3.org/2000/svg" xmlns:xlink="http://www.w3.org/1999/xlink" x="0px" y="0px"
	 viewBox="0 0 426 426.5" style="enable-background:new 0 0 426 426.5;" xml:space="preserve">
<style type="text/css">
	.st0{fill:#606060;}
	.st1{fill:none;stroke:#606060;stroke-width:14;stroke-miterlimit:10;}
</style>
<path class="st0" d="M111,1.1c68.1,0,136.3,0,204.4,0c19.3,1.8,26.9,18.3,27,34c0.1,15.1,0,30.2,0,45.2c0,32.5,0,65,0,97.5
	c0,6.4,0.1,6.5,6.4,6.5c17.8,0,35.7,0.1,53.5,0c7.7,0,13.8,3.1,19,8.7c2.9,3.1,3.7,7,4.6,10.9c0,34.9,0,69.8,0,104.7
	c-2.9,12.1-9.4,17.9-21.8,19.8c-5.4,0.8-10.8,0.5-16.2,0.6c-13.3,0.1-26.6,0-39.9,0c-5.2,0-5.6,0.4-5.6,5.7c0,19.1,0,38.2,0,57.3
	c0,7-1.1,13.8-4.7,20c-5.6,9.6-13.9,14.9-25.1,14.9c-66.3,0-132.7,0.1-199,0c-13.8,0-25.1-9.5-28.3-23.1c-1-4.3-1.4-8.7-1.4-13.2
	c0-46.5,0-93.1,0-139.6c0-7.7,0-7.7-7.8-7.7c-21.3,0-42.7,0-64,0c-1.9,0-3.9,0.1-5.8-0.2c-4.1-0.7-6.1-2.8-6.2-7
	c-0.1-3.9,0-7.8,0-11.6c0-38.4,0-76.7,0-115.1c0-8.1,2.5-10.7,11.1-10.8c21.7-0.1,43.5,0,65.2,0c7.5,0,7.5,0,7.5-7.5
	c0-18.6,0-37.1,0-55.7c0-6.7,1-13.2,4.3-19.3C93.2,7.2,100.7,2,111,1.1z M104,72.1c-3.5,0-4.4,1-4.3,4.4c0.3,6.6,0.2,13.3,0,19.9
	c-0.1,2.9,0.7,3.7,3.6,3.7c15.1-0.2,30.2-0.1,45.3-0.1c14,0,28,0,42,0c5.3,0,8.5,2.7,8.5,7.4c0,42.5,0,85,0,127.6
	c0,4.3-2.4,6.8-6.8,7.2c-1.4,0.1-2.8,0.1-4.1,0.1c-28,0-56,0-83.9-0.2c-3.7,0-4.6,0.9-4.6,4.5c0.2,34.8,0.2,69.5,0,104.3
	c0,3.6,0.8,4.6,4.5,4.6c35-0.2,70.1-0.1,105.1-0.1c37.5,0,75.1-0.1,112.6,0.1c4.2,0,5.1-1.2,4.9-5.1c-0.3-6.2-0.3-12.5,0-18.7
	c0.2-3.5-0.9-4.3-4.3-4.3c-23.4,0.2-46.8,0.1-70.2,0.1c-13.9,0-24.8-10.1-24.9-23c-0.1-32.4-0.1-64.8,0-97.2
	c0-10.8,10.2-21.6,21-21.7c24.6-0.3,49.3-0.3,74-0.2c3.8,0,4.5-1.1,4.5-4.6c-0.1-34.8-0.1-69.5,0-104.3c0-3.4-0.8-4.4-4.3-4.4
	c-36.4,0.1-72.9,0.1-109.3,0.1S140.4,72.3,104,72.1z M245.3,242.2c-1.8,0-3.8-0.6-3.8,2.7c0.1,19.4,0,38.8,0.1,58.1
	c0.1,6.5,3.8,9.9,10.2,9.9c49.6,0.1,99.1,0.2,148.7,0.2c8,0,11.3-3.4,11.3-11.5c0-18.5-0.1-37.1,0.1-55.6c0-3-0.6-3.9-3.8-3.9
	c-27,0.1-54,0.1-81,0.1C299.9,242.2,272.6,242.2,245.3,242.2z M99.8,228c13.3,0,26.6-0.1,39.9,0.1c2.4,0,3.2-0.6,3.8-3
	c4.9-20.5,17.7-33.2,38-38.3c2.8-0.7,3.5-1.7,3.4-4.3c-0.2-7.5-0.1-14.9,0-22.4c0-2.2-0.3-3.3-2.8-3.9c-20.7-5-33.7-17.9-38.7-38.7
	c-0.4-1.8-1-2.5-3-2.5c-27,0-54-0.1-81-0.2c-2,0-2.8,0.5-3.3,2.6c-4.9,20.8-17.8,33.8-38.5,38.8c-2.3,0.5-3.1,1.2-3,3.7
	c0.2,7.5,0.2,14.9,0,22.4c-0.1,2.7,0.5,3.8,3.5,4.6c20.2,5,32.9,17.8,37.9,38c0.7,2.9,1.8,3.4,4.4,3.3C73.5,227.9,86.7,228,99.8,228
	L99.8,228z M322.9,57.7c3,0,4.1-0.6,3.9-3.8c-0.3-7.1,0-14.1-0.1-21.2c-0.1-11-6.7-17.4-17.7-17.5c-63.8,0-127.7,0-191.5,0
	c-11.1,0-17.6,6.4-17.7,17.4c-0.1,6.9,0.2,13.9-0.1,20.8c-0.2,3.5,0.9,4.3,4.3,4.3c36.3-0.1,72.6-0.1,108.8-0.1
	C249.5,57.6,286.2,57.6,322.9,57.7z M103.8,370c-3.3,0-4.2,0.8-4.1,4.1c0.3,7.1,0,14.1,0.1,21.2c0.2,10.7,6.8,17.2,17.5,17.2
	c64,0,127.9,0,191.9,0c10.8,0,17.3-6.5,17.5-17.3c0.1-7.1-0.2-14.1,0.1-21.2c0.1-3.4-1-4-4.2-4c-36.4,0.1-72.8,0.1-109.3,0.1
	C176.9,370.1,140.3,370.1,103.8,370z M408,228.1c3,0,4.1-0.6,3.9-3.8c-0.3-4.4,0-8.9-0.1-13.3c-0.1-7.5-3.8-11.3-11.2-11.3
	c-49.3,0-98.5,0-147.8,0c-7.2,0-10.9,3.7-11.1,10.9c-0.1,4.3,0.2,8.6-0.1,12.9c-0.3,3.5,0.6,4.6,4.4,4.6c26.8-0.2,53.7-0.1,80.6-0.1
	C353.8,228,380.9,227.9,408,228.1z M157.7,225.9c-0.3,1.8,0.3,2.1,1.9,2.1c7.6-0.1,15.2-0.1,22.8,0c1.7,0,2.5-0.4,2.5-2.3
	c-0.1-8.3,0-16.6,0-24.9C173,202,159.5,214.5,157.7,225.9z M16.8,200.8c-1.7-0.3-2.2,0-2.1,1.7c0.1,7.7,0.1,15.5,0,23.2
	c0,1.5,0.3,2.3,2,2.2c8.4-0.1,16.8,0,25.3,0C40.5,215.9,28.6,203.2,16.8,200.8z M182.3,141.6c1.7,0.3,2.5,0.3,2.5-1.8
	c-0.1-7.6-0.1-15.2,0-22.8c0-1.7-0.8-2.1-2.3-2.1c-8.3,0-16.6,0-24.9,0C159.1,126.6,171,139.4,182.3,141.6z M41.8,117.1
	c0.5-2.1-0.3-2.3-2-2.3c-7.5,0.1-14.9,0.1-22.4,0c-2.1,0-2.8,0.5-2.8,2.8c0.1,8,0.1,16,0.1,24.3C27,140,39.1,128.8,41.8,117.1z
	 M51.1,288.8c2.4,2.3,4.7,4.7,7.1,7c3.8,3.6,7.9,4,11,1.1c3.1-3,2.8-7.2-0.8-11c-6.6-6.7-13.2-13.4-19.8-20.1c-3.3-3.3-7.7-3.3-11,0
	c-6.6,6.7-13.3,13.4-19.9,20.1c-3.7,3.8-4.1,7.8-1,10.9c3,3,7.3,2.6,11-0.9c2.6-2.5,4.8-5.5,8.3-7.6c0,12,0,23.4,0,34.9
	c0,3.9-0.1,7.8,0.1,11.6c0.2,3.9,2.6,6,6.3,6.5c3.4,0.5,6.5-1.7,7.4-5.3c0.4-1.4,0.4-3,0.4-4.5c0-14.2,0-28.5,0-43.1
	C50.9,288.8,51.1,288.8,51.1,288.8z M390.5,139c0-1.3,0-2.7,0-4c0-13.6,0-27.1,0-40.7c0-5.3-3.3-8.6-7.8-8c-4,0.5-6.4,3.4-6.4,8.3
	c-0.1,13.7,0,27.4-0.1,41.1c0,1.1,0.7,2.5-0.9,3.5c-2.5-2.6-4.9-5.2-7.5-7.7c-3.5-3.4-7.7-3.5-10.7-0.5c-2.9,3-2.7,7.1,0.8,10.6
	c6.7,6.8,13.4,13.6,20.1,20.4c3.1,3.1,7.5,3.2,10.7,0.1c6.9-6.8,13.7-13.7,20.5-20.7c3.4-3.5,3.5-7.7,0.5-10.6
	c-3-2.9-7.2-2.6-10.6,0.9c-2.6,2.6-4.9,5.5-7.3,8.2C391.3,139.6,390.9,139.3,390.5,139z M389.8,291.9c4.7-0.1,7.9-3.2,7.8-7.3
	c-0.1-4-3.2-6.8-7.8-6.8c-9-0.1-18-0.1-26.9,0c-4.8,0-7.6,2.6-7.7,6.8c-0.1,4.3,2.8,7.2,7.7,7.3c4.4,0.1,8.8,0,13.3,0
	C380.7,291.9,385.3,292,389.8,291.9z M263.5,277.8c-4.6,0.1-7.7,2.9-7.7,6.9c-0.1,3.9,3.1,7.1,7.5,7.2c9.3,0.1,18.5,0.1,27.8,0
	c4.5-0.1,7.3-3.2,7.2-7.4c-0.1-4-2.9-6.6-7.4-6.7c-4.6-0.1-9.1,0-13.7,0C272.6,277.7,268.1,277.7,263.5,277.8z M334.2,291.8
	c4.1-0.4,7-3.6,6.7-7.5c-0.2-3.7-3.1-6.5-7.1-6.6c-4.7-0.1-9.4-0.1-14,0c-4.1,0.1-6.9,2.8-7.1,6.6c-0.2,3.9,2.5,7.1,6.7,7.5
	c2.5,0.2,5,0,7.4,0C329.2,291.9,331.7,292,334.2,291.8z M247.6,43.6c5.1,0,8-2.6,8.1-6.9c0.1-4.4-3-7.3-8.2-7.3
	c-22.8,0-45.6,0-68.4,0c-5.2,0-8.3,2.8-8.3,7.2c0,4.5,3,7,8.4,7c11.3,0,22.7,0,34,0C224.7,43.6,236.2,43.6,247.6,43.6z M192.9,384.1
	c-5,0-8,2.7-8,7c0,4.2,3.1,7.1,8,7.1c13.6,0.1,27.1,0.1,40.7,0c4.9,0,8-2.9,8-7.1c0-4.3-3-7-8-7c-6.6-0.1-13.3,0-19.9,0
	C206.8,384.1,199.8,384.1,192.9,384.1z M128.5,384.1c-4.4,0.1-7.3,2.8-7.5,6.7c-0.2,4,2.9,7.3,7.3,7.4c9.4,0.1,18.8,0.2,28.2,0
	c4.2-0.1,7-3.2,7-7.2c-0.1-4-2.8-6.8-7.2-6.9c-4.7-0.1-9.4,0-14.1,0C137.6,384.1,133.1,384,128.5,384.1z M270.9,384.1
	c-5,0.1-7.9,2.7-7.9,7.1c0,4.1,2.9,7,7.5,7.1c9.1,0.1,18.2,0.1,27.4,0c4.5-0.1,7.6-3.2,7.5-7.1c0-4-3.1-6.9-7.6-7
	c-4.4-0.1-8.8,0-13.3,0C280,384.1,275.4,384.1,270.9,384.1z"/>
<path class="st1" d="M135.2,166.6c0.1-19.5-15.7-35.5-35.1-35.7c-19.6-0.2-35.7,15.8-35.7,35.5c0,19.6,15.8,35.3,35.3,35.4
	C119.2,201.9,135.1,186.1,135.2,166.6z"/>
</svg>
