<?xml version="1.0" encoding="utf-8"?>
<!-- Generator: Adobe Illustrator 26.3.1, SVG Export Plug-In . SVG Version: 6.00 Build 0)  -->
<svg version="1.1" id="Capa_1" xmlns="http://www.w3.org/2000/svg" xmlns:xlink="http://www.w3.org/1999/xlink" x="0px" y="0px"
	 viewBox="0 0 426 426.5" style="enable-background:new 0 0 426 426.5;" xml:space="preserve">
<style type="text/css">
	.st0{fill:#828282;}
	.st1{fill:#FFFFFF;}
	.st2{fill:#F4F4F4;}
	.st3{fill:#E8F7F3;}
	.st4{fill:#E2E2E2;}
	.st5{fill:#EDEDED;}
	.st6{fill:#1FC8A9;}
	.st7{fill:#C6E5DC;}
</style>
<g>
	<g>
		<path class="st6" fill='#1FC8A9' d="M376.31,408.62c-108.87,0-217.75,0-326.62,0c-7.09-2.3-9.45-5.51-9.61-13.08c-0.02-1.02-0.01-2.03-0.01-3.05
			c0-119.49,0-238.99,0-358.48c0-1.02-0.01-2.03,0.01-3.05c0.16-7.57,2.52-10.78,9.61-13.08c108.87,0,217.75,0,326.62,0
			c7.09,2.3,9.45,5.51,9.61,13.08c0.02,1.02,0.01,2.03,0.01,3.05c0,119.49,0,238.99,0,358.48c0,1.02,0.01,2.03-0.01,3.05
			C385.76,403.11,383.4,406.32,376.31,408.62z"/>
		<path class="st1" fill='#FFFFFF' d="M361.81,236.91c0,48.33-0.04,96.66,0.08,144.99c0.01,3.17-0.74,3.9-3.9,3.9c-96.66-0.1-193.32-0.1-289.98,0
			c-3.17,0-3.9-0.73-3.9-3.9c0.1-96.92,0.1-193.84,0-290.75c0-3.17,0.73-3.9,3.9-3.9c96.66,0.1,193.32,0.1,289.98,0
			c3.17,0,3.91,0.73,3.9,3.9C361.78,139.74,361.81,188.32,361.81,236.91z"/>
		<path class="st3" fill='#E8F7F3' d="M361.84,236.87c0,48.33-0.03,96.66,0.08,144.99c0.01,3.17-0.72,3.9-3.82,3.9c-94.69-0.1-189.38-0.1-284.07,0
			c-3.11,0-3.82-0.73-3.82-3.9c0.09-96.92,0.09-193.84,0-290.75c0-3.17,0.72-3.9,3.82-3.9c94.69,0.1,189.38,0.1,284.07,0
			c3.11,0,3.83,0.73,3.82,3.9C361.81,139.7,361.84,188.29,361.84,236.87z"/>
		<path class="st3" fill='#E8F7F3' d="M213.01,64.43c-48.33,0-96.66-0.03-144.99,0.08c-3.15,0.01-4.08-0.68-3.91-3.89
			c0.29-5.84,0.15-11.7,0.04-17.55c-0.03-1.83,0.5-2.57,2.34-2.31c0.62,0.09,1.27,0.01,1.91,0.01c96.4,0,192.81,0.02,289.21-0.08
			c3.43,0,4.51,0.78,4.3,4.28c-0.32,5.45-0.22,10.94-0.02,16.4c0.09,2.5-0.62,3.15-3.12,3.12c-13.61-0.13-27.22-0.06-40.82-0.06
			C282.96,64.43,247.98,64.43,213.01,64.43z"/>
		<path class="st6" fill='#1FC8A9' d="M212.96,110.22c37.38,0,74.76,0,112.14,0c9.64,0,13.81,4.22,13.82,13.99c0,14.24,0.02,28.48-0.01,42.72
			c-0.02,8.11-4.64,12.73-12.78,12.73c-75.4,0.01-150.8,0.01-226.19,0c-8.33,0-12.85-4.6-12.85-13.03c-0.02-14.5-0.02-28.99,0-43.49
			c0.01-8.38,4.56-12.91,12.97-12.92C137.69,110.22,175.32,110.22,212.96,110.22z"/>
		<path class="st6" fill='#1FC8A9' d="M87.08,282.6c0-22.25-0.01-44.5,0-66.75c0-8.89,4.43-13.28,13.37-13.28c36.87-0.01,73.74-0.01,110.61,0
			c8.94,0,13.37,4.4,13.37,13.28c0.01,44.63,0.01,89.26,0,133.88c0,8.61-4.52,13.09-13.18,13.09c-37,0.01-74,0.01-111,0
			c-8.67,0-13.1 fill='#1FC8A9'7-4.48-13.18-13.09C87.07,327.35,87.08,304.98,87.08,282.6z"/>
		<path class="st6" d="M293.52,202.57c10.93,0,21.86-0.02,32.79,0.01c7.9,0.02,12.58,4.65,12.6,12.51c0.03,14.62,0.04,29.23,0,43.85
			c-0.02,7.59-4.78,12.3-12.42,12.31c-22.24,0.03-44.48,0.03-66.73,0c-7.64-0.01-12.38-4.73-12.4-12.32
			c-0.04-14.74-0.05-29.49,0-44.23c0.03-7.35,4.82-12.08,12.22-12.11C270.89,202.53,282.2,202.57,293.52,202.57z"/>
		<path class="st6" fill='#1FC8A9' d="M293.52,294.14c10.93,0,21.86-0.02,32.79,0.01c7.9,0.02,12.57,4.66,12.59,12.52
			c0.03,14.62,0.04,29.23,0,43.85c-0.02,7.58-4.78,12.29-12.43,12.3c-22.24,0.03-44.48,0.03-66.73,0
			c-7.63-0.01-12.37-4.73-12.39-12.33c-0.04-14.74-0.05-29.49,0-44.23c0.03-7.35,4.82-12.07,12.23-12.1
			C270.9,294.11,282.21,294.15,293.52,294.14z"/>
		<path class="st3" fill='#E8F7F3' d="M212.61,156.78c-32.94,0-65.88-0.05-98.82,0.08c-3.18,0.01-4.06-0.72-3.9-3.91
			c0.29-5.84,0.15-11.7,0.04-17.55c-0.04-1.85,0.53-2.55,2.35-2.3c0.62,0.09,1.27,0.01,1.91,0.01c65.88,0,131.76,0.03,197.64-0.08
			c3.46-0.01,4.49,0.82,4.28,4.29c-0.32,5.32-0.27,10.69-0.01,16.02c0.14,2.89-0.7,3.51-3.53,3.5c-30.01-0.11-60.03-0.07-90.04-0.07
			C219.22,156.78,215.92,156.78,212.61,156.78z"/>
		<path class="st3" fill='#E8F7F3' d="M201.55,282.7c0,17.93-0.07,35.87,0.07,53.8c0.02,2.86-0.67,3.52-3.52,3.51c-28.23-0.12-56.47-0.12-84.7,0
			c-2.86,0.01-3.52-0.67-3.51-3.51c0.11-35.86,0.11-71.73,0-107.59c-0.01-2.85,0.67-3.52,3.51-3.51c28.23,0.12,56.47,0.12,84.7,0
			c2.86-0.01,3.53,0.67,3.51,3.52C201.48,246.83,201.55,264.77,201.55,282.7z"/>
		<path class="st3" fill='#E8F7F3' d="M293.51,225.46c6.61,0,13.23,0.09,19.83-0.05c2.16-0.05,2.78,0.57,2.73,2.73
			c-0.15,5.97-0.12,11.95-0.01,17.93c0.03,1.84-0.51,2.34-2.34,2.33c-13.73-0.07-27.46-0.07-41.2,0c-1.83,0.01-2.37-0.5-2.33-2.34
			c0.11-5.97,0.14-11.95-0.01-17.93c-0.05-2.17,0.58-2.77,2.73-2.72C279.78,225.55,286.65,225.46,293.51,225.46z"/>
		<path class="st3" fill='#E8F7F3' d="M293.13,339.93c-6.74,0-13.48-0.09-20.22,0.05c-2.15,0.04-2.78-0.56-2.73-2.72
			c0.15-5.97,0.12-11.95,0.01-17.93c-0.03-1.84,0.51-2.34,2.34-2.33c13.73,0.07,27.46,0.07,41.2,0c1.83-0.01,2.37,0.49,2.34,2.33
			c-0.11,5.97-0.14,11.95,0.01,17.93c0.05,2.16-0.57,2.77-2.73,2.73C306.61,339.85,299.87,339.93,293.13,339.93z"/>
	</g>
	<path class="st7" fill='#C6E5DC' d="M361.92,236.72c0,48.33,0,96.66,0,144.99c0,3.17-0.02,3.9-0.09,3.9c-2.22-0.1-4.44-0.1-6.65,0
		c-0.07,0-0.09-0.73-0.09-3.9c0-96.92,0-193.84,0-290.75c0-3.17,0.02-3.9,0.09-3.9c2.22,0.1,4.44,0.1,6.65,0
		c0.07,0,0.09,0.73,0.09,3.9C361.92,139.55,361.92,188.13,361.92,236.72z"/>
	<path class="st3" fill='#E8F7F3' d="M361.84,52.64c0,3.85-0.03,7.71,0.08,11.56c0.01,0.25-0.72,0.31-3.82,0.31c-94.69-0.01-189.38-0.01-284.07,0
		c-3.11,0-3.82-0.06-3.82-0.31c0.09-7.73,0.09-15.46,0-23.18c0-0.25,0.72-0.31,3.82-0.31c94.69,0.01,189.38,0.01,284.07,0
		c3.11,0,3.83,0.06,3.82,0.31C361.81,44.89,361.84,48.77,361.84,52.64z"/>
	<path class="st7" fill='#C6E5DC' d="M361.92,52.63c0,3.85,0,7.71,0,11.56c0,0.25-0.02,0.31-0.09,0.31c-2.22-0.01-4.44-0.01-6.65,0
		c-0.07,0-0.09-0.06-0.09-0.31c0-7.73,0-15.46,0-23.18c0-0.25,0.02-0.31,0.09-0.31c2.22,0.01,4.44,0.01,6.65,0
		c0.07,0,0.09,0.06,0.09,0.31C361.92,44.88,361.92,48.75,361.92,52.63z"/>
</g>
</svg>
