<?xml version="1.0" encoding="utf-8"?>
<!-- Generator: Adobe Illustrator 26.3.1, SVG Export Plug-In . SVG Version: 6.00 Build 0)  -->
<svg version="1.1" id="Capa_1" xmlns="http://www.w3.org/2000/svg" xmlns:xlink="http://www.w3.org/1999/xlink" x="0px" y="0px"
	 viewBox="0 0 426 426.5" style="enable-background:new 0 0 426 426.5;" xml:space="preserve">
<style type="text/css">
	.st0{fill:#1FC8A9;}
	.st1{fill:none;stroke:#1FC8A9;stroke-width:14;stroke-miterlimit:10;}
	.st2{fill:#606060;}
	.st3{fill:none;stroke:#606060;stroke-width:14;stroke-miterlimit:10;}
	.st4{fill:#FFFFFF;}
	.st5{fill:none;stroke:#FFFFFF;stroke-width:14;stroke-miterlimit:10;}
</style>
<path class="st0" fill='#1FC8A9' d="M111.9,1.1c68.1,0,136.3,0,204.4,0c19.3,1.8,26.9,18.3,27,34c0.1,15.1,0,30.2,0,45.2c0,32.5,0,65,0,97.5
	c0,6.4,0.1,6.5,6.4,6.5c17.8,0,35.7,0.1,53.5,0c7.7,0,13.8,3.1,19,8.7c2.9,3.1,3.7,7,4.6,10.9c0,34.9,0,69.8,0,104.7
	c-2.9,12.1-9.4,17.9-21.8,19.8c-5.4,0.8-10.8,0.5-16.2,0.6c-13.3,0.1-26.6,0-39.9,0c-5.2,0-5.6,0.4-5.6,5.7c0,19.1,0,38.2,0,57.3
	c0,7-1.1,13.8-4.7,20c-5.6,9.6-13.9,14.9-25.1,14.9c-66.3,0-132.7,0.1-199,0c-13.8,0-25.1-9.5-28.3-23.1c-1-4.3-1.4-8.7-1.4-13.2
	c0-46.5,0-93.1,0-139.6c0-7.7,0-7.7-7.8-7.7c-21.3,0-42.7,0-64,0c-1.9,0-3.9,0.1-5.8-0.2c-4.1-0.7-6.1-2.8-6.2-7
	c-0.1-3.9,0-7.8,0-11.6c0-38.4,0-76.7,0-115.1c0-8.1,2.5-10.7,11.1-10.8c21.7-0.1,43.5,0,65.2,0c7.5,0,7.5,0,7.5-7.5
	c0-18.6,0-37.1,0-55.7c0-6.7,1-13.2,4.3-19.3C94.1,7.2,101.6,2,111.9,1.1z M104.9,72.1c-3.5,0-4.4,1-4.3,4.4
	c0.3,6.6,0.2,13.3,0,19.9c-0.1,2.9,0.7,3.7,3.6,3.7c15.1-0.2,30.2-0.1,45.3-0.1c14,0,28,0,42,0c5.3,0,8.5,2.7,8.5,7.4
	c0,42.5,0,85,0,127.6c0,4.3-2.4,6.8-6.8,7.2c-1.4,0.1-2.8,0.1-4.1,0.1c-28,0-56,0-83.9-0.2c-3.7,0-4.6,0.9-4.6,4.5
	c0.2,34.8,0.2,69.5,0,104.3c0,3.6,0.8,4.6,4.5,4.6c35-0.2,70.1-0.1,105.1-0.1c37.5,0,75.1-0.1,112.6,0.1c4.2,0,5.1-1.2,4.9-5.1
	c-0.3-6.2-0.3-12.5,0-18.7c0.2-3.5-0.9-4.3-4.3-4.3c-23.4,0.2-46.8,0.1-70.2,0.1c-13.9,0-24.8-10.1-24.9-23
	c-0.1-32.4-0.1-64.8,0-97.2c0-10.8,10.2-21.6,21-21.7c24.6-0.3,49.3-0.3,74-0.2c3.8,0,4.5-1.1,4.5-4.6c-0.1-34.8-0.1-69.5,0-104.3
	c0-3.4-0.8-4.4-4.3-4.4c-36.4,0.1-72.9,0.1-109.3,0.1S141.3,72.3,104.9,72.1z M246.2,242.2c-1.8,0-3.8-0.6-3.8,2.7
	c0.1,19.4,0,38.8,0.1,58.1c0.1,6.5,3.8,9.9,10.2,9.9c49.6,0.1,99.1,0.2,148.7,0.2c8,0,11.3-3.4,11.3-11.5c0-18.5-0.1-37.1,0.1-55.6
	c0-3-0.6-3.9-3.8-3.9c-27,0.1-54,0.1-81,0.1C300.8,242.2,273.5,242.2,246.2,242.2z M100.7,228c13.3,0,26.6-0.1,39.9,0.1
	c2.4,0,3.2-0.6,3.8-3c4.9-20.5,17.7-33.2,38-38.3c2.8-0.7,3.5-1.7,3.4-4.3c-0.2-7.5-0.1-14.9,0-22.4c0-2.2-0.3-3.3-2.8-3.9
	c-20.7-5-33.7-17.9-38.7-38.7c-0.4-1.8-1-2.5-3-2.5c-27,0-54-0.1-81-0.2c-2,0-2.8,0.5-3.3,2.6C52.2,138,39.3,151,18.5,156
	c-2.3,0.5-3.1,1.2-3,3.7c0.2,7.5,0.2,14.9,0,22.4c-0.1,2.7,0.5,3.8,3.5,4.6c20.2,5,32.9,17.8,37.9,38c0.7,2.9,1.8,3.4,4.4,3.3
	C74.4,227.9,87.6,228,100.7,228C100.7,228,100.7,228,100.7,228z M323.8,57.7c3,0,4.1-0.6,3.9-3.8c-0.3-7.1,0-14.1-0.1-21.2
	c-0.1-11-6.7-17.4-17.7-17.5c-63.8,0-127.7,0-191.5,0c-11.1,0-17.6,6.4-17.7,17.4c-0.1,6.9,0.2,13.9-0.1,20.8
	c-0.2,3.5,0.9,4.3,4.3,4.3c36.3-0.1,72.6-0.1,108.8-0.1C250.4,57.6,287.1,57.6,323.8,57.7z M104.7,370c-3.3,0-4.2,0.8-4.1,4.1
	c0.3,7.1,0,14.1,0.1,21.2c0.2,10.7,6.8,17.2,17.5,17.2c64,0,127.9,0,191.9,0c10.8,0,17.3-6.5,17.5-17.3c0.1-7.1-0.2-14.1,0.1-21.2
	c0.1-3.4-1-4-4.2-4c-36.4,0.1-72.8,0.1-109.3,0.1C177.8,370.1,141.2,370.1,104.7,370z M408.9,228.1c3,0,4.1-0.6,3.9-3.8
	c-0.3-4.4,0-8.9-0.1-13.3c-0.1-7.5-3.8-11.3-11.2-11.3c-49.3,0-98.5,0-147.8,0c-7.2,0-10.9,3.7-11.1,10.9c-0.1,4.3,0.2,8.6-0.1,12.9
	c-0.3,3.5,0.6,4.6,4.4,4.6c26.8-0.2,53.7-0.1,80.6-0.1C354.7,228,381.8,227.9,408.9,228.1z M158.6,225.9c-0.3,1.8,0.3,2.1,1.9,2.1
	c7.6-0.1,15.2-0.1,22.8,0c1.7,0,2.5-0.4,2.5-2.3c-0.1-8.3,0-16.6,0-24.9C173.9,202,160.4,214.5,158.6,225.9z M17.7,200.8
	c-1.7-0.3-2.2,0-2.1,1.7c0.1,7.7,0.1,15.5,0,23.2c0,1.5,0.3,2.3,2,2.2c8.4-0.1,16.8,0,25.3,0C41.4,215.9,29.5,203.2,17.7,200.8z
	 M183.2,141.6c1.7,0.3,2.5,0.3,2.5-1.8c-0.1-7.6-0.1-15.2,0-22.8c0-1.7-0.8-2.1-2.3-2.1c-8.3,0-16.6,0-24.9,0
	C160,126.6,171.9,139.4,183.2,141.6z M42.7,117.1c0.5-2.1-0.3-2.3-2-2.3c-7.5,0.1-14.9,0.1-22.4,0c-2.1,0-2.8,0.5-2.8,2.8
	c0.1,8,0.1,16,0.1,24.3C27.9,140,40,128.8,42.7,117.1z M52,288.8c2.4,2.3,4.7,4.7,7.1,7c3.8,3.6,7.9,4,11,1.1c3.1-3,2.8-7.2-0.8-11
	c-6.6-6.7-13.2-13.4-19.8-20.1c-3.3-3.3-7.7-3.3-11,0c-6.6,6.7-13.3,13.4-19.9,20.1c-3.7,3.8-4.1,7.8-1,10.9c3,3,7.3,2.6,11-0.9
	c2.6-2.5,4.8-5.5,8.3-7.6c0,12,0,23.4,0,34.9c0,3.9-0.1,7.8,0.1,11.6c0.2,3.9,2.6,6,6.3,6.5c3.4,0.5,6.5-1.7,7.4-5.3
	c0.4-1.4,0.4-3,0.4-4.5c0-14.2,0-28.5,0-43.1C51.8,288.8,52,288.8,52,288.8z M391.4,139c0-1.3,0-2.7,0-4c0-13.6,0-27.1,0-40.7
	c0-5.3-3.3-8.6-7.8-8c-4,0.5-6.4,3.4-6.4,8.3c-0.1,13.7,0,27.4-0.1,41.1c0,1.1,0.7,2.5-0.9,3.5c-2.5-2.6-4.9-5.2-7.5-7.7
	c-3.5-3.4-7.7-3.5-10.7-0.5c-2.9,3-2.7,7.1,0.8,10.6c6.7,6.8,13.4,13.6,20.1,20.4c3.1,3.1,7.5,3.2,10.7,0.1
	c6.9-6.8,13.7-13.7,20.5-20.7c3.4-3.5,3.5-7.7,0.5-10.6c-3-2.9-7.2-2.6-10.6,0.9c-2.6,2.6-4.9,5.5-7.3,8.2
	C392.2,139.6,391.8,139.3,391.4,139z M390.7,291.9c4.7-0.1,7.9-3.2,7.8-7.3c-0.1-4-3.2-6.8-7.8-6.8c-9-0.1-18-0.1-26.9,0
	c-4.8,0-7.6,2.6-7.7,6.8c-0.1,4.3,2.8,7.2,7.7,7.3c4.4,0.1,8.8,0,13.3,0C381.6,291.9,386.2,292,390.7,291.9z M264.4,277.8
	c-4.6,0.1-7.7,2.9-7.7,6.9c-0.1,3.9,3.1,7.1,7.5,7.2c9.3,0.1,18.5,0.1,27.8,0c4.5-0.1,7.3-3.2,7.2-7.4c-0.1-4-2.9-6.6-7.4-6.7
	c-4.6-0.1-9.1,0-13.7,0C273.5,277.7,269,277.7,264.4,277.8z M335.1,291.8c4.1-0.4,7-3.6,6.7-7.5c-0.2-3.7-3.1-6.5-7.1-6.6
	c-4.7-0.1-9.4-0.1-14,0c-4.1,0.1-6.9,2.8-7.1,6.6c-0.2,3.9,2.5,7.1,6.7,7.5c2.5,0.2,5,0,7.4,0C330.1,291.9,332.6,292,335.1,291.8z
	 M248.5,43.6c5.1,0,8-2.6,8.1-6.9c0.1-4.4-3-7.3-8.2-7.3c-22.8,0-45.6,0-68.4,0c-5.2,0-8.3,2.8-8.3,7.2c0,4.5,3,7,8.4,7
	c11.3,0,22.7,0,34,0C225.6,43.6,237.1,43.6,248.5,43.6z M193.8,384.1c-5,0-8,2.7-8,7c0,4.2,3.1,7.1,8,7.1c13.6,0.1,27.1,0.1,40.7,0
	c4.9,0,8-2.9,8-7.1c0-4.3-3-7-8-7c-6.6-0.1-13.3,0-19.9,0C207.7,384.1,200.7,384.1,193.8,384.1z M129.4,384.1
	c-4.4,0.1-7.3,2.8-7.5,6.7c-0.2,4,2.9,7.3,7.3,7.4c9.4,0.1,18.8,0.2,28.2,0c4.2-0.1,7-3.2,7-7.2c-0.1-4-2.8-6.8-7.2-6.9
	c-4.7-0.1-9.4,0-14.1,0C138.5,384.1,134,384,129.4,384.1z M271.8,384.1c-5,0.1-7.9,2.7-7.9,7.1c0,4.1,2.9,7,7.5,7.1
	c9.1,0.1,18.2,0.1,27.4,0c4.5-0.1,7.6-3.2,7.5-7.1c0-4-3.1-6.9-7.6-7c-4.4-0.1-8.8,0-13.3,0C280.9,384.1,276.3,384.1,271.8,384.1z"
	/>
<path class="st1" fill="none" stroke="#1FC8A9" stroke-width="14" stroke-miterlimit="10" d="M136.1,166.6c0.1-19.5-15.7-35.5-35.1-35.7c-19.6-0.2-35.7,15.8-35.7,35.5c0,19.6,15.8,35.3,35.3,35.4
	C120.1,201.9,136,186.1,136.1,166.6z"/>
	
</svg>
