<?xml version="1.0" encoding="utf-8"?>
<!-- Generator: Adobe Illustrator 26.3.1, SVG Export Plug-In . SVG Version: 6.00 Build 0)  -->
<svg version="1.1" id="Capa_1" xmlns="http://www.w3.org/2000/svg" xmlns:xlink="http://www.w3.org/1999/xlink" x="0px" y="0px"
	 viewBox="0 0 426 426.5" style="enable-background:new 0 0 426 426.5;" xml:space="preserve">
<style type="text/css">
	.st0{fill:#1FC8A9;}
	.st1{fill:#F6F6F6;}
	.st2{fill:#E8F7F3;}
	.st3{fill:#DAEDE7;}
	.st4{fill:#A9EADD;}
	.st5{fill:#828282;}
	.st6{fill:#F4F4F4;}
	.st7{fill:#E2E2E2;}
	.st8{fill:#FFFFFF;}
	.st9{fill:#EDEDED;}
</style>
<g>
	<g>
		<g>
			<path class="st0" fill='#1FC8A9' d="M89.43,213.46c0-46.65,0-93.3,0-139.95c0-11.46,4.58-13.38,18.35-13.38c77.15,0,144.24-0.07,211.39-0.07
				c13.07,0,17.39,2.22,17.39,13.49c0.01,62.38,0.05,124.76-0.1,187.14l-0.88,100.85c-0.02,2.71-2.23,4.9-4.94,4.89l-73.41-0.07
				c-51.17,0.11-102.34,0.07-153.51,0.07c-10.93,0-14.28-3.32-14.28-14.1C89.43,306.04,89.43,259.75,89.43,213.46z"/>
			<path class="st1" fill='#F6F6F6' d="M213.12,80.49c32.72,0,65.43,0.08,98.15-0.1c4-0.02,5.04,0.86,5.03,4.97
				c-0.15,58.74-0.14,117.49-0.03,176.23c0.01,3.53-0.86,4.89-4.51,5.56c-28.13,5.18-51.74,30.52-55.24,58.8
				c-0.73,5.93-1.68,11.83-0.25,17.76c0.59,2.44-0.69,2.69-2.6,2.63c-2.71-0.09-5.42-0.02-8.13-0.02
				c-43.38,0-86.76-0.04-130.14,0.08c-3.9,0.01-5.48-0.52-5.47-5.09c0.16-85.31,0.15-170.63,0.02-255.94
				c-0.01-4.12,1.04-4.98,5.03-4.96C147.68,80.57,180.4,80.49,213.12,80.49z"/>
			<path class="st2" fill='#E8F7F3' d="M214.88,80.49c32.16,0,64.31,0.08,96.47-0.1c3.93-0.02,4.95,0.86,4.94,4.97
				c-0.15,57.24-0.13,195.01-0.03,256.37c0,2.57-2.12,4.66-4.74,4.66c-15.32-0.02-62.55-0.07-64.78-0.07
				c-42.64,0-85.28-0.04-127.91,0.08c-3.83,0.01-5.38-0.52-5.37-5.09c0.16-85.31,0.15-170.63,0.02-255.94
				c-0.01-4.12,1.03-4.98,4.95-4.96C150.57,80.57,182.73,80.49,214.88,80.49z"/>
			<path class="st3" fill='#DAEDE7' d="M313.72,80.49c0.82,0,1.63,0.08,2.45-0.1c0.1-0.02,0.13,0.86,0.13,4.97c0,57.24,0,195.01,0,256.37
				c0,2.57-0.05,4.66-0.12,4.66c-0.39-0.02-1.59-0.07-1.64-0.07c-1.08,0-2.16-0.04-3.25,0.08c-0.1,0.01-0.14-0.52-0.14-5.09
				c0-85.31,0-170.63,0-255.94c0-4.12,0.03-4.98,0.13-4.96C312.09,80.57,312.9,80.49,313.72,80.49z"/>
			<path class="st4" fill='#A9EADD' d="M249.46,131.54c-11.39,0-22.78,0.04-34.17-0.02c-6.78-0.04-10.88-3.88-10.9-10
				c-0.02-6.07,4.05-10.19,10.78-10.23c23.14-0.12,46.28-0.11,69.42-0.01c6.75,0.03,10.95,4.15,10.97,10.12
				c0.03,6.27-4.22,10.09-11.39,10.12C272.6,131.57,261.03,131.54,249.46,131.54z"/>
			<path class="st4" fill='#A9EADD' d="M249.88,233.41c11.39,0,22.78-0.05,34.16,0.02c7.17,0.04,11.48,3.89,11.51,10.05
				c0.03,6.12-4.31,10.31-11.4,10.35c-22.77,0.12-45.55,0.11-68.33,0c-7.39-0.04-11.64-4.27-11.44-10.77
				c0.2-6.12,4.43-9.61,11.87-9.64C227.47,233.37,238.67,233.41,249.88,233.41z"/>
			<path class="st4" fill='#A9EADD' d="M249.88,296.6c11.39,0,22.78-0.05,34.16,0.02c7.17,0.04,11.48,3.89,11.51,10.05
				c0.03,6.12-4.31,10.31-11.4,10.35c-22.77,0.12-45.55,0.11-68.33,0c-7.39-0.04-11.64-4.27-11.44-10.77
				c0.2-6.12,4.43-9.61,11.87-9.64C227.47,296.56,238.67,296.59,249.88,296.6z"/>
			<path class="st4" fill='#A9EADD' d="M250.01,192.61c-11.38,0-22.77,0.04-34.15-0.02c-7.3-0.04-11.44-3.73-11.46-10.01
				c-0.03-6.42,3.87-10.03,11.32-10.06c22.77-0.07,45.54-0.07,68.31,0c7.4,0.02,11.5,3.68,11.54,9.91
				c0.04,6.37-4.32,10.14-11.94,10.17C272.41,192.64,261.21,192.61,250.01,192.61z"/>
			<path class="st0" fill='#1FC8A9' d="M130.45,241.7c-0.12-4.85,2.08-7.86,6.06-9.64c4.08-1.82,7.68-0.8,10.96,2c6.25,5.33,6.26,5.31,12.28-0.7
				c2.68-2.67,5.23-5.48,8.08-7.96c4.37-3.81,10.35-3.54,14.14,0.38c3.67,3.79,4.12,9.66,0.28,13.71
				c-7.3,7.71-14.85,15.21-22.58,22.49c-3.52,3.32-9.33,3.18-12.89-0.09c-4.9-4.5-9.52-9.31-14.13-14.11
				C131.01,246.06,130.19,243.83,130.45,241.7z"/>
			<path class="st0" fill='#1FC8A9' d="M140.26,292.18c4.55-0.18,7.43,2.7,9.96,5.74c2.35,2.84,3.9,2.51,6.19-0.07c3.35-3.77,7.01-7.28,10.68-10.74
				c4.84-4.56,10.76-4.6,14.9-0.29c3.95,4.12,3.9,9.95-0.5,14.51c-6.75,7.01-13.62,13.92-20.59,20.71
				c-4.44,4.32-10.21,4.52-14.56,0.48c-4.62-4.29-9.04-8.81-13.39-13.38c-3.04-3.2-3.37-7.18-1.66-11.06
				C132.95,294.35,136.16,292.44,140.26,292.18z"/>
			<path class="st0" fill='#1FC8A9' d="M130.44,180.68c-0.01-4.75,1.91-7.89,5.74-9.5c4.15-1.74,8.1-1.1,11.57,1.99c5.95,5.28,5.97,5.26,11.52-0.3
				c2.8-2.81,5.49-5.76,8.44-8.41c4.07-3.66,10.01-3.59,13.79-0.09c4.16,3.86,4.75,9.76,0.71,14.05
				c-7.18,7.62-14.62,15.02-22.2,22.24c-3.93,3.74-9.24,3.76-13.25,0.14c-4.82-4.35-9.3-9.08-13.84-13.74
				C131.09,185.2,130.17,182.85,130.44,180.68z"/>
			<path class="st0" fill='#1FC8A9' d="M130.47,119.68c-0.24-4.47,1.7-7.63,5.4-9.41c4.09-1.97,8.05-1.36,11.58,1.66c6.3,5.38,6.31,5.36,12.28-0.57
				c2.69-2.68,5.27-5.48,8.11-7.98c4.17-3.68,9.93-3.55,13.75,0.07c4.1,3.89,4.59,9.77,0.51,14.08
				c-7.2,7.61-14.63,15.01-22.22,22.23c-3.81,3.63-8.97,3.72-12.83,0.24c-5.09-4.59-9.8-9.61-14.59-14.53
				C130.9,123.85,130.27,121.75,130.47,119.68z"/>
		</g>
	</g>
</g>
</svg>
