<?xml version="1.0" encoding="UTF-8"?><svg id="Capa_1" xmlns="http://www.w3.org/2000/svg" viewBox="0 0 211.58 268.8">
<path fill='#f9fefe' d="M.17,139.47C.17,107.87,.04,76.28,.27,44.69c.05-7.23,.84-14.56,2.27-21.65C5.37,9.08,15.02,.94,28.86,.77,62.07,.36,95.27,.3,128.48,0c5-.04,8.23,2.72,11.43,5.94,22.04,22.07,43.98,44.24,66.28,66.05,4.62,4.52,5.4,9.36,5.39,15.24-.1,49.41,.03,98.83-.03,148.24-.03,23.66-9.22,33.06-33.18,33.18-49.02,.23-98.03,.17-147.05,.05-21.73-.05-31.01-9.22-31.18-31.1-.25-32.71-.07-65.42-.07-98.13h.1Zm11.83,99.65c.03,13.91,3.94,19.27,17.56,19.19,51.03-.33,102.1,2.57,153.08-1.46,14.9-1.18,18.93-5.74,18.98-21.05,.14-45.8-.22-91.59-.04-137.39,.03-7.26-1.99-10.09-9.6-9.89-15.8,.41-31.62,.15-47.42-.12-14.47-.25-20.61-6.49-20.72-20.79-.11-15.4-.53-30.82,.16-46.2,.39-8.84-2.9-10.89-11.14-10.74-24.72,.47-49.45,.16-74.18,.18-21.24,.02-26.64,5.31-26.69,26.44-.07,33.23-.02,66.47-.02,99.7,0,34.04-.05,68.09,.03,102.13ZM134.14,67c.07,4.41,.92,9.49,6.97,9.56,17.08,.2,34.17,.07,49.97,.07-18.91-19.03-37.52-37.75-57.05-57.4,0,16.38-.16,32.08,.1,47.77Zm-5.05,70.39c14.05,9.83,20.27,27.41,15.58,43.96-4.37,15.4-19.76,27.95-35.4,28.86-21.61,1.26-36.85-11.78-43.39-37.41-.9-3.54-.66-8.16-5.75-7.42-4.6,.66-4.3,5.12-4.37,8.79-.15,7.62,3.19,14.1,6.65,20.53,11.43,21.23,36.13,30.93,59.13,23.27,25.21-8.4,38.04-30.48,33.91-58.34-3.22-21.73-24.06-38.49-47.33-39.68-15.24-.78-27,6.32-39,14.35-1.33-3.77-2.51-6.77-3.44-9.84-1.02-3.34-3.25-4.53-6.46-3.78-2.94,.69-3.24,3.14-3.4,5.69-1.26,20.5,7.72,28.78,27.51,25.32,.4-.07,.85-.04,1.19-.21,3.65-1.86,9.97-.52,10.02-6.79,.06-7.18-6.78-3.64-11.02-6.06,14.87-10.94,31.4-11.18,45.59-1.25Z"/>
</svg>