<?xml version="1.0" encoding="utf-8"?>
<!-- Generator: Adobe Illustrator 26.3.1, SVG Export Plug-In . SVG Version: 6.00 Build 0)  -->
<svg version="1.1" id="Capa_1" xmlns="http://www.w3.org/2000/svg" xmlns:xlink="http://www.w3.org/1999/xlink" x="0px" y="0px"
	 viewBox="0 0 426 426.5" style="enable-background:new 0 0 426 426.5;" xml:space="preserve">
<style type="text/css">
	.st0{fill:#1FC8A9;}
	.st1{fill:#F6F6F6;}
	.st2{fill:#E8F7F3;}
	.st3{fill:#A9EADD;}
	.st4{fill:#DAE5E2;}
	.st5{fill:#828282;}
	.st6{fill:#F4F4F4;}
	.st7{fill:#E2E2E2;}
	.st8{fill:#FFFFFF;}
	.st9{fill:#EDEDED;}
</style>
<g>
	<g>
		<g>
			<path class="st0" fill='#1FC8A9' d="M92.17,194.73c0-42.98,0-85.95,0-128.93c0-9.26,3.28-12.5,12.63-12.5c67.46,0,134.93,0,202.39,0
				c9.41,0,12.65,3.2,12.65,12.54c0.01,57.47,0.05,114.94-0.09,172.4c-0.01,3.92,0.99,5.29,4.95,6.01
				c25.42,4.59,46.86,28.62,50.53,54.05c5.04,34.93-19.17,66.16-50.26,73.37c-26.76,6.2-57.21-6.72-71.25-32.1
				c-1.73-3.14-3.61-3.98-6.96-3.98c-47.14,0.1-94.28,0.07-141.42,0.06c-10.07,0-13.16-3.06-13.16-12.99
				C92.16,280.02,92.17,237.37,92.17,194.73z"/>
			<path class="st1" fill='#F6F6F6' d="M206.11,72.23c30.14,0,60.28,0.07,90.42-0.09c3.68-0.02,4.64,0.79,4.63,4.58
				c-0.14,54.12-0.13,108.23-0.02,162.35c0.01,3.25-0.79,4.5-4.15,5.12c-25.91,4.77-47.67,28.12-50.89,54.17
				c-0.68,5.47-1.55,10.9-0.23,16.36c0.54,2.25-0.63,2.48-2.4,2.42c-2.5-0.08-4.99-0.02-7.49-0.02c-39.96,0-79.93-0.04-119.89,0.07
				c-3.59,0.01-5.04-0.48-5.04-4.69c0.15-78.59,0.14-157.19,0.02-235.78c-0.01-3.79,0.96-4.59,4.64-4.57
				C145.84,72.3,175.98,72.23,206.11,72.23z"/>
			<path class="st1" fill='#F6F6F6' d="M310.62,354.2c-25.89,0-46.58-20.68-46.53-46.5c0.05-25.59,21.21-46.63,46.77-46.5
				c25.4,0.12,46.14,21.01,46.18,46.51C357.08,333.71,336.61,354.21,310.62,354.2z"/>
			<path class="st2" fill='#E8F7F3' d="M209.56,72.23c29.05,0,58.09,0.07,87.14-0.09c3.55-0.02,4.48,0.79,4.47,4.58
				c-0.14,54.12-0.12,108.23-0.02,162.35c0.01,3.25-0.76,4.5-4,5.12c-24.97,4.77-45.94,28.12-49.05,54.17
				c-0.65,5.47-1.49,10.9-0.23,16.36c0.52,2.25-0.61,2.48-2.31,2.42c-2.4-0.08-4.81-0.02-7.22-0.02c-38.51,0-77.03-0.04-115.54,0.07
				c-3.46,0.01-4.86-0.48-4.85-4.69c0.15-78.59,0.14-157.19,0.01-235.78c-0.01-3.79,0.93-4.59,4.47-4.57
				C151.47,72.3,180.52,72.23,209.56,72.23z"/>
			<path class="st3" fill='#A9EADD' d="M239.59,119.26c-10.49,0-20.98,0.04-31.48-0.02c-6.24-0.03-10.02-3.58-10.05-9.21
				c-0.02-5.59,3.73-9.39,9.94-9.42c21.32-0.11,42.63-0.1,63.95,0c6.22,0.03,10.08,3.82,10.11,9.32c0.03,5.77-3.89,9.3-10.5,9.32
				C260.91,119.29,250.25,119.26,239.59,119.26z"/>
			<path class="st3" fill='#A9EADD' d="M239.98,213.11c10.49,0,20.98-0.04,31.47,0.02c6.61,0.04,10.58,3.58,10.61,9.26
				c0.03,5.64-3.98,9.5-10.5,9.53c-20.98,0.11-41.96,0.1-62.95,0c-6.81-0.03-10.73-3.94-10.54-9.92c0.18-5.64,4.08-8.85,10.93-8.88
				C219.33,213.07,229.66,213.1,239.98,213.11z"/>
			<path class="st3" fill='#A9EADD' d="M240.1,175.52c-10.49,0-20.98,0.04-31.46-0.01c-6.72-0.04-10.54-3.44-10.56-9.22
				c-0.02-5.92,3.56-9.24,10.42-9.27c20.98-0.07,41.95-0.06,62.93,0c6.82,0.02,10.6,3.39,10.63,9.13c0.04,5.87-3.98,9.34-11,9.37
				C260.74,175.55,250.42,175.52,240.1,175.52z"/>
			<path class="st0" fill='#1FC8A9' d="M129.96,220.74c-0.11-4.47,1.92-7.24,5.59-8.88c3.76-1.68,7.07-0.74,10.1,1.84
				c5.75,4.91,5.76,4.89,11.31-0.64c2.47-2.46,4.82-5.05,7.44-7.33c4.03-3.51,9.53-3.26,13.03,0.35c3.38,3.49,3.79,8.9,0.26,12.63
				c-6.73,7.1-13.68,14.01-20.8,20.72c-3.25,3.06-8.6,2.93-11.87-0.08c-4.51-4.15-8.77-8.57-13.02-13
				C130.47,224.77,129.72,222.71,129.96,220.74z"/>
			<path class="st0" fill='#1FC8A9' d="M139,267.25c4.19-0.17,6.85,2.49,9.17,5.29c2.17,2.62,3.59,2.31,5.7-0.06c3.09-3.47,6.46-6.7,9.84-9.89
				c4.46-4.2,9.91-4.24,13.73-0.26c3.64,3.79,3.59,9.16-0.46,13.37c-6.22,6.46-12.55,12.82-18.97,19.08
				c-4.09,3.98-9.41,4.16-13.42,0.44c-4.26-3.95-8.33-8.11-12.33-12.33c-2.8-2.95-3.11-6.62-1.53-10.19
				C132.26,269.25,135.22,267.49,139,267.25z"/>
			<path class="st0" fill='#1FC8A9' d="M129.95,164.53c-0.01-4.38,1.76-7.27,5.29-8.75c3.82-1.6,7.46-1.01,10.66,1.83
				c5.48,4.87,5.5,4.85,10.61-0.28c2.58-2.59,5.06-5.3,7.77-7.75c3.75-3.37,9.22-3.31,12.7-0.08c3.83,3.55,4.38,8.99,0.66,12.95
				c-6.62,7.02-13.47,13.83-20.45,20.49c-3.62,3.45-8.52,3.46-12.2,0.13c-4.44-4.01-8.57-8.37-12.75-12.66
				C130.55,168.69,129.7,166.53,129.95,164.53z"/>
			<path class="st0" fill='#1FC8A9' d="M129.98,108.33c-0.22-4.12,1.57-7.03,4.98-8.67c3.77-1.81,7.42-1.25,10.67,1.53
				c5.8,4.96,5.81,4.94,11.31-0.53c2.48-2.47,4.85-5.05,7.47-7.35c3.84-3.39,9.15-3.27,12.67,0.06c3.78,3.58,4.23,9,0.47,12.97
				c-6.64,7.01-13.48,13.83-20.47,20.48c-3.51,3.34-8.26,3.43-11.82,0.22c-4.69-4.23-9.03-8.85-13.44-13.38
				C130.37,112.17,129.8,110.24,129.98,108.33z"/>
			<path class="st4" fill='#DAE5E2' d="M312.74,354.2c-24.71,0-44.45-20.68-44.4-46.5c0.05-25.59,20.24-46.63,44.64-46.5
				c24.24,0.12,44.03,21.01,44.06,46.51C357.08,333.71,337.55,354.21,312.74,354.2z"/>
			<path class="st2" fill='#E8F7F3' d="M310.86,354.2c-24.42,0-43.93-20.68-43.88-46.5c0.05-25.59,20.01-46.63,44.11-46.5
				c23.95,0.12,43.51,21.01,43.55,46.51C354.67,333.71,335.37,354.21,310.86,354.2z"/>
		</g>
		<g>
			<path class="st0" fill='#1FC8A9' d="M292.05,287.75c11.25,0,21.47-0.14,31.68,0.04c12.44,0.21,22.45,9.7,23.43,21.93
				c0.99,12.27-7.3,23.62-19.37,25.67c-7.89,1.34-15.95,0.52-23.93,0.37c-2.88-0.06-4.56-2.3-4.45-5.14c0.12-3,1.88-4.94,5.09-4.97
				c6.03-0.07,12.06,0.08,18.08-0.09c6.64-0.19,11.58-3.83,13.43-9.53c1.76-5.41,0.1-11.05-4.32-14.77
				c-2.45-2.06-5.32-3.16-8.46-3.18c-10.08-0.08-20.16-0.03-30.57-0.03c0.55,1.89,2.2,2.62,3.09,3.91c1.73,2.5,1.93,5.03-0.31,7.22
				c-2.24,2.19-4.93,2.15-7.15,0.04c-4.37-4.14-8.63-8.4-12.78-12.77c-2.29-2.41-2.07-5.09,0.26-7.46
				c3.83-3.9,7.69-7.77,11.59-11.59c2.8-2.74,5.93-3.05,8.12-0.92c2.23,2.17,2.01,5.31-0.59,8.18
				C294.16,285.44,293.43,286.23,292.05,287.75z"/>
		</g>
	</g>
	<path class="st4" fill='#DAE5E2' d="M238.34,317.12c0,0-5.3-25.3,12.13-53.67c10.54-17.16,33.88-26.49,39.52-28.24c0.8-0.25,1.33-0.98,1.33-1.81
		V72.14h6.9c1.63,0,2.95,1.32,2.95,2.95v7.76c0,10.72,0,131.11,0,143.66v13.84c0,1.71-1.06,3.24-2.67,3.82
		c-7.84,2.84-21.35,5.04-38,24.66c-9.66,11.38-11.3,24-11.62,37.21c-0.09,3.61,0.57,11.14,0.57,11.14L238.34,317.12z"/>
</g>
</svg>
