<?xml version="1.0" encoding="utf-8"?>
<!-- Generator: Adobe Illustrator 26.3.1, SVG Export Plug-In . SVG Version: 6.00 Build 0)  -->
<svg version="1.1" id="Capa_1" xmlns="http://www.w3.org/2000/svg" xmlns:xlink="http://www.w3.org/1999/xlink" x="0px" y="0px"
	 viewBox="0 0 426 426.5" style="enable-background:new 0 0 426 426.5;" xml:space="preserve">
<style type="text/css">
	.st0{fill:#1FC8A9;}
	.st1{fill:#828282;}
	.st2{fill:#FFFFFF;}
</style>
<path class="st0" fill='#1FC8A9' d="M59.49,216.35c0-51.98,0-103.97,0-155.95c0-17.34,10.09-27.14,27.93-27.14c56.64,0,113.28,0,169.91,0
	c17.55,0,27.66,9.88,27.67,27.02c0.01,27.52,0.03,55.04-0.05,82.56c-0.01,2.49-0.01,145.28,0,147.77
	c0.08,27.65,0.06,55.3,0.05,82.95c-0.01,16.58-10.31,26.65-27.27,26.65c-57.03,0.01-114.06,0.01-171.09,0
	c-16.74,0-27.15-10.11-27.15-26.38C59.49,321.33,59.49,268.84,59.49,216.35z M268.55,140.63c-0.01-13.24-0.13-25.99,0.09-38.73
	c0.06-3.44-0.88-4.21-4.24-4.2c-61.21,0.11-122.42,0.11-183.64,0c-3.4-0.01-4.22,0.83-4.22,4.22c0.1,77.2,0.08,154.41,0.08,231.61
	c0,0.62,0.07,1.26-0.01,1.87c-0.24,1.77,0.41,2.41,2.26,2.33c3.12-0.14,6.24-0.04,9.37-0.04c58.96,0,117.93-0.02,176.89,0.06
	c2.72,0,3.6-0.52,3.51-3.42c-0.23-7.61-0.08-15.24-0.08-22.86c0-5.8,0-11.61,0-17.81 M196.77,293.8c-1.01,13.72-7.66,19.89-21,19.9
	c-3.25,0-6.5,0.08-9.74-0.03c-9.59-0.32-17.37-7.97-17.38-17.59c-0.08-52.22-0.08-104.44,0-156.65c0.01-9.63,7.79-17.33,17.36-17.61
	c4.37-0.13,8.75-0.12,13.12,0c8.09,0.21,14.73,5.66,16.87,13.49c0.55,2.02,0.4,4.11,0.79,6.4L196.77,293.8z M264.42,85.87
	c3.55,0.02,4.34-1.04,4.21-4.35c-0.25-6.36-0.03-12.74-0.09-19.11c-0.07-7.64-5.06-12.6-12.77-12.61
	c-55.47-0.02-110.94-0.02-166.4,0c-7.74,0-12.66,4.93-12.73,12.63c-0.06,6.5,0.16,13-0.09,19.49c-0.12,3.07,0.67,3.95,3.85,3.94
	c30.73-0.13,61.46-0.08,92.2-0.08C203.2,85.78,233.81,85.71,264.42,85.87z M80.4,349.6c-3.19-0.01-3.96,0.87-3.85,3.94
	c0.24,6.49,0.03,12.99,0.09,19.49c0.07,7.65,5.04,12.62,12.75,12.62c55.47,0.03,110.93,0.03,166.4,0c7.74,0,12.68-4.93,12.75-12.62
	c0.06-6.5-0.15-13,0.09-19.49c0.11-3.06-0.64-3.96-3.84-3.95c-30.73,0.13-61.46,0.08-92.19,0.08S111.13,349.73,80.4,349.6z
	 M184.13,73.76c3.84-0.09,6.35-2.46,6.42-5.85c0.07-3.41-2.41-6.03-6.17-6.08c-7.84-0.11-15.69-0.1-23.53,0
	c-3.79,0.05-6.27,2.6-6.23,6.02c0.04,3.41,2.52,5.81,6.36,5.91c3.86,0.1,7.72,0.02,11.58,0.02
	C176.41,73.78,180.27,73.85,184.13,73.76z M184.49,373.63c3.57-0.12,5.98-2.57,6.06-5.83c0.08-3.41-2.41-6.03-6.17-6.08
	c-7.84-0.11-15.69-0.1-23.53,0c-3.79,0.05-6.27,2.6-6.24,6.01c0.03,3.41,2.52,5.82,6.35,5.92c3.86,0.1,7.72,0.02,11.58,0.02
	C176.53,373.66,180.51,373.76,184.49,373.63z"/>
<path class="st0" fill='#1FC8A9' d="M278.81,292.82c-27.29,0-54.57,0.03-81.86-0.01c-12.35-0.02-21.53-6.64-25.26-18.02
	c-0.92-2.81-1.15-5.71-1.15-8.65c0.02-32.92,0-65.85,0.01-98.77c0.01-16.05,10.79-26.79,26.95-26.8
	c40.36-0.02,80.73-0.01,121.09-0.01c13.87,0,27.74-0.02,41.6,0.01c16.15,0.03,26.9,10.76,26.91,26.84
	c0.01,32.81-0.21,65.63,0.1,98.43c0.14,14.85-11.06,27.28-27.22,27.08C332.93,292.58,305.87,292.82,278.81,292.82z M190.74,191.25
	c-2.59-0.01-3.36,0.57-3.35,3.29c0.12,23.79,0.06,47.57,0.07,71.36c0,6.76,3.15,10,9.84,10.01c54.34,0.02,108.67,0.02,163.01,0
	c6.72,0,9.87-3.23,9.87-9.97c0.01-23.79-0.04-47.58,0.07-71.36c0.01-2.64-0.65-3.33-3.31-3.32c-29.31,0.1-58.62,0.06-87.93,0.06
	C249.59,191.3,220.16,191.34,190.74,191.25z M364.66,174.39c5.52,0,5.52,0,5.52-5.38c0-9.01-2.57-11.55-11.68-11.55
	c-52.53,0-105.05,0.12-157.58-0.1c-10.68-0.04-14.08,2.79-13.57,13.59c0.13,2.74,0.63,3.53,3.49,3.52
	c29.19-0.12,58.39-0.07,87.58-0.07C307.18,174.39,335.92,174.39,364.66,174.39z M211.43,242.52c-5.44,0.07-9.04,3.41-9.13,8.27
	c-0.09,5.02,3.55,8.56,9.13,8.6c10.8,0.07,21.61,0.07,32.41,0c5.56-0.04,9.23-3.6,9.13-8.6c-0.09-4.86-3.7-8.19-9.14-8.27
	c-5.29-0.07-10.58-0.02-15.87-0.02C222.46,242.5,216.95,242.44,211.43,242.52z M286.82,251.17c0.11-4.74-3.64-8.62-8.37-8.65
	c-4.61-0.03-8.37,3.61-8.47,8.2c-0.11,4.74,3.64,8.62,8.37,8.65C282.95,259.4,286.71,255.76,286.82,251.17z M321.09,250.8
	c0.11-3.59-4.7-8.66-8.32-8.7c-4.61-0.05-8.39,3.56-8.53,8.15c-0.14,4.75,3.59,8.65,8.31,8.7C317.16,259,320.95,255.38,321.09,250.8
	z M346.55,242.1c-4.74-0.03-8.53,3.8-8.47,8.54c0.06,4.6,3.77,8.28,8.37,8.31c4.74,0.02,8.53-3.8,8.47-8.54
	C354.86,245.81,351.15,242.12,346.55,242.1z"/>
</svg>
