<?xml version="1.0" encoding="utf-8"?>
<!-- Generator: Adobe Illustrator 26.3.1, SVG Export Plug-In . SVG Version: 6.00 Build 0)  -->
<svg version="1.1" id="Capa_1" xmlns="http://www.w3.org/2000/svg" xmlns:xlink="http://www.w3.org/1999/xlink" x="0px" y="0px"
	 viewBox="0 0 426 426.5" style="enable-background:new 0 0 426 426.5;" xml:space="preserve">
<style type="text/css">
	.st0{clip-path:url(#SVGID_00000100384338820220890150000012151397084642493355_);fill:#828282;}
	.st1{clip-path:url(#SVGID_00000100384338820220890150000012151397084642493355_);}
	.st2{fill:none;stroke:#828282;stroke-width:6;stroke-miterlimit:10;}
	.st3{fill:#828282;}
	.st4{fill:none;stroke:#828282;stroke-width:10;stroke-miterlimit:10;}
	.st5{clip-path:url(#SVGID_00000162336795355815010720000004058377538580708015_);fill:#FFFFFF;}
	.st6{clip-path:url(#SVGID_00000162336795355815010720000004058377538580708015_);}
	.st7{fill:none;stroke:#FFFFFF;stroke-width:6;stroke-miterlimit:10;}
	.st8{fill:#FFFFFF;}
	.st9{fill:none;stroke:#FFFFFF;stroke-width:10;stroke-miterlimit:10;}
	.st10{clip-path:url(#SVGID_00000163056996514298445260000004548924117229996173_);fill:#1FC8A9;}
	.st11{clip-path:url(#SVGID_00000163056996514298445260000004548924117229996173_);}
	.st12{fill:none;stroke:#00C2A4;stroke-width:6;stroke-miterlimit:10;}
	.st13{fill:#1FC8A9;}
	.st14{fill:none;stroke:#00C2A4;stroke-width:10;stroke-miterlimit:10;}
</style>
<g>
	<g>
		<defs>
			<ellipse id="SVGID_00000112612539684580894200000016661529065935283097_" cx="213" cy="213.25" rx="141.32" ry="203.47"/>
		</defs>
		<clipPath id="SVGID_00000117672435585301933620000001747999809386696857_">
			<use xlink:href="#SVGID_00000112612539684580894200000016661529065935283097_"  style="overflow:visible;"/>
		</clipPath>
		<path style="clip-path:url(#SVGID_00000117672435585301933620000001747999809386696857_);fill:#FFFFFF;" d="M272.02,103.01
			c10.98,2.47,20.04,7.68,26.98,16.27c7.03,8.7,10.32,18.72,10.3,29.88c-0.02,16.93,0.08,33.85-0.04,50.78
			c-0.09,12.49-6.05,20.92-17.74,25.64c-2.53,1.17-6.07,17.28-7.97,23.6c-7.64,17.25-20.1,29.77-37.35,37.4
			c-2.19,0.97-2.77,2.16-2.63,4.32c0.17,2.55-0.79,5.64,0.34,7.55c1.28,2.15,4.67,0.81,7.12,1.08
			c37.33,4.14,65.66,31.34,70.72,68.53c1.52,11.18,1.35,22.56,0.25,33.79c-1.21,12.25-12.43,21.94-25.13,22.16
			c-10,0.18-20,0.05-30.01,0.05c-41.93,0-83.87,0-125.8,0c-17.94,0-28.81-10.74-28.76-28.63c0.04-12.41-0.74-24.85,2.51-37.08
			c9.02-33.95,38.35-57.63,73.42-58.93c2.37-0.09,2.78-0.73,3.03-3.02c0.65-5.95-1.1-9.24-7.03-12.07
			c-15.18-7.25-25.98-19.3-32.83-34.7c-1.02-2.29-5.28-14.86-5.47-17.22c-0.19-2.29,1.23-5.69-2.58-6.82
			c-3.24-0.96-6.11-2.64-8.64-4.85c-5.45-4.76-8.96-10.72-9.06-18c-0.28-20.77-1.12-41.58,0.31-62.3
			c2.15-31.25,29.09-59.17,60.15-63.56c5.11-0.72,10.21-0.85,15.34-0.85c19.11,0,38.22,0.09,57.32-0.05
			c7.04-0.05,12.6,2.29,15.87,8.67C277.92,91.06,276.72,97.07,272.02,103.01z M295.18,410.95c8.58-0.01,13.99-5.24,14.08-13.81
			c0.09-8.2,0.17-16.43-0.28-24.61c-1.76-32.19-30.61-59.58-62.94-60.1c-2.39-0.04-3.45,0.52-4.36,2.93
			c-3.83,10.26-13.6,16.79-24.39,16.74c-10.7-0.05-20.39-6.45-24.11-16.54c-1.06-2.87-2.51-3.17-5.02-3.11
			c-28.33,0.75-54.22,22.06-60.88,50.02c-2.6,10.89-1.68,21.93-1.8,32.93c-0.11,10.65,4.87,15.56,15.42,15.57
			c25.52,0,51.04,0,76.56,0C243.37,410.96,269.27,410.98,295.18,410.95z M295.54,142.03c-3.05-15.66-16.2-26.43-32.19-26.59
			c-8.59-0.09-17.18,0.04-25.77-0.05c-4.17-0.04-7.06-2.85-7.07-6.54c-0.02-3.72,2.84-6.41,7.03-6.53c2.18-0.06,4.4-0.29,6.53,0.03
			c7.24,1.11,12.92-1.15,17.13-7.18c0.92-1.31,2.68-2.18,1.89-4.22c-0.79-2.03-2.57-1.77-4.23-1.77
			c-20.77,0.01-41.55-0.44-62.3,0.14c-24.85,0.7-42.44,13.09-53.11,35.43c-5.44,11.41-4.95,23.64-4.86,35.81
			c0.01,1.7,0.59,1.76,2.09,1.42c4.77-1.08,9.47-0.76,13.74,1.82c1.8,1.09,2.68,0.83,4.01-0.78c4.78-5.8,11.1-9.03,18.54-9.73
			c11.89-1.12,22.58-5.23,32.29-12.09c5.62-3.97,10.6-3.94,16.29,0.07c9.05,6.39,19.02,10.62,30.03,11.75
			c8.44,0.87,15.61,3.74,21.04,10.38c0.92,1.12,1.58,1.69,3.12,0.72c4.96-3.13,10.37-3.24,16.37-1.69
			C296.01,155.29,296.82,148.59,295.54,142.03z M164.99,246.9c8.5,20.76,34.19,34.81,58.56,32.37
			c12.33-1.24,31.86-11.86,42.81-25.06c6.54-7.88,9.17-22.66,9.27-23.75c0.28-3.06,0.68-6.12,0.87-9.18
			c0.31-4.87,2.17-6.88,7.01-7.36c7.65-0.76,12.42-5.72,12.59-13.36c0.14-6.15,0.09-12.31,0.02-18.47
			c-0.05-4.62-2.22-7.22-6.01-7.47c-3.87-0.25-6.32,1.98-7.12,6.46c-0.76,4.24-3.2,6.67-6.64,6.58c-3.62-0.09-6.08-2.8-6.52-7.22
			c-0.83-8.16-6.02-13.41-14.05-14.17c-13.01-1.24-24.94-5.49-35.67-12.95c-1.92-1.34-3.21-1.62-5.3-0.15
			c-10.79,7.62-22.86,11.86-36,13.11c-7.83,0.74-13.12,6.1-13.88,13.93c-0.44,4.57-2.67,7.19-6.31,7.43
			c-3.55,0.23-6.06-2.21-6.89-6.72c-0.81-4.4-3.38-6.63-7.26-6.3c-3.62,0.31-5.78,2.87-5.84,7.23c-0.08,5.9-0.06,11.8-0.01,17.7
			c0.07,8.68,4.46,13.45,13.15,14.38c4.07,0.44,6.12,2.61,6.44,6.72c0.25,3.19,0.6,6.38,0.84,9.57
			C159.1,230.68,164.99,246.9,164.99,246.9z M204.29,299.94c0,2.18-0.08,4.36,0.02,6.53c0.32,7.05,6.01,12.44,13.06,12.45
			c7.05,0.01,12.8-5.36,13.08-12.41c0.17-4.22-0.06-8.46,0.1-12.68c0.08-2.04-0.66-2.38-2.43-2.02c-5.32,1.08-10.7,0.76-16.08,0.72
			c-2.53-0.02-5.95-1.98-7.22-0.38c-1.35,1.69-0.52,5.12-0.65,7.79C204.2,299.94,204.24,299.94,204.29,299.94z"/>
		<g style="clip-path:url(#SVGID_00000117672435585301933620000001747999809386696857_);">
			<circle class="st7" cx="217.83" cy="216.74" r="7.92"/>
			<g>
				<circle class="st7" cx="217.83" cy="172.75" r="7.92"/>
				<circle class="st7" cx="259.45" cy="199.08" r="7.92"/>
				<circle class="st7" cx="175.24" cy="199.08" r="7.92"/>
				<circle class="st7" cx="175.24" cy="234.62" r="7.92"/>
				<circle class="st7" cx="217.83" cy="260.73" r="7.92"/>
				<circle class="st7" cx="259.45" cy="234.62" r="7.92"/>
				<rect x="215.55" y="180.67" class="st8" width="4.55" height="30.49"/>
				<rect x="256.82" y="205.29" class="st8" width="4.55" height="22.9"/>
				<rect x="172.96" y="205.29" class="st8" width="4.55" height="22.9"/>
				<rect x="215.55" y="223.72" class="st8" width="4.55" height="30.49"/>
				
					<rect x="192.39" y="167.68" transform="matrix(0.6073 0.7945 -0.7945 0.6073 223.5846 -81.93)" class="st8" width="4.55" height="35.04"/>
				
					<rect x="237.89" y="167.06" transform="matrix(-0.6073 0.7945 -0.7945 -0.6073 532.6621 105.856)" class="st8" width="4.55" height="35.04"/>
				
					<rect x="192.3" y="230.77" transform="matrix(0.6073 -0.7945 0.7945 0.6073 -120.8459 252.0977)" class="st8" width="4.55" height="35.04"/>
				
					<rect x="237.8" y="230.77" transform="matrix(-0.6073 -0.7945 0.7945 -0.6073 188.6146 589.8064)" class="st8" width="4.55" height="35.04"/>
				
					<rect x="236.18" y="193.09" transform="matrix(-0.4176 -0.9086 0.9086 -0.4176 147.8481 513.3962)" class="st8" width="4.55" height="32.46"/>
				
					<rect x="194.26" y="193.09" transform="matrix(-0.4176 0.9086 -0.9086 -0.4176 468.792 118.1481)" class="st8" width="4.55" height="32.46"/>
				
					<rect x="235.85" y="209.04" transform="matrix(-0.4176 0.9086 -0.9086 -0.4176 542.2567 102.9629)" class="st8" width="4.55" height="32.46"/>
				
					<rect x="193.93" y="209.04" transform="matrix(-0.4176 -0.9086 0.9086 -0.4176 73.4486 497.6118)" class="st8" width="4.55" height="32.46"/>
			</g>
		</g>
	</g>
	<ellipse class="st9" cx="213" cy="213.25" rx="141.32" ry="203.47"/>
</g>
</svg>
