<?xml version="1.0"?>
<svg width="426" height="426.5" xmlns="http://www.w3.org/2000/svg" xmlns:svg="http://www.w3.org/2000/svg" xmlns:xlink="http://www.w3.org/1999/xlink" enable-background="new 0 0 426 426.5" version="1.1" xml:space="preserve">
 <style type="text/css">.st0{clip-path:url(#SVGID_00000165945749935955426100000007213994210850604208_);fill:#828282;}
	.st1{clip-path:url(#SVGID_00000165945749935955426100000007213994210850604208_);}
	.st2{fill:none;stroke:#828282;stroke-width:6;stroke-miterlimit:10;}
	.st3{fill:#828282;}
	.st4{fill:none;stroke:#828282;stroke-width:10;stroke-miterlimit:10;}
	.st5{clip-path:url(#SVGID_00000014597063283162005410000001936064868061194904_);fill:#FFFFFF;}
	.st6{clip-path:url(#SVGID_00000014597063283162005410000001936064868061194904_);}
	.st7{fill:none;stroke:#FFFFFF;stroke-width:6;stroke-miterlimit:10;}
	.st8{fill:#FFFFFF;}
	.st9{fill:none;stroke:#FFFFFF;stroke-width:10;stroke-miterlimit:10;}
	.st10{clip-path:url(#SVGID_00000070815603745700911500000014300932436830916508_);fill:#1FC8A9; }
	.st11{clip-path:url(#SVGID_00000070815603745700911500000014300932436830916508_);}
	.st12{fill:none;stroke:#00C2A4;stroke-width:6;stroke-miterlimit:10;}
	.st13{fill:#1FC8A9;}
	.st14{fill:none;stroke:#00C2A4;stroke-width:10;stroke-miterlimit:10;}</style>
 <g class="layer">
  <title>Layer 1</title>
  <g id="svg_1" transform="translate(-11 0) translate(-7 0)">
   <g id="svg_2">
    <defs>
     <ellipse cx="224.94" cy="213.25" id="SVGID_00000170258793470271648520000000870382522163114124_" rx="141.32" ry="203.47"/>
    </defs>
    <clipPath id="SVGID_00000155136881169611958310000013171052705518271105_">
     <use id="svg_3" overflow="visible" xlink:href="#SVGID_00000170258793470271648520000000870382522163114124_"/>
    </clipPath>
    <path clip-path="url(#SVGID_00000155136881169611958310000013171052705518271105_)" d="m283.96,103.01c10.98,2.47 20.04,7.68 26.98,16.27c7.03,8.7 10.32,18.72 10.3,29.88c-0.02,16.93 0.08,33.85 -0.04,50.78c-0.09,12.49 -6.05,20.92 -17.74,25.64c-2.53,1.17 -6.07,17.28 -7.97,23.6c-7.64,17.25 -20.1,29.77 -37.35,37.4c-2.19,0.97 -2.77,2.16 -2.63,4.32c0.17,2.55 -0.79,5.64 0.34,7.55c1.28,2.15 4.67,0.81 7.12,1.08c37.33,4.14 65.66,31.34 70.72,68.53c1.52,11.18 1.35,22.56 0.25,33.79c-1.21,12.25 -12.43,21.94 -25.13,22.16c-10,0.18 -20,0.05 -30.01,0.05c-41.93,0 -83.87,0 -125.8,0c-17.94,0 -28.81,-10.74 -28.76,-28.63c0.04,-12.41 -0.74,-24.85 2.51,-37.08c9.02,-33.95 38.35,-57.63 73.42,-58.93c2.37,-0.09 2.78,-0.73 3.03,-3.02c0.65,-5.95 -1.1,-9.24 -7.03,-12.07c-15.18,-7.25 -25.98,-19.3 -32.83,-34.7c-1.02,-2.29 -5.28,-14.86 -5.47,-17.22c-0.19,-2.29 1.23,-5.69 -2.58,-6.82c-3.24,-0.96 -6.11,-2.64 -8.64,-4.85c-5.45,-4.76 -8.96,-10.72 -9.06,-18c-0.28,-20.77 -1.12,-41.58 0.31,-62.3c2.15,-31.25 29.09,-59.17 60.15,-63.56c5.11,-0.72 10.21,-0.85 15.34,-0.85c19.11,0 38.21,0.09 57.32,-0.05c7.04,-0.05 12.6,2.29 15.87,8.67c3.28,6.41 2.07,12.42 -2.62,18.36zm23.15,307.94c8.58,-0.01 13.99,-5.24 14.08,-13.81c0.09,-8.2 0.17,-16.43 -0.28,-24.61c-1.76,-32.19 -30.61,-59.58 -62.94,-60.1c-2.39,-0.04 -3.45,0.52 -4.36,2.93c-3.83,10.26 -13.6,16.79 -24.39,16.74c-10.7,-0.05 -20.39,-6.45 -24.11,-16.54c-1.06,-2.87 -2.51,-3.17 -5.02,-3.11c-28.33,0.75 -54.22,22.06 -60.88,50.02c-2.6,10.89 -1.68,21.93 -1.8,32.93c-0.11,10.65 4.87,15.56 15.42,15.57c25.52,0 51.04,0 76.56,0c25.92,-0.01 51.82,0.01 77.72,-0.02zm0.37,-268.92c-3.05,-15.66 -16.2,-26.43 -32.19,-26.59c-8.59,-0.09 -17.18,0.04 -25.77,-0.05c-4.17,-0.04 -7.06,-2.85 -7.07,-6.54c-0.02,-3.72 2.84,-6.41 7.03,-6.53c2.18,-0.06 4.4,-0.29 6.53,0.03c7.24,1.11 12.92,-1.15 17.13,-7.18c0.92,-1.31 2.68,-2.18 1.89,-4.22c-0.79,-2.03 -2.57,-1.77 -4.23,-1.77c-20.77,0.01 -41.55,-0.44 -62.3,0.14c-24.85,0.7 -42.44,13.09 -53.11,35.43c-5.44,11.41 -4.95,23.64 -4.86,35.81c0.01,1.7 0.59,1.76 2.09,1.42c4.77,-1.08 9.47,-0.76 13.74,1.82c1.8,1.09 2.68,0.83 4.01,-0.78c4.78,-5.8 11.1,-9.03 18.54,-9.73c11.89,-1.12 22.58,-5.23 32.29,-12.09c5.62,-3.97 10.6,-3.94 16.29,0.07c9.05,6.39 19.02,10.62 30.03,11.75c8.44,0.87 15.61,3.74 21.04,10.38c0.92,1.12 1.58,1.69 3.12,0.72c4.96,-3.13 10.37,-3.24 16.37,-1.69c-0.1,-7.14 0.71,-13.84 -0.57,-20.4zm-130.55,104.87c8.5,20.76 34.19,34.81 58.56,32.37c12.33,-1.24 31.86,-11.86 42.81,-25.06c6.54,-7.88 9.17,-22.66 9.27,-23.75c0.28,-3.06 0.68,-6.12 0.87,-9.18c0.31,-4.87 2.17,-6.88 7.01,-7.36c7.65,-0.76 12.42,-5.72 12.59,-13.36c0.14,-6.15 0.09,-12.31 0.02,-18.47c-0.05,-4.62 -2.22,-7.22 -6.01,-7.47c-3.87,-0.25 -6.32,1.98 -7.12,6.46c-0.76,4.24 -3.2,6.67 -6.64,6.58c-3.62,-0.09 -6.08,-2.8 -6.52,-7.22c-0.83,-8.16 -6.02,-13.41 -14.05,-14.17c-13.01,-1.24 -24.94,-5.49 -35.67,-12.95c-1.92,-1.34 -3.21,-1.62 -5.3,-0.15c-10.79,7.62 -22.86,11.86 -36,13.11c-7.83,0.74 -13.12,6.1 -13.88,13.93c-0.44,4.57 -2.67,7.19 -6.31,7.43c-3.55,0.23 -6.06,-2.21 -6.89,-6.72c-0.81,-4.4 -3.38,-6.63 -7.26,-6.3c-3.62,0.31 -5.78,2.87 -5.84,7.23c-0.08,5.9 -0.06,11.8 -0.01,17.7c0.07,8.68 4.46,13.45 13.15,14.38c4.07,0.44 6.12,2.61 6.44,6.72c0.25,3.19 0.6,6.38 0.84,9.57c0.04,0.46 5.94,16.68 5.94,16.68zm39.29,53.04c0,2.18 -0.08,4.36 0.02,6.53c0.32,7.05 6.01,12.44 13.06,12.45c7.05,0.01 12.8,-5.36 13.08,-12.41c0.17,-4.22 -0.06,-8.46 0.1,-12.68c0.08,-2.04 -0.66,-2.38 -2.43,-2.02c-5.32,1.08 -10.7,0.76 -16.08,0.72c-2.53,-0.02 -5.95,-1.98 -7.22,-0.38c-1.35,1.69 -0.52,5.12 -0.65,7.79c0.03,0 0.08,0 0.12,0z" fill="#1FC8A9" id="svg_4"/>
    <g clip-path="url(#SVGID_00000155136881169611958310000013171052705518271105_)" id="svg_5">
     <circle class="st12" cx="229.76" cy="216.74" fill="none" id="svg_6" r="7.92" stroke="#00C2A4" stroke-miterlimit="10" stroke-width="6"/>
     <g id="svg_7">
      <circle class="st12" cx="229.76" cy="172.75" fill="none" id="svg_8" r="7.92" stroke="#00C2A4" stroke-miterlimit="10" stroke-width="6"/>
      <circle class="st12" cx="271.38" cy="199.08" fill="none" id="svg_9" r="7.92" stroke="#00C2A4" stroke-miterlimit="10" stroke-width="6"/>
      <circle class="st12" cx="187.17" cy="199.08" fill="none" id="svg_10" r="7.92" stroke="#00C2A4" stroke-miterlimit="10" stroke-width="6"/>
      <circle class="st12" cx="187.17" cy="234.62" fill="none" id="svg_11" r="7.92" stroke="#00C2A4" stroke-miterlimit="10" stroke-width="6"/>
      <circle class="st12" cx="229.76" cy="260.73" fill="none" id="svg_12" r="7.92" stroke="#00C2A4" stroke-miterlimit="10" stroke-width="6"/>
      <circle class="st12" cx="271.38" cy="234.62" fill="none" id="svg_13" r="7.92" stroke="#00C2A4" stroke-miterlimit="10" stroke-width="6"/>
      <rect class="st13" fill="#1FC8A9" height="30.49" id="svg_14" width="4.55" x="227.49" y="180.67"/>
      <rect class="st13" fill="#1FC8A9" height="22.9" id="svg_15" width="4.55" x="268.76" y="205.29"/>
      <rect class="st13" fill="#1FC8A9" height="22.9" id="svg_16" width="4.55" x="184.9" y="205.29"/>
      <rect class="st13" fill="#1FC8A9" height="30.49" id="svg_17" width="4.55" x="227.49" y="223.72"/>
      <rect class="st13" fill="#1FC8A9" height="35.04" id="svg_18" transform="matrix(0.6073 0.7945 -0.7945 0.6073 228.2722 -91.4132)" width="4.55" x="204.33" y="167.68"/>
      <rect class="st13" fill="#1FC8A9" height="35.04" id="svg_19" transform="matrix(-0.6073 0.7945 -0.7945 -0.6073 551.8469 96.3728)" width="4.55" x="249.83" y="167.06"/>
      <rect class="st13" fill="#1FC8A9" height="35.04" id="svg_20" transform="matrix(0.6073 -0.7945 0.7945 0.6073 -116.1583 261.5809)" width="4.55" x="204.24" y="230.77"/>
      <rect class="st13" fill="#1FC8A9" height="35.04" id="svg_21" transform="matrix(-0.6073 -0.7945 0.7945 -0.6073 207.7994 599.2896)" width="4.55" x="249.74" y="230.77"/>
      <rect class="st13" fill="#1FC8A9" height="32.46" id="svg_22" transform="matrix(-0.4176 -0.9086 0.9086 -0.4176 164.7687 524.2418)" width="4.55" x="248.12" y="193.09"/>
      <rect class="st13" fill="#1FC8A9" height="32.46" id="svg_23" transform="matrix(-0.4176 0.9086 -0.9086 -0.4176 485.7126 107.3025)" width="4.55" x="206.19" y="193.09"/>
      <rect class="st13" fill="#1FC8A9" height="32.46" id="svg_24" transform="matrix(-0.4176 0.9086 -0.9086 -0.4176 559.1773 92.1173)" width="4.55" x="247.79" y="209.04"/>
      <rect class="st13" fill="#1FC8A9" height="32.46" id="svg_25" transform="matrix(-0.4176 -0.9086 0.9086 -0.4176 90.3692 508.4575)" width="4.55" x="205.86" y="209.04"/>
     </g>
    </g>
   </g>
   <ellipse class="st14" cx="224.94" cy="213.25" fill="none" id="svg_26" rx="141.32" ry="203.47" stroke="#00C2A4" stroke-miterlimit="10" stroke-width="10"/>
  </g>
 </g>
</svg>