<?xml version="1.0" encoding="UTF-8"?>
<svg version="1.1" id="Capa_1" xmlns="http://www.w3.org/2000/svg" xmlns:xlink="http://www.w3.org/1999/xlink" x="0px" y="0px"
	 viewBox="0 0 426 426.5" style="enable-background:new 0 0 426 426.5;" xml:space="preserve"><defs>
<style>
.cls-1{fill:#f6f6f6;}
.cls-2{fill:#606060;}
.cls-3{fill:#fefefe;}
</style></defs><g><path class="cls-2" d="M258.77,330.48c-9.89,3.61-19.56,6.31-29.58,7.56-.68,.09-1.36,.24-2.05,.32q-8.18,.95-8.19,9.06c0,18.93-.02,37.86,.02,56.79,0,3.12-.69,5.75-3.66,7.29-4.74,2.47-9.57-.89-9.61-6.82-.07-12.3-.02-24.59-.02-36.89,0-8.57-.02-17.13,.02-25.7,0-1.74,.15-3.21-2.35-3.34-12.77-.65-25.05-3.66-37.46-8.34,0,9.2,.01,17.98,0,26.76-.02,13.77-8.12,21.93-21.82,21.96-.55,0-1.11,.04-1.66,0-6.31-.53-10.85-.01-14.3,7.41-5.1,10.97-18.83,14.95-30.38,11.08-11.9-3.98-19.21-15.33-18.02-28,1.1-11.82,10.52-21.51,22.79-23.44,11.53-1.81,23.53,4.91,27.92,16.14,1.21,3.09,2.74,3.86,5.72,3.6,2.88-.25,5.8-.02,8.7-.06,5.2-.08,7.72-2.46,7.76-7.54,.07-10.5-.03-21,.07-31.5,.02-1.92-.64-2.95-2.28-3.89-24.78-14.21-42.76-34.51-54.04-60.73-.88-2.05-1.96-2.51-3.98-2.5-12.71,.08-25.43,0-38.14,.06-5.35,.02-7.68,2.48-7.72,7.97-.04,5.39,.12,10.78-.07,16.16-.09,2.46,.7,3.46,3.07,4.37,11.06,4.25,17.72,15.1,16.82,26.8-.88,11.42-9.15,20.92-20.56,23.62-13.34,3.15-26.82-4.49-31.11-17.63-4.27-13.09,2.1-27.25,14.9-32.44,2.89-1.17,3.94-2.48,3.77-5.62-.31-5.51-.15-11.05-.07-16.58,.18-11.29,8.72-19.81,20.06-19.92,11.05-.1,22.11-.13,33.16,.04,3.31,.05,4.65-.17,3.48-4.14-1.75-5.94-2.83-12.12-2.87-18.35-.03-3.5-1.36-4.21-4.66-4.18-20.17,.16-40.35,.06-60.52,.1-2.72,0-5.29-.22-7.08-2.56-1.53-2-1.99-4.21-.93-6.6,1.26-2.86,3.52-4.12,6.57-4.12,10.36,0,20.73,0,31.09,0,10.64,0,21.28,.01,31.92-.02,1.38,0,3.23,.64,3.33-1.83,.36-8.27,2.05-16.34,3.94-24.68-12.11,0-23.85,.01-35.58,0-13.78-.02-21.9-8.11-21.93-21.83-.01-4.97-.16-9.96,.06-14.92,.13-2.88-.73-4.2-3.57-5.32-11.22-4.41-17.97-16.38-16.18-27.91,1.92-12.4,11.88-21.96,23.82-22.85,12.75-.95,23.95,6.47,27.76,18.4,4.22,13.21-2.41,27.45-15.45,32.56-2.51,.98-3.34,2.05-3.24,4.68,.22,5.38,.02,10.78,.08,16.16,.05,5.19,2.46,7.72,7.54,7.74,12.85,.06,25.7-.04,38.55,.08,2.22,.02,3-.88,3.81-2.74,11.3-26.03,29.18-46.25,53.82-60.41,1.78-1.03,2.46-2.14,2.44-4.21-.11-10.36-.01-20.73-.06-31.09-.03-5.18-2.47-7.59-7.57-7.73-.41-.01-.83,.04-1.24,0-7.04-.77-12.16-.07-16.08,7.96-5.31,10.89-19.11,14.47-30.64,10.32-11.42-4.11-18.44-15.28-17.38-27.65,1.02-11.81,10.37-21.53,22.66-23.55,11.48-1.89,23.53,4.82,28.01,15.99,1.17,2.91,2.49,4.06,5.63,3.74,3.14-.32,6.35-.1,9.53-.06,11.78,.15,20.24,8.64,20.34,20.51,.07,9.24,.01,18.48,.01,28.09,7.98-2.74,15.67-5.33,23.73-6.54,4.09-.62,8.19-1.3,12.31-1.52,2.94-.16,3.88-.98,3.85-4.13-.18-20.03-.09-40.07-.09-60.1,0-1.11-.07-2.22,.05-3.31,.39-3.61,3.17-6.15,6.62-6.13,3.46,.02,6.17,2.56,6.55,6.21,.11,1.09,.05,2.21,.05,3.31,0,19.9,.07,39.79-.07,59.69-.02,3.04,.59,4.31,3.91,4.47,12.21,.59,23.92,3.71,35.95,8.14,0-9.66-.01-18.95,0-28.24,0-2.28-1.96-1.97-3.22-2.49-10.34-4.26-16.89-14.2-16.67-25.36,.21-10.7,7.07-20.32,17.21-24.13,13.41-5.04,28.53,1.57,33.92,14.85,5.46,13.45-.9,28.87-14.46,34.3-2.83,1.13-3.63,2.43-3.58,5.32,.18,9.53,.13,19.07,.02,28.6-.02,2.28,.51,3.65,2.68,4.9,22.26,12.82,39.14,30.77,50.52,53.81,.91,1.83,1.91,2.6,4.04,2.56,8.98-.13,17.96-.15,26.94,.01,2.4,.04,3.19-.83,4.02-2.96,5.06-12.98,18.76-19.73,32.02-16,12.57,3.54,20.92,16.46,18.95,29.36-2.07,13.59-13.98,23.5-27.79,22.59-10.85-.71-18.75-6.29-22.88-16.38-1.2-2.93-2.62-3.52-5.39-3.46-7.59,.15-15.19,.05-23.17,.05,2.18,7.73,4.25,15.24,5.13,23,.06,.55,.21,1.08,.29,1.63,.4,2.72-.71,6.34,1.15,7.97,1.99,1.74,5.55,.53,8.41,.54,18.79,.05,37.59,.05,56.38,0,2.97,0,5.49,.66,7.08,3.35,2.79,4.73-.67,9.9-6.75,9.92-14.23,.06-28.47,.02-42.7,.02-6.49,0-12.99,.11-19.48-.06-2.54-.07-3.71,.49-3.8,3.28-.22,6.92-1.4,13.72-3.25,20.39-.69,2.48,.07,2.99,2.47,2.97,11.05-.11,22.11-.07,33.16-.04,13.13,.03,21.34,8.31,21.38,21.55,.02,5.25,.1,10.5-.04,15.75-.06,2.34,.47,3.5,2.94,4.45,13.01,5.01,19.74,18.77,15.99,32.01-3.56,12.58-16.5,20.91-29.38,18.93-13.6-2.09-23.48-13.97-22.58-27.8,.71-10.85,6.31-18.75,16.4-22.87,2.94-1.2,3.54-2.64,3.45-5.39-.17-5.25,0-10.5-.06-15.75-.07-5.11-2.53-7.58-7.68-7.6-12.71-.05-25.43,.02-38.14-.06-2.01-.01-3.12,.39-4.01,2.46-11.26,26.22-29.25,46.52-54.03,60.74-1.85,1.06-2.32,2.3-2.3,4.3,.09,10.22,.01,20.45,.05,30.67,.02,5.62,2.43,7.92,8.14,7.99,.69,0,1.39-.05,2.07,0,6.32,.55,10.83-.03,14.28-7.43,5.11-10.96,18.83-14.94,30.39-11.07,11.9,3.98,19.23,15.37,18.02,28-1.13,11.85-10.53,21.51-22.79,23.44-11.5,1.81-23.52-4.96-27.94-16.15-1.11-2.82-2.38-3.81-5.3-3.6-3.44,.25-6.91,.12-10.36,.04-11.06-.25-19.6-8.74-19.75-19.81-.13-9.39-.03-18.78-.03-28.84Z"/><path class="cls-2" d="M411.32,96.77c0,1.72,.02,2.41,0,3.1-.11,4.45-2.8,7.38-6.71,7.32-3.75-.06-6.42-2.81-6.52-7.08-.17-7.78-1.38-15.35-3.87-22.73-9.88-29.22-36.65-48.96-67.47-49.73-5.32-.13-8.24-2.48-8.26-6.63-.02-4.31,3.07-6.69,8.61-6.63,41.95,.43,79.05,34.02,83.48,75.59,.28,2.6,.56,5.21,.73,6.8Z"/><path class="cls-2" d="M384.71,98.28c0,1.1,.15,2.23-.03,3.31-.53,3.33-3.42,5.68-6.69,5.6-3.73-.1-6.29-2.82-6.46-7.17-.61-15.45-6.95-27.9-19.42-37.1-7.42-5.47-15.84-8.21-25.01-8.71-.69-.04-1.38-.01-2.07-.08-3.97-.38-6.56-3.04-6.53-6.67,.03-3.78,2.84-6.57,7.04-6.54,13.41,.09,25.52,4.23,36.06,12.5,14.52,11.39,22.02,26.51,23.12,44.86Z"/><path class="cls-2" d="M326.57,67.45c16.72,.43,31.24,14.99,31.65,31.71,.12,4.79-2.35,7.89-6.38,8.03-3.87,.13-6.5-2.63-6.86-7.19-.88-11.19-8.13-18.42-19.38-19.31-4.54-.36-7.28-3.03-7.11-6.93,.18-4.02,3.27-6.43,8.09-6.31Z"/><path class="cls-3" d="M99.57,213.15c.03-62.16,50.61-112.58,112.93-112.57,61.96,.01,112.58,50.58,112.59,112.48,.01,62.57-50.78,113.2-113.38,113.02-61.89-.18-112.18-50.83-112.14-112.94Z"/><path class="cls-3" d="M119.46,54.23c-.03,7.16-6.08,13.18-13.24,13.17-7.25-.01-13.2-5.9-13.26-13.14-.06-7.4,6.04-13.47,13.44-13.36,7.24,.11,13.09,6.07,13.06,13.33Z"/><path class="cls-3" d="M119.46,372.69c-.07,7.16-6.17,13.13-13.33,13.08-7.25-.06-13.15-5.99-13.17-13.23-.01-7.4,6.13-13.42,13.53-13.26,7.24,.15,13.05,6.16,12.97,13.41Z"/><path class="cls-3" d="M278.64,40.91c-.02,7.23-5.93,13.16-13.17,13.22-7.16,.06-13.26-5.93-13.33-13.08-.07-7.43,5.97-13.48,13.39-13.42,7.21,.06,13.13,6.05,13.11,13.28Z"/><path class="cls-3" d="M39.86,100.6c7.22-.02,13.2,5.9,13.27,13.12,.07,7.4-6.02,13.46-13.44,13.38-7.16-.08-13.13-6.18-13.06-13.34,.07-7.26,5.98-13.13,13.23-13.15Z"/><path class="cls-3" d="M39.94,326.06c-7.23,.04-13.23-5.85-13.31-13.07-.09-7.41,5.96-13.47,13.38-13.42,7.16,.05,13.15,6.12,13.12,13.29-.04,7.25-5.95,13.17-13.19,13.2Z"/><path class="cls-3" d="M384.92,326.06c-7.23,.07-13.26-5.79-13.38-13-.12-7.41,5.9-13.5,13.32-13.49,7.17,.02,13.19,6.05,13.18,13.22,0,7.25-5.89,13.2-13.12,13.27Z"/><path class="cls-3" d="M384.63,153.65c7.26-.06,13.27,5.75,13.41,12.98,.14,7.4-5.89,13.53-13.29,13.51-7.24-.02-13.15-5.92-13.21-13.18-.05-7.16,5.94-13.26,13.09-13.32Z"/><path class="cls-3" d="M331.71,372.35c.08,7.23-5.76,13.27-12.98,13.4-7.41,.14-13.52-5.87-13.52-13.29,0-7.15,6.04-13.2,13.2-13.21,7.26,0,13.21,5.86,13.3,13.09Z"/><path class="cls-2" d="M212.27,127.11c47.12-.2,86.13,38.51,86.29,85.63,.16,47.49-38.18,86.58-85.12,86.79-48.44,.21-87.08-37.96-87.31-86.24-.22-47.25,38.48-85.97,86.15-86.17Z"/><path class="cls-3" d="M212.37,140.39c40.07-.15,72.82,32.62,72.92,72.96,.1,39.89-32.72,72.87-72.59,72.93-40.17,.06-73.16-32.41-73.32-72.17-.16-40.87,32.22-73.58,72.98-73.73Z"/></g><g><path class="cls-2" d="M213.77,257.2c-16.88,0-33.76,0-50.64,0-2.87,0-3.6-.7-3.54-3.61,.05-2.76-.3-5.53,.25-8.27,.81-4.09,4.2-7.28,8.35-7.69,1.05-.1,1.26-.4,1.26-1.39-.03-13.89-.04-27.77,0-41.66,0-1.23-.37-1.51-1.52-1.45-1.86,.1-3.72,.05-5.59,.02-1.8-.03-2.74-.92-2.76-2.69-.04-3.1,0-6.21-.02-9.31,0-1.19,.51-2,1.53-2.61,15.93-9.44,31.84-18.92,47.77-28.34,3.22-1.9,6.56-1.91,9.79,0,15.93,9.43,31.85,18.9,47.78,28.34,1.09,.65,1.55,1.53,1.54,2.78-.03,2.99,.01,5.98-.02,8.98-.02,1.98-.92,2.85-2.93,2.87-1.86,.02-3.73,.06-5.59-.02-.99-.04-1.35,.17-1.35,1.27,.04,14,.03,28,.01,42,0,.83,.18,1.1,1.08,1.2,4.99,.53,8.63,4.53,8.77,9.54,.06,2.14,.02,4.29,.02,6.44,0,2.92-.68,3.61-3.56,3.61-16.88,0-33.76,0-50.64,0Z"/><path class="cls-1" d="M213.57,188.17c-15.8,0-31.59-.02-47.39,.03-1.42,0-1.62-.42-1.78-1.76-.38-3.15,.85-4.81,3.62-6.4,14.22-8.21,28.3-16.67,42.39-25.11,2.36-1.42,4.42-1.38,6.76,.02,14.77,8.84,29.57,17.61,44.39,26.37,1.09,.64,1.7,1.3,1.52,2.64-.18,1.33,.55,3.1-.27,3.92-.89,.9-2.67,.28-4.06,.28-15.06,.02-30.12,.01-45.19,.01Z"/><path class="cls-1" d="M213.77,252.3c-15.86,0-31.72-.02-47.58,.03-1.43,0-1.89-.41-1.74-1.79,.11-1-.01-2.03,.03-3.05,.14-3.07,2.08-4.99,5.17-5.13,.39-.02,.79,0,1.19,0,28.62,0,57.23,0,85.85,0,4.6,0,6.37,1.75,6.37,6.31q0,3.62-3.57,3.62h-45.72Z"/><path class="cls-1" d="M203.92,215.54c0,6.83-.04,13.66,.04,20.49,.01,1.31-.37,1.57-1.6,1.55-3.95-.08-7.9-.07-11.85,0-1.11,.02-1.41-.29-1.41-1.4,.04-13.88,.04-27.77,0-41.65,0-1.16,.36-1.4,1.44-1.38,4.01,.06,8.01,.07,12.02,0,1.12-.02,1.4,.32,1.39,1.41-.05,7-.02,14-.02,21Z"/><path class="cls-1" d="M238.42,215.54c0,6.77-.05,13.55,.04,20.32,.02,1.46-.42,1.76-1.79,1.72-3.89-.1-7.79-.08-11.68,0-1.12,.02-1.4-.3-1.39-1.4,.04-13.88,.04-27.77,0-41.65,0-1.14,.34-1.4,1.42-1.38,4.01,.06,8.01,.07,12.02,0,1.12-.02,1.42,.31,1.41,1.41-.05,7-.02,14-.02,21Z"/><path class="cls-1" d="M174.42,215.21c0-6.82,.04-13.64-.04-20.46-.02-1.38,.41-1.68,1.69-1.62,2.19,.1,4.4,.11,6.59,0,1.26-.06,1.61,.28,1.6,1.57-.07,7.61-.03,15.22-.03,22.83,0,6.14-.03,12.29,.03,18.43,.01,1.2-.19,1.69-1.54,1.62-2.3-.12-4.62-.1-6.93,0-1.11,.04-1.4-.28-1.39-1.39,.05-6.99,.03-13.98,.03-20.97Z"/><path class="cls-1" d="M253.13,215.48c0,6.88-.03,13.75,.03,20.63,.01,1.22-.34,1.5-1.5,1.46-2.36-.09-4.73-.07-7.1,0-.93,.02-1.26-.2-1.26-1.2,.03-13.98,.03-27.96,0-41.94,0-1.09,.36-1.32,1.35-1.29,2.37,.07,4.74,.08,7.1,0,1.09-.04,1.41,.26,1.41,1.38-.05,6.99-.03,13.98-.03,20.97Z"/><path class="cls-1" d="M208.86,215.19c0-6.88,.02-13.76-.02-20.63,0-1.07,.22-1.48,1.37-1.43,2.31,.1,4.63,.11,6.93,0,1.31-.07,1.57,.35,1.56,1.59-.05,11.67-.03,23.34-.03,35.01,0,2.2-.04,4.4,.02,6.6,.03,.93-.21,1.27-1.2,1.25-2.42-.07-4.85-.09-7.27,0-1.13,.04-1.39-.32-1.39-1.41,.05-6.99,.02-13.98,.02-20.97Z"/><path class="cls-2" d="M213.74,163.66c5.53,0,9.88,4.3,9.87,9.8,0,5.41-4.53,9.92-9.91,9.88-5.34-.05-9.77-4.49-9.78-9.82-.02-5.52,4.29-9.85,9.82-9.86Z"/><path class="cls-1" d="M218.65,173.62c-.09,2.75-2.3,4.81-5.07,4.73-2.71-.08-4.81-2.34-4.71-5.09,.1-2.69,2.47-4.92,5.08-4.78,2.71,.15,4.79,2.43,4.7,5.15Z"/></g></svg>