<?xml version="1.0" encoding="UTF-8"?><svg id="Capa_1" xmlns="http://www.w3.org/2000/svg" viewBox="0 0 426 426.5">
<defs><style>
.cls-1,.cls-2{fill:#828282;}
.cls-3{fill:#606060;}
.cls-2{font-family:Lato-Bold, Lato;font-size:84.96px;}
.cls-4{fill:#fefefe;}
</style></defs>
<g>
<path class="cls-3" fill='#606060' d="M256.39,47.23c6-2.8,11.91-4.43,18.22-3.41,14.46,2.36,24.28,13.87,24.3,28.75,.06,37.08,.02,74.16,.02,111.24v5.22c5.55-2.51,11-4.24,16.86-3.52,8.31,1.02,15.13,4.77,20.07,11.59,1.21,1.67,1.84,1.88,3.7,.68,13.87-8.97,28.26-6.58,38.8,6.4,1.34,1.66,1.97,1.8,3.75,.6,9.51-6.42,19.58-7.18,29.67-1.67,10.08,5.51,14.88,14.44,14.78,25.87-.1,11.07,.84,22.19-.49,33.2-1.41,11.67-6.71,22.23-10.52,33.2-7.58,21.83-15.51,43.54-23.33,65.29-.81,2.26-1.12,4.52-1.12,6.91,.05,16.55,.04,33.09,.02,49.64,0,6.92-2.37,9.28-9.31,9.28-45.79,0-91.59,0-137.38,0-6.95,0-9.3-2.34-9.31-9.27-.02-14.48-.19-28.96,.08-43.43,.12-6.76-.64-13.16-3.43-19.35-1.27-2.81-2.28-5.77-3.02-8.76-.84-3.41-2.67-4.08-6.14-4.49-8.03-.95-12.91,1.94-17.03,8.84-5.42,9.1-11.96,17.54-18.14,26.18-1.45,2.03-2.03,4.05-2.01,6.53,.1,11.52,.06,23.04,.04,34.57-.01,6.69-2.41,9.17-8.97,9.17-50.82,.01-101.63,.01-152.45,0-6.31,0-8.74-2.51-8.77-8.92-.03-6.8-.2-13.6,.03-20.38,.8-23.72-2.85-47.13-4.9-70.65-2.3-26.47-4.78-52.93-7.64-79.35-1.66-15.32-1.74-30.65-1.68-46,.08-21.89,15.16-37.14,37.01-36.95,4.59,.04,5.67-1.1,5.65-5.67-.19-44.61-.12-89.23-.11-133.84,0-15.06,8.57-23.71,23.51-23.71,55.25,0,110.5,0,165.75,0,14.75,0,23.46,8.66,23.49,23.3,.02,7.51,0,15.01,0,22.93Z"/>
<path class="cls-1" fill='#828282' d="M402.54,57.74c-5.26-5.2-9.66-9.7-14.25-14-1.82-1.7-1.82-2.68-.04-4.5,7.77-7.95,7.7-8.01,15.43-.28,6.47,6.48,12.97,12.93,19.41,19.43,4.75,4.79,4.77,8.08,.04,12.84-8.22,8.28-16.54,16.46-24.7,24.79-1.73,1.76-2.66,1.85-4.5,.05-7.95-7.78-8.03-7.72-.3-15.41,2.69-2.67,5.46-5.27,9.07-8.75h-5.39c-24.37,0-48.73-.07-73.1,.08-3.28,.02-4.17-.71-4.1-4.06,.21-10.2,.04-10.21,10.28-10.21h72.14Z"/>
<path class="cls-1" fill='#828282' d="M337.23,114.47c26.81,0,52.36,.05,77.9-.06,3.14-.01,4.59,.33,4.48,4.13-.29,10.11-.07,10.12-10.38,10.12-23.6,0-47.2,0-70.81,0l-.9,1.06c4.54,4.25,9.03,8.56,13.66,12.71,1.9,1.7,2.48,2.91,.18,4.81-2.72,2.25-4.99,6.59-7.73,6.83-2.88,.25-5.15-4.29-7.67-6.75-6.43-6.3-12.77-12.71-19.13-19.09-5.04-5.06-5.09-8.2-.18-13.13,8.13-8.16,16.37-16.21,24.37-24.49,2.09-2.17,3.17-1.93,5.15,.07,7.46,7.52,7.54,7.46,.17,14.81-2.78,2.77-5.58,5.51-9.13,9Z"/>
<path class="cls-4" fill='#fefefe' d="M242.05,167.86c-6.69-3.25-13.27-4.67-20.36-3-12.49,2.93-21.83,13.79-21.94,26.63-.2,22.16-.09,44.31,0,66.47,.02,5.49,1.42,10.78,3.27,15.96,6.29,17.58,12.52,35.19,18.95,53.3h-4.58c-49.78,0-99.56,0-149.34,0-8.17,0-10.2-2.03-10.21-10.15,0-4.73,.22-9.47-.08-14.18-.2-3.24,.63-4.15,4.03-4.13,28.8,.16,57.61,.09,86.41,.09,11.37,0,22.75-.07,34.12,.05,2.43,.03,3.2-.54,3.23-3.11,.13-11.13,.23-11.13-10.67-11.13-37.67,0-75.34-.04-113,.08-3.21,.01-4.19-.61-4.14-4.03,.23-14.03,.17-28.07,.03-42.1-.03-2.81,.61-3.65,3.57-3.69,10.47-.12,21.02,1.16,31.39-.68,18.02-3.2,30.42-19.71,28.81-37.83-1.59-17.9-16.53-31.92-34.57-32.27-8.56-.17-17.14-.13-25.7,0-2.54,.04-3.52-.34-3.52-3.28,.11-45.79,.06-91.59,.09-137.38,0-5.74,2.64-8.31,8.47-8.31,55.84-.02,111.68-.02,167.51,0,5.75,0,8.37,2.63,8.37,8.42,.02,47.27,.01,94.54,0,141.81,0,.69-.08,1.37-.15,2.43Z"/>
<path class="cls-4" fill='#fefefe' d="M256.39,158.6c0-28.66-.02-57.32,.02-85.98,.01-7.19,4.18-12.64,10.77-14.44,5.67-1.55,12.03,1.03,15.36,6.2,1.92,2.99,2.25,6.29,2.24,9.75-.03,56.73,.02,113.45-.12,170.18,0,3.99,.92,5.14,4.97,5,9.3-.33,9.31-.1,9.31-9.42,0-8.42-.05-16.84,.01-25.26,.06-8.62,6.09-15,14.09-15.05,8.02-.05,14.18,6.31,14.24,14.88,.07,10.49,.13,20.98-.06,31.46-.05,2.84,.81,3.35,3.45,3.35,10.81,0,10.8,.1,10.81-10.55,0-5.91-.08-11.82,.03-17.73,.15-8.23,6.37-14.38,14.33-14.33,7.65,.05,13.87,6.25,13.98,14.24,.13,10.49,.21,20.98-.06,31.46-.09,3.47,1,4.06,4.17,4,10.11-.18,10.11-.04,10.12-10.36,0-6.2-.14-12.41,.06-18.61,.24-7.46,6.36-13.43,13.66-13.64,7.3-.21,14.34,5.42,14.46,12.75,.3,18.21,2.12,36.61-6.18,53.94-2.85,5.94-4.61,12.41-6.84,18.64-6.28,17.61-12.61,35.2-18.73,52.86-.99,2.86-2.28,3.7-5.29,3.69-41.36-.12-82.73-.12-124.09,0-2.99,0-4.3-.8-5.31-3.67-9.63-27.35-19.43-54.65-29.19-81.96-1.86-5.19-2.81-10.48-2.78-16.03,.09-19.94,.02-39.89,.04-59.83,0-9.43,5.73-15.85,14.08-15.89,8.44-.04,14.26,6.33,14.27,15.7,.03,17.14,.09,34.27-.07,51.41-.03,3.05,.64,3.94,3.81,3.9,10.44-.15,10.45,0,10.45-10.48,0-26.74,0-53.48,0-80.21Z"/>
<path class="cls-4" fill='#fefefe' d="M194.55,341.4c-6.51,9.29-12.62,17.93-18.61,26.64-.99,1.44-2.1,1.75-3.68,1.75-46.83-.03-93.66-.04-140.49,.03-2.55,0-3.07-.87-3.29-3.23-4.27-45.27-8.84-90.51-12.86-135.8-.98-10.99-.62-22.16-.15-33.21,.44-10.48,9.67-19.06,20.23-19.2,17.13-.22,34.27-.24,51.41,0,11.26,.16,20.28,9.76,20.35,21,.08,11.46-8.96,21.14-20.42,21.39-11.52,.25-23.04,.05-34.57,.08-6.35,.02-8.81,2.49-8.81,8.86-.02,29.84-.04,59.68,0,89.52,.02,13.14,9.13,22.14,22.39,22.15,40.92,.04,81.84,.01,122.76,.01,1.62,0,3.25,0,5.73,0Z"/>
<path class="cls-4" fill='#fefefe' d="M100.37,383.95c22.31,0,44.61,.08,66.92-.09,3.3-.02,4.23,.73,4.09,4.08-.29,7.08-.2,14.18-.03,21.27,.06,2.51-.67,3.17-3.17,3.16-45.2-.08-90.4-.07-135.61,0-2.49,0-3.23-.64-3.17-3.16,.17-7.23,.2-14.48-.01-21.71-.09-2.9,.73-3.64,3.62-3.62,22.45,.12,44.91,.07,67.36,.07Z"/>
<path class="cls-4" fill='#fefefe' d="M249.3,390.6c0-6.06,.09-12.11-.05-18.16-.05-2.13,.58-2.77,2.71-2.71,5.31,.15,10.63,.15,15.95,0,2.14-.06,2.73,.59,2.71,2.72-.1,12.4-.1,24.81,0,37.22,.02,2.13-.58,2.77-2.71,2.71-5.31-.15-10.63-.15-15.95,0-2.14,.06-2.76-.59-2.71-2.72,.13-6.35,.05-12.7,.05-19.05Z"/>
<path class="cls-4" fill='#fefefe' d="M306.03,391.04c0,6.2-.09,12.41,.05,18.61,.05,2.13-.57,2.78-2.71,2.72-5.31-.15-10.63-.15-15.95,0-2.14,.06-2.73-.59-2.71-2.71,.1-12.4,.1-24.81,0-37.22-.02-2.12,.57-2.77,2.71-2.72,5.31,.15,10.63,.15,15.95,0,2.14-.06,2.76,.58,2.71,2.71-.14,6.2-.05,12.4-.05,18.61Z"/>
<path class="cls-4" fill='#fefefe' d="M341.49,391.3c0,6.06-.12,12.11,.06,18.16,.07,2.39-.71,2.97-2.98,2.9-5.16-.16-10.34-.18-15.5,0-2.4,.09-2.92-.73-2.9-2.98,.1-12.26,.12-24.52,0-36.77-.02-2.38,.71-2.97,2.98-2.9,5.16,.16,10.34,.18,15.5,0,2.4-.09,2.95,.73,2.9,2.98-.14,6.2-.05,12.4-.05,18.61Z"/>
<path class="cls-4" fill='#fefefe' d="M376.95,391.25c0,6.06-.1,12.11,.05,18.16,.06,2.31-.59,3.03-2.93,2.95-5.31-.17-10.63-.14-15.95-.01-1.94,.04-2.5-.53-2.49-2.48,.08-12.55,.08-25.11,0-37.66-.01-1.93,.52-2.54,2.48-2.49,5.31,.13,10.64,.16,15.95,0,2.32-.07,3.01,.6,2.95,2.94-.16,6.2-.05,12.4-.05,18.61Z"/>
<path class="cls-1" fill='#828282' d="M220.92,100.18c-.07,39.26-31.83,71.06-70.91,70.99-39.41-.07-71-31.91-70.9-71.45,.1-38.93,32.21-70.5,71.56-70.34,38.52,.16,70.32,32.21,70.25,70.81Z"/>
<path class="cls-4" fill='#fefefe' d="M93.29,100.39c0-31.42,25.34-56.77,56.82-56.83,31.26-.06,56.68,25.54,56.63,57.04-.05,30.8-25.59,56.35-56.4,56.42-31.46,.07-57.04-25.32-57.05-56.63Z"/>
</g><text class="cls-2" fill='#828282' transform="translate(123.33 128.42)"><tspan x="0" y="0">1</tspan></text></svg>