<?xml version="1.0" encoding="UTF-8"?>
<svg id="Capa_1" data-name="Capa 1" xmlns="http://www.w3.org/2000/svg" viewBox="0 0 426 426.5">
  <defs>
    <style>
      .cls-1 {
        fill: #606060;
      }

      .cls-1, .cls-2 {
        stroke-width: 0px;
      }

      .cls-2 {
        fill: #fff;
      }
    </style>
  </defs>
  <path class="cls-1" fill='606060' stroke-width='0px' d="M51.12,220.66c0-45.03-.01-90.07,0-135.1,0-14.22,7.29-21.5,21.41-21.48,54.13.11,108.26.23,162.39.36,2.54,0,5.08.01,7.61.21,3.64.28,6.01,2.1,5.88,6-.13,3.63-2.11,5.93-5.8,6.37-1.88.22-3.8.1-5.7.1-53.92-.12-107.84-.25-161.76-.36-10.28-.02-11,.68-11,10.61,0,88.38-.02,176.76,0,265.14,0,21.99,10.01,37.16,28.89,42.43,9.85,2.75,20.11,2.38,29.87-1.27,6.77-2.53,10.66-8,13.12-14.58,4.62-12.34,4.7-25.22,4.4-38.12-.22-9.84.86-11.05,10.64-11.01,52.65.18,105.3.3,157.95.68,4.84.04,5.87-1.23,5.83-5.93-.42-56.24-.62-112.48-.8-168.72-.02-4.86-1.42-11.32,6.19-11.56,7.92-.24,6.38,6.38,6.41,11.17.32,56.24.59,112.48.68,168.72,0,4.64.71,6.77,6.01,6.19,4.77-.52,9.68-.22,14.31,1.74,7.7,3.26,12.33,10.4,11.34,18.55-1.2,9.87-3.55,19.47-8.19,28.37-10.29,19.75-26.84,30.36-48.86,30.62-41.65.5-83.31.05-124.96-.02-23.68-.04-47.37-.6-71.04-.1-33.18.7-55.24-25.95-54.95-55.16.45-44.61.12-89.22.12-133.83Z"/>
  <path class="cls-1" fill='606060' stroke-width='0px' d="M375,70.69c.04,29.72-24.2,54.33-53.57,54.38-29.23.05-53.67-24.69-53.67-54.35,0-29.72,24.25-54.24,53.64-54.23,29.52,0,53.56,24.32,53.6,54.2Z"/>
  <path class="cls-1" fill='606060' stroke-width='0px' d="M151.02,155.58c-.18,19.13-16.23,35.03-34.06,34.54-17.93-.5-33.35-16.41-32.88-34.27.15-5.94,2.32-11.48,5.1-16.74,6.04-11.45,13.96-21.53,22.72-30.99,3.17-3.42,7.04-4.7,10.42-.99,10.93,12,21.26,24.5,27.08,39.99,1.11,2.96,2.01,6.02,1.63,8.46Z"/>
  <path class="cls-1" fill='606060' stroke-width='0px' d="M109.24,254.02c6.41,0,11.24-.21,16.05.05,6.25.35,8.92,5.48,5.35,10.62-8.55,12.28-17.4,24.35-26.07,36.55-2.22,3.12-4.94,3.92-8.09,1.79-3.63-2.47-3.86-5.87-1.48-9.31,4.79-6.93,9.75-13.75,14.63-20.62,1.18-1.66,2.28-3.38,4.08-6.06-6.16,0-11.36-.02-16.55,0-2.9.02-5.53-.52-6.86-3.47-1.35-3.01-.64-5.69,1.43-8.2,8.32-10.08,16.63-20.18,24.84-30.35,2.86-3.54,6.3-4.74,9.81-1.8,3.63,3.04,2.51,6.75-.2,10.07-5.3,6.49-10.61,12.97-16.93,20.71Z"/>
  <path class="cls-1" fill='606060' stroke-width='0px' d="M241.25,263.12c-15.41,0-30.83-.06-46.24.05-4.61.03-9.16-.6-9.24-6.05-.09-5.74,4.52-6.73,9.43-6.72,30.62.06,61.24.03,91.85.03.84,0,1.69-.02,2.53.04,4.09.3,7.14,2.25,7.07,6.53-.07,4.26-3.02,6.14-7.26,6.13-16.05-.03-32.1-.01-48.14,0Z"/>
  <path class="cls-1" fill='606060' stroke-width='0px' d="M244.9,139.62c-14.58,0-29.16-.05-43.75.03-4.48.02-8.32-.89-8.48-6.18-.17-5.81,3.91-6.58,8.63-6.57,29.16.07,58.33.06,87.49,0,4.44,0,8.39.66,8.48,6.08.1,5.69-3.88,6.69-8.63,6.66-14.58-.08-29.16-.03-43.75-.03Z"/>
  <path class="cls-1" fill='606060' stroke-width='0px' d="M226.33,281.11c10.54,0,21.09.02,31.63,0,4.39,0,8.46.97,8.5,6.19.04,5.13-3.91,6.5-8.33,6.5-21.3.03-42.6,0-63.9.02-4.48,0-8.44-1.41-8.51-6.36-.07-5,3.8-6.4,8.34-6.37,10.75.07,21.51.02,32.27.02Z"/>
  <path class="cls-1" fill='606060' stroke-width='0px' d="M230.39,167.96c-9.93,0-19.86-.03-29.79.02-4.24.02-7.84-.96-7.97-5.98-.14-5.29,3.5-6.72,8.02-6.72,20.07-.02,40.14-.02,60.21,0,4.38,0,8.31,1.1,8.31,6.44,0,5.43-4.01,6.24-8.36,6.24-10.14,0-20.28,0-30.42,0Z"/>
  <path class="cls-2" fill='#fff' stroke-width='0px' d="M140.52,396.54c10.99-14.86,12.45-31.39,12.34-48.16-.03-4.75,1.18-5.9,5.92-5.87,58.94.32,117.87.4,176.81.54,10.21.03,11.8,1.95,9.99,12.01-3.44,19.12-12.16,34.01-32.05,39.93-4.88,1.45-9.88,2.12-14.96,2.11-51.76-.08-103.51-.16-155.27-.25-.59,0-1.18-.13-2.78-.31Z"/>
  <path class="cls-2" fill='#fff' stroke-width='0px' d="M362.27,71.61c-.54,22.73-19.42,41.28-41.45,40.71-22.94-.59-41.02-19.92-40.35-43.15.65-22.36,19.86-40.57,42.17-39.97,22.27.6,40.17,19.75,39.63,42.41Z"/>
  <path class="cls-2" fill='#fff' stroke-width='0px' d="M117.47,120.99c7.22,8.55,13.37,16.84,17.99,26.12,4.3,8.64,3.27,16.67-2.96,23.42-5.75,6.22-12.62,8.78-21.1,5.99-9.19-3.02-13.27-9.89-14.58-18.83-.5-3.42.84-6.67,2.26-9.73,4.58-9.83,10.97-18.43,18.39-26.97Z"/>
  <path class="cls-1" fill='606060' stroke-width='0px' d="M313.18,92.59c-3.27-.01-17.71-10.39-18.47-13.43-.58-2.33-.4-4.63,1.55-6.44,2.07-1.92,4.42-2.31,7.01-1.25.38.16.67.53,1.05.68,3.19,1.3,5.4,6.07,8.93,4.59,3.01-1.26,5.01-4.96,7.44-7.6,5.3-5.74,10.59-11.48,15.87-17.24,2.94-3.21,6.39-4.64,9.86-1.32,3.42,3.27,2.25,6.74-.73,9.95-8.9,9.59-17.73,19.25-26.57,28.9-1.61,1.76-3.37,3.21-5.93,3.16Z"/>
</svg>