<?xml version="1.0" encoding="utf-8"?>
<!-- Generator: Adobe Illustrator 26.3.1, SVG Export Plug-In . SVG Version: 6.00 Build 0)  -->
<svg version="1.1" id="Capa_1" xmlns="http://www.w3.org/2000/svg" xmlns:xlink="http://www.w3.org/1999/xlink" x="0px" y="0px"
	 viewBox="0 0 426 426.5" style="enable-background:new 0 0 426 426.5;" xml:space="preserve">
<style type="text/css">
	.st0{fill:#1FC8A9;}
	.st1{fill:#E8F7F3;}
	.st2{fill:#F5F5F5;}
	.st3{fill:#A9EADD;}
	.st4{fill:#F6F6F6;}
	.st5{fill:#828282;}
	.st6{fill:#F4F4F4;}
	.st7{fill:#A8A8A8;}
	.st8{fill:#FFFFFF;}
</style>
<g>
	<g>
		<path class="st0" fill='#1FC8A9' d="M118.17,212.76c0-46.76,0.5-93.52-0.21-140.27c-0.36-23.39,16.37-39.36,38.77-39.05
			c47.91,0.66,95.83,0.19,143.75,0.21c23.54,0.01,37.96,14.31,37.97,37.69c0.02,94.68,0.02,189.35,0,284.03
			c0,23.35-14.46,37.68-37.97,37.69c-48.11,0.02-96.22,0.02-144.33,0c-23.74-0.01-37.96-14.36-37.97-38.27
			C118.17,307.44,118.17,260.1,118.17,212.76z"/>
		<path class="st1" fill='#E8F7F3' d="M326.86,213.34c0,47.14,0.01,94.28,0,141.43c0,17.72-8.96,26.69-26.67,26.69c-47.91,0.01-95.83,0.01-143.74,0
			c-17.71,0-26.68-8.97-26.68-26.68c-0.01-94.28-0.01-188.57,0-282.85c0-17.73,8.95-26.68,26.67-26.69
			c48.11-0.01,96.22-0.01,144.32,0c16.94,0,26.09,9.15,26.1,26.09C326.87,118.67,326.86,166,326.86,213.34z"/>
		<path class="st0" fill='#1FC8A9' d="M141.36,207.38c0-39.21,0-78.41,0-117.62c0-8.48,1.23-9.73,9.62-9.74c51.57-0.01,103.14-0.01,154.7,0
			c8.32,0,9.58,1.29,9.58,9.79c0,78.61,0,157.22,0,235.82c0,8.03-1.4,9.45-9.34,9.45c-51.76,0.01-103.52,0.01-155.28,0
			c-7.92,0-9.28-1.4-9.28-9.5C141.36,286.18,141.36,246.78,141.36,207.38z"/>
		<path class="st0" fill='#1FC8A9' d="M228.33,375.62c-2.31,0-4.64,0.15-6.94-0.03c-9.44-0.74-16.47-8.48-16.24-17.74
			c0.22-9.06,7.25-16.37,16.5-16.9c4.42-0.25,8.88-0.25,13.3,0c9.48,0.53,16.6,8.16,16.53,17.44c-0.07,9.05-7,16.46-16.21,17.2
			C232.97,375.78,230.64,375.62,228.33,375.62z"/>
		<path class="st0" fill='#1FC8A9' d="M216.15,68.42c-3.67,0-7.38-0.35-10.99,0.09c-4.83,0.58-6.04-1.04-6.03-5.87c0.01-4.8,1.16-6.19,6.01-5.93
			c8.47,0.45,16.99,0.35,25.48,0.05c5.39-0.19,3.39,3.57,3.38,5.87c-0.01,2.29,2.05,6.2-3.36,5.87
			C225.82,68.19,220.98,68.42,216.15,68.42z"/>
		<path class="st0" fill='#1FC8A9' d="M250.99,68.29c-6.13,1.87-4.93-2.41-5.4-6.08c-0.72-5.61,2.35-5.2,6.33-5.55c5.61-0.5,5.23,2.39,5.54,6.38
			C257.89,68.54,255.25,69.08,250.99,68.29z"/>
		<path class="st1" fill='#E8F7F3' d="M303.67,207.55c0,36.9-0.08,73.81,0.11,110.71c0.02,4.33-1,5.36-5.34,5.34c-46.76-0.18-93.51-0.18-140.27,0
			c-4.34,0.02-5.34-1.02-5.33-5.34c0.15-73.81,0.15-147.61,0-221.42c-0.01-4.32,1-5.36,5.33-5.34c46.76,0.18,93.51,0.18,140.27,0
			c4.34-0.02,5.36,1.02,5.34,5.34C303.59,133.75,303.67,170.65,303.67,207.55z"/>
		<path class="st2" fill='#F5F5F5' d="M227.8,363.94c-2.11,0-4.28,0.3-6.32-0.07c-2.96-0.54-4.72-2.58-4.68-5.67c0.04-3.09,1.85-5.27,4.82-5.54
			c4.19-0.38,8.45-0.28,12.67-0.1c3.32,0.15,5.42,2.17,5.5,5.5c0.1,3.63-2.08,5.66-5.65,5.95c-2.1,0.17-4.22,0.03-6.34,0.03
			C227.81,364.01,227.81,363.98,227.8,363.94z"/>
	</g>
	<path class="st0" fill='#1FC8A9' d="M210.88,199.46c0-3.09-0.04-6.18,0.01-9.27c0.09-4.81,1.41-9.92-6.87-9.15c-4,0.37-6.11-4.76-3.57-8.15
		c7.64-10.17,15.48-20.21,23.57-30.02c2.65-3.22,6.28-2.8,8.97,0.49c7.57,9.25,15.13,18.52,22.46,27.96
		c3.78,4.87,1.42,10.08-4.7,9.91c-4.58-0.13-5.34,1.38-5.2,5.48c0.31,9.06,0.14,18.14,0.08,27.22c-0.04,6.19-1.78,7.97-7.82,8.04
		c-6.37,0.07-12.74,0.07-19.11,0c-6.05-0.07-7.75-1.84-7.82-8.04C210.84,209.12,210.88,204.29,210.88,199.46z"/>
	<path class="st3" fill='#A9EADD' d="M234.07,259.66c0-7.53,0.22-15.07-0.07-22.59c-0.21-5.41,3.6-3.33,5.89-3.35c2.31-0.02,5.95-1.99,5.86,3.39
		c-0.25,15.06-0.24,30.13,0,45.19c0.08,5.41-3.61,3.33-5.9,3.35c-2.31,0.02-6.08,2-5.85-3.39
		C234.3,274.74,234.07,267.19,234.07,259.66z"/>
	<path class="st3" fill='#A9EADD' d="M210.88,248.09c0-2.9,0.32-5.84-0.07-8.68c-0.68-4.84,1.05-6.02,5.87-6.02c4.82,0,6.26,1.18,5.91,6.02
		c-0.47,6.53-0.35,13.13-0.04,19.68c0.25,5.4-3.57,3.37-5.87,3.37s-6.25,2.03-5.85-3.37C211.1,255.44,210.88,251.76,210.88,248.09z"
		/>
	<path class="st4" fill='#F6F6F6' d="M222.47,191.36c0-4.63-0.01-9.25,0-13.88c0-1.74,0.37-4-1.11-4.89c-5.47-3.32-1.74-5.9,0.44-8.6
		c6.44-7.97,6.49-7.99,12.87-0.05c2.11,2.63,6.14,5.17,0.53,8.59c-1.66,1.01-1.14,3.53-1.14,5.45c0,9.45-0.33,18.91,0.13,28.33
		c0.27,5.45-3.11,4.1-5.88,4.06c-2.7-0.04-6.4,1.5-5.93-3.98C222.81,201.41,222.47,196.37,222.47,191.36z"/>
</g>
</svg>
