<?xml version="1.0" encoding="utf-8"?>
<!-- Generator: Adobe Illustrator 26.3.1, SVG Export Plug-In . SVG Version: 6.00 Build 0)  -->
<svg version="1.1" id="Capa_1" xmlns="http://www.w3.org/2000/svg" xmlns:xlink="http://www.w3.org/1999/xlink" x="0px" y="0px"
	 viewBox="0 0 426 426.5" style="enable-background:new 0 0 426 426.5;" xml:space="preserve">
<style type="text/css">
	.st0{fill:#1FC8A9;}
	.st1{fill:#FEFEFE;}
	.st2{fill:#DCFFF7;}
	.st3{fill:#C0FCF0;}
	.st4{fill:#828282;}
	.st5{fill:#E0E0E0;}
	.st6{fill:#FFFFFF;}
	.st7{fill:#F6F6F6;}
	.st8{fill:#F7F5F5;}
</style>
<g>
	<path class="st4" d="M207.63,33.71c98.54-0.37,179.55,80.16,179.75,178.83c0.19,98.77-78.35,178.76-176.76,180.24
		c-100.05,1.5-181.47-78.16-182.27-177.63C27.54,114.63,107.54,34.08,207.63,33.71z"/>
	<path class="st1" fill="white" d="M207.92,267.1c-12.71,0-25.42,0.02-38.12-0.01c-6.55-0.01-9.12-2.54-9.12-8.98c-0.01-17.32-0.01-34.63,0-51.95
		c0.01-6.35,2.43-8.79,8.77-8.92c7.57-0.15,7.57-0.15,7.82-7.65c0.56-16.83,13.93-30.04,30.46-30.09
		c16.53-0.06,29.94,13.05,30.69,29.89c0.11,2.54-1.22,5.92,0.72,7.4c1.59,1.22,4.77,0.39,7.25,0.45c6.1,0.15,8.59,2.63,8.6,8.72
		c0.02,17.44,0.02,34.88,0,52.33c-0.01,6.18-2.65,8.79-8.93,8.8C233.33,267.12,220.63,267.1,207.92,267.1z"/>
	<path class="st1" fill="white" d="M117.35,156.68c11.86-18.44,26.84-32.31,46.24-41.09c59.7-27.02,137.68,6.83,150.31,78.73
		c1.01,5.77,1.61,11.6,1.65,17.48c0.03,5.2-2.84,8.67-7.17,8.66c-4.23-0.01-6.93-3.2-7.14-8.31c-1.41-34.14-16.23-60.81-45.49-78.53
		c-42.26-25.6-97.4-12.8-124.66,28.34c-0.67,1-1.61,1.91-1.7,3.47c4.12-0.67,8.16-1.34,12.2-1.98c4.41-0.71,8,1.56,8.77,5.51
		c0.84,4.29-1.5,7.67-6.22,8.51c-8.7,1.54-17.42,3-26.16,4.32c-4.7,0.71-7.31-0.95-8.94-5.4c-2.81-7.7-5.57-15.42-8.27-23.17
		c-1.57-4.5,0.06-8.38,3.96-9.87c4.02-1.54,7.84,0.5,9.62,5.15C115.3,151.02,116.21,153.57,117.35,156.68z"/>
	<path class="st5" fill="white" d="M298.07,270.22c-8.11,12.64-17.99,23.4-30.28,31.83c-62.49,42.87-151.19,6.53-165.6-67.82
		c-1.24-6.38-1.96-12.8-2.07-19.3c-0.09-5.3,2.64-8.71,6.97-8.83c4.38-0.11,7.17,3.12,7.32,8.48c1.07,38.5,24.01,71.44,59.34,85.2
		c40.48,15.77,87.11,0.92,110.94-35.35c0.6-0.92,1.13-1.89,1.98-3.33c-4.48,0.71-8.47,1.35-12.46,1.99
		c-4.46,0.72-8.06-1.45-8.88-5.36c-0.9-4.29,1.43-7.78,6.08-8.61c8.7-1.55,17.42-3,26.16-4.33c4.77-0.72,7.44,1.04,9.13,5.71
		c2.71,7.48,5.39,14.97,8,22.48c1.67,4.82,0.13,8.65-3.93,10.19c-3.99,1.51-7.22-0.15-9.39-4.93c-0.62-1.35-1.02-2.8-1.58-4.18
		C299.31,272.83,299.24,271.39,298.07,270.22z"/>
	<path class="st4" d="M207.91,197.24c-4.61,0-9.22,0.01-13.83-0.01c-1.07,0-2.14,0.24-2.51-1.44c-1.47-6.67,1.42-14.91,6.75-18.77
		c10.04-7.27,23.71-1.3,25.47,11.11c1.29,9.1,1.29,9.1-7.66,9.1C213.4,197.24,210.66,197.24,207.91,197.24z"/>
</g>
</svg>
