<?xml version="1.0" encoding="utf-8"?>
<!-- Generator: Adobe Illustrator 26.3.1, SVG Export Plug-In . SVG Version: 6.00 Build 0)  -->
<svg version="1.1" id="Capa_1" xmlns="http://www.w3.org/2000/svg" xmlns:xlink="http://www.w3.org/1999/xlink" x="0px" y="0px"
	 viewBox="0 0 426 426.5" style="enable-background:new 0 0 426 426.5;" xml:space="preserve">
<style type="text/css">
	.st0{fill:#1FC8A9;}
	.st1{fill:#A9EADD;}
	.st2{fill:#00C2A4;}
	.st3{fill:#F6F6F6;}
	.st4{fill:#F3F3F3;}
	.st5{fill:#828282;}
	.st6{fill:#E0E0E0;}
	.st7{fill:#FFFFFF;}
</style>
<g>
	<path class="st0" d="M212.57,394.6c-100.22-0.2-181.24-81.79-180.93-182.2c0.31-99.88,81.94-180.8,182.07-180.49
		c99.97,0.31,180.86,81.76,180.65,181.91C394.15,313.73,312.64,394.8,212.57,394.6z"/>
	<path class="st1" d="M212.4,380.88c-92.45-0.23-167.24-75.55-167.04-168.24c0.19-92.41,75.6-167.27,168.24-167.02
		c92.49,0.24,167.25,75.53,167.04,168.23C380.44,306.28,305.07,381.11,212.4,380.88z"/>
	<path class="st2" d="M295.9,175.56c-2.2,45.77-19.4,84.25-55.65,113.32c-4.08,3.28-8.79,5.8-13.27,8.57
		c-9.39,5.81-18.73,5.61-28.29,0.1c-24.94-14.37-42.21-35.61-54.35-61.18c-10.1-21.26-14.08-43.98-14.17-67.45
		c-0.03-7.29,3.34-12.15,9.93-14.92c22.36-9.39,44.73-18.76,67.1-28.11c4.44-1.85,8.88-1.41,13.22,0.39
		c21,8.72,42.01,17.42,62.96,26.25C294.42,157.2,296.07,160.47,295.9,175.56z"/>
	<path class="st3" d="M206.64,174.15c5.27,0,10.64-0.63,15.8,0.13c11.64,1.7,19.18,10.95,19.01,22.34
		c-0.17,11.41-8.52,20.97-20.15,22.09c-5.35,0.52-8.16,2.32-9.19,7.79c-1.25,6.63-6.91,3.51-10.69,3.72
		c-3.69,0.2-4.41-2.92-4.12-6.03c1.07-11.11,8.99-18.94,20.2-20.05c5.77-0.57,9.22-3.66,9.05-8.1c-0.17-4.49-3.57-7.09-9.72-7.18
		c-7.93-0.11-15.86-0.03-23.79-0.12c-3.63-0.04-6.74-1.21-8.1-4.96c-1.77-4.86,1.75-9.69,7.53-10c4.71-0.25,9.44-0.05,14.16-0.05
		C206.64,173.87,206.64,174.01,206.64,174.15z"/>
	<path class="st4" d="M213.97,243.91c-0.11,4.73-4.51,8.96-9.22,8.86c-4.89-0.1-8.88-4.27-8.78-9.18c0.1-4.97,4.14-8.86,9.12-8.76
		C210.02,234.93,214.08,239.08,213.97,243.91z"/>
</g>
</svg>
