<?xml version="1.0" encoding="UTF-8"?><svg id="Capa_1" xmlns="http://www.w3.org/2000/svg" viewBox="0 0 426 426.5">
<defs><style>
.cls-1{fill:#090909;}
.cls-2{fill:#606060;}
.cls-3{fill:#828282;font-family:Lato-Bold, Lato;font-size:84.96px;}
.cls-4{fill:#fefefe;}
</style></defs>
<g>
<path class="cls-2" fill='#606060'  d="M167.75,.28c2.8,1.03,5.76,1.75,8.37,3.13,10.67,5.68,15.66,14.84,15.66,26.8,.01,41.59,0,83.17,0,124.76,0,28.56,.04,57.11-.02,85.67-.03,14.62-8.86,25.89-22.61,28.88-2.67,.58-5.5,.59-8.26,.59-36.18,.04-72.36,.03-108.54,.02-16.16,0-25.07-6.42-30.34-21.78-.11-.33-.51-.57-.78-.85,0-74.64,0-149.29,0-223.93C21.87,12.33,33.29,.91,44.55,.28c41.07,0,82.13,0,123.2,0Z"/>
<path class="cls-2" fill='#606060' d="M404.76,291.61c0,34.68,0,69.35,0,104.03,0,19.08-11.76,30.85-30.82,30.85-36.34,0-72.68,.01-109.02,0-18.79,0-30.69-11.86-30.7-30.61-.01-69.63-.02-139.26,0-208.89,0-18.5,11.89-30.34,30.46-30.35,36.48-.03,72.96-.02,109.44,0,18.93,.01,30.63,11.68,30.64,30.53,.01,34.82,0,69.63,0,104.45Z"/>
<path class="cls-2" fill='#606060' d="M134.92,318.11c.04-3.18-.29-6.41,.71-9.5,3.5-10.81,17.39-13.85,25.72-5.39,10.6,10.77,20.9,21.83,31.33,32.76,3.06,3.21,6.21,6.34,9.19,9.62,5.42,5.98,5.59,13.21,.13,19.02-13.39,14.24-26.89,28.38-40.45,42.46-4.83,5.01-11.54,6.32-17.54,3.71-6.3-2.74-9-7.76-9.13-14.5-.08-4.1,1.81-9.53-.85-11.91-2.33-2.08-7.64-.85-11.63-1.03-37.11-1.65-66.54-26.18-76.91-64.19-1.09-3.99-2.05-8.06-2.59-12.16-.9-6.79,2.07-11.97,7.85-14.54,5.71-2.54,11.66-1.21,16.01,4.12,12.39,15.15,28.04,24.83,47.23,28.76,5.87,1.2,11.81,1.34,17.78,1.46,2.62,.05,3.46-.78,3.2-3.3-.19-1.78-.04-3.6-.04-5.4Z"/>
<path class="cls-2" fill='#606060' d="M291.07,108.31c0,1.52,.03,3.05,0,4.57-.16,6.58-3.02,11.53-9.23,13.97-6.21,2.45-12.07,1.39-16.89-3.32-4.76-4.65-9.25-9.57-13.84-14.38-8.8-9.23-17.62-18.44-26.38-27.71-6.19-6.55-6.27-13.8-.15-20.25,13.17-13.88,26.34-27.75,39.64-41.49,8.28-8.56,21.49-6.36,25.76,4.05,1.31,3.2,1.07,6.52,1.08,9.83q.03,9.02,8.78,9.3c41.31,1.33,72.11,27,81.58,68.04,.62,2.69,1.3,5.39,1.66,8.13,.92,6.95-1.98,12.43-7.77,15.03-5.76,2.59-11.8,1.14-16.3-4.39-9.31-11.43-20.77-19.82-34.56-25.03-9.44-3.56-19.25-4.87-29.3-5.04-3.25-.06-4.6,.77-4.11,4.12,.22,1.49,.04,3.04,.04,4.57Z"/>
<path class="cls-4" fill='#fefefe' d="M35.42,135.18c0-34.54,0-69.07,0-103.61,0-11.92,5.25-17.11,17.31-17.12,5.13,0,10.27,.13,15.39-.06,2.46-.09,3.04,.79,2.97,3.08-.1,3.3-.26,6.62,.72,9.9,2.72,9.11,10.41,15.25,19.9,15.39,9.71,.15,19.42,.15,29.12,.02,11.97-.17,20.89-9.2,21.13-21.14q.14-7.19,7.43-7.19c4.44,0,8.88-.05,13.31,.01,8.67,.12,14.53,5.9,14.87,14.59,.02,.42,0,.83,0,1.25,0,69.9,0,139.81,.02,209.71,0,5.3-1.48,9.83-5.81,13.13-2.62,2-5.62,2.82-8.93,2.81-37.59-.03-75.17,.02-112.76-.04-9.02-.01-14.67-6.06-14.68-15.47-.02-35.09,0-70.18,0-105.27Z"/>
<path class="cls-4" fill='#fefefe' d="M106.73,14.46c5.67,0,11.35,.27,16.99-.1,3.66-.24,4.63,1.07,4.09,4.36-.13,.81,.01,1.66-.03,2.48-.22,4.66-2.89,7.37-7.62,7.41-8.57,.09-17.14,.04-25.71,.03-6.96-.01-8.96-2.24-9.31-9.09-.21-3.97,.59-5.59,5.01-5.2,5.49,.47,11.05,.11,16.57,.11Z"/>
<path class="cls-4" fill='#fefefe' d="M390.57,292.1c0,34.53,0,69.06,0,103.59,0,11.11-5.48,16.62-16.55,16.63-36.33,0-72.66,0-108.99,0-11.07,0-16.61-5.53-16.62-16.59,0-69.47,0-138.95,0-208.42,0-10.99,5.39-16.44,16.24-16.47,5.55-.01,11.1,.1,16.64-.05,2.18-.06,2.86,.57,2.79,2.78-.1,3.16-.26,6.34,.6,9.5,2.5,9.27,10.27,15.86,19.82,16.07,9.98,.23,19.97,.25,29.95,0,11.78-.3,20.3-9.55,20.51-21.77q.11-6.53,6.49-6.53c4.58,0,9.15-.03,13.73,0,9.74,.07,15.38,5.75,15.39,15.6,.02,35.22,0,70.44,0,105.67Z"/>
<path class="cls-4" fill='#fefefe' d="M319.43,170.83c5.96,0,11.92,.11,17.87-.05,2.52-.07,3.57,.36,3.54,3.28-.09,9.07-1.81,10.96-10.91,10.96-7.76,0-15.52,.05-23.28-.02-6.72-.06-11.3-7.4-8.42-13.36,.68-1.4,1.93-.78,2.91-.79,6.1-.06,12.19-.03,18.29-.03Z"/>
<path class="cls-4" fill='#fefefe' d="M130.67,369.42c-18.07,.38-34.58-4.01-48.51-16.07-12.72-11.02-19.94-25.26-23.81-41.4-.18-.74-.88-1.7,.31-2.09,1.23-.41,1.51,.94,2.11,1.57,13.07,13.67,28.75,22.74,47.17,27.18,11.48,2.77,23.11,2.5,34.74,2.23,4.01-.1,6.35-3.08,6.45-7.72,.12-5.68-.03-11.37,0-17.06,0-1.04-.55-2.41,.66-3.03,1.3-.67,1.97,.64,2.69,1.39,12.46,13.03,24.87,26.1,37.39,39.08,1.51,1.56,1.05,2.36-.2,3.65-12.39,12.91-24.72,25.87-37.07,38.81-.73,.77-1.4,2-2.7,1.47-1.36-.56-.71-1.95-.72-2.96-.06-5.55,.05-11.1-.05-16.64-.1-5.77-2.68-8.27-8.47-8.38-3.33-.06-6.66-.01-9.99-.01Z"/>
<path class="cls-4" fill='#fefefe' d="M234.82,71.02c12.74-13.34,25.46-26.69,38.23-40,.88-.92,1.6-2.77,3.2-2.04,1.25,.57,.6,2.25,.61,3.43,.06,5.27-.02,10.54,.04,15.81,.07,6.41,2.44,8.8,8.82,8.8,11.09,0,22.2-.37,33.01,2.78,25.52,7.44,40.07,25.37,47.67,49.91,.77,2.48,1.26,5.05,2.11,8.51-4.19-3.97-7.5-7.44-11.15-10.52-17.4-14.66-37.6-21.87-60.3-22.24-3.74-.06-7.49-.05-11.23,0-6.49,.08-8.94,2.58-8.97,9.18-.03,5.27,.06,10.54,.01,15.81,0,1.02,.62,2.42-.67,2.99-1.51,.66-2.18-.83-2.99-1.68-11.79-12.33-23.55-24.68-35.33-37.02-.95-.99-1.97-1.92-2.96-2.88-.26-.17-.37-.35-.31-.55,.06-.21,.14-.31,.21-.31Z"/>
<path class="cls-1" fill='#090909' d="M234.82,71.02l.09,.86c-1.6-.12-2.28,1.42-3.75,1.68,.82-1.33,1.05-3.4,3.66-2.54Z"/>
<path class="cls-2" fill='#606060' d="M106.39,241.75c-6.65,0-13.3,.03-19.95,0-5.13-.03-8.47-2.91-8.4-7.15,.06-4.1,3.32-7,8.16-7.01,13.58-.05,27.16-.06,40.74,0,4.85,.02,7.96,2.97,7.91,7.18-.05,4.22-3.13,6.93-8.09,6.97-6.79,.05-13.58,.01-20.37,.01Z"/>
<path class="cls-2" fill='#606060' d="M63.8,39.38c0,7.14-2.18,10.52-6.89,10.64-4.85,.13-7.31-3.48-7.3-10.72,0-1.1-.05-2.21,.02-3.31,.29-4.37,3.43-7.47,7.37-7.31,3.86,.15,6.6,3.11,6.79,7.39,.05,1.1,0,2.2,.01,3.31Z"/>
<path class="cls-2" fill='#606060' d="M149.17,38.95c0-.83-.03-1.65,0-2.48,.19-4.68,2.8-7.65,6.82-7.79,4.09-.14,7.14,3,7.37,7.76,.11,2.2,.15,4.42-.05,6.61-.39,4.22-3.5,7.1-7.28,6.98-3.85-.12-6.58-3.04-6.83-7.36-.07-1.24-.01-2.48-.01-3.72h-.01Z"/>
<path class="cls-2" fill='#606060' d="M319.86,383.94c6.65,0,13.3-.04,19.95,.01,4.89,.04,8.1,2.84,8.14,6.96,.04,4.1-3.21,7.17-8,7.19-13.58,.07-27.16,.06-40.74,0-4.92-.02-8.03-2.86-8.08-7.05-.05-4.21,3.05-7.06,7.93-7.11,6.93-.06,13.86-.02,20.78-.02Z"/>
<path class="cls-2" fill='#606060' d="M362.2,195.44c0-.83-.02-1.66,0-2.5,.12-4.97,2.8-7.94,7.11-7.91,4.21,.03,6.95,3.12,7.08,8.04,.05,1.8,.07,3.61,0,5.41-.19,4.85-3.09,7.83-7.4,7.68-4.12-.14-6.65-3.06-6.77-7.82-.03-.97,0-1.94,0-2.91Z"/>
<path class="cls-2" fill='#606060' d="M276.83,195.73c0,.97,.04,1.94,0,2.91-.23,4.7-2.91,7.56-7.06,7.55-4.1,0-6.88-2.91-7.13-7.56-.11-2.07-.12-4.16,.01-6.23,.3-4.59,3.23-7.45,7.34-7.34,3.99,.11,6.57,2.88,6.82,7.36,.06,1.1,0,2.22,.01,3.32Z"/>
</g>
<text class="cls-3" fill='#828282' font-family='Lato-Bold, Lato' font-size='84.96px' transform="translate(78.6 166.41)">
<tspan x="0" y="0">1</tspan>
</text><text class="cls-3" fill='#828282' font-family='Lato-Bold, Lato' font-size='84.96px' transform="translate(294.91 327.6)"><tspan x="0" y="0">1</tspan></text></svg>