<?xml version="1.0" encoding="utf-8"?>
<!-- Generator: Adobe Illustrator 26.3.1, SVG Export Plug-In . SVG Version: 6.00 Build 0)  -->
<svg version="1.1" id="Capa_1" xmlns="http://www.w3.org/2000/svg" xmlns:xlink="http://www.w3.org/1999/xlink" x="0px" y="0px"
	 viewBox="0 0 426 426.5" style="enable-background:new 0 0 426 426.5;" xml:space="preserve">
<style type="text/css">
	.st0{fill:#1FC8A9;}
	.st1{fill:#A9EADD;}
	.st2{fill:#F6F6F6;}
	.st3{fill:#87D8C9;}
	.st4{fill:#F7F5F5;}
	.st5{fill:#DFDFDF;}
	.st6{fill:#E0E0E0;}
	.st7{fill:#F6F4F4;}
	.st8{fill:#F5F3F3;}
	.st9{fill:#B9D2F9;}
	.st10{fill:#CEDFF2;}
	.st11{fill:#CEDFF1;}
	.st12{fill:#828282;}
	.st13{fill:#CCCCCC;}
	.st14{fill:#AAAAAA;}
	.st15{fill:#FFFFFF;}
	.st16{fill:#F4F4F4;}
	.st17{fill:#EFEFEF;}
</style>
<g>
	<path class="st0" fill='#1FC8A9' d="M77.34,83.7c-0.27-3.41,1.63-5.12,4.59-6.23c14.65-5.5,28.71-4.31,41.95,4.02c2.71,1.7,4.22,1.68,6.81-0.25
		c29.87-22.38,63.55-31.21,100.45-26.62c23.64,2.95,45.15,11.96,64.12,26.55c2.51,1.93,4.02,2.14,6.79,0.37
		c21.92-14.04,50.3-7.49,64.03,14.58c13.48,21.68,6.65,50.07-15.57,63.36c-3.85,2.3-3.36,4.61-2.76,8.07
		c10.9,63.26-24.94,126.34-85.12,149.69c-3.34,1.3-3.95,2.79-3.79,6.11c1.48,31.77-23.4,53.93-54.8,49
		c-21.22-3.33-37.54-23.62-36.81-46.62c0.17-5.33-1.39-7.46-6.17-9.56c-47.71-21.01-75.69-57.45-83.61-108.96
		c-2.11-13.7-1.58-27.59,1.22-41.23c0.66-3.2-0.2-4.63-2.86-6.24C53.36,146.18,46.38,117.56,59.94,96c2.07-3.29,4.34-4.88,8.16-3.45
		c4.56,2,3.32,5.35,1.51,8.27c-3.06,4.92-4.75,10.22-5.67,15.87c-1.05,6.49,1.44,16.56,5.76,22.46c2.94-3.62,5.55-7.46,9.38-10.16
		c2.15-1.52,1.15-3.42,0.37-5.36c-4.88-12.23,1.43-25.55,13.75-29.15c15.47-4.52,30.55,8.74,26.55,24.59
		c-1.8,7.13-0.57,11.04,4.86,14.7c1.41,1.58,1.89,3.87,4.18,5.45c5.87-9.75,7.62-19.84,3.66-30.49
		c-4.7-12.64-13.58-20.67-27.11-23.07c-6.88-1.7-13.39-0.16-19.89,2.06C80.68,89.37,78.99,88.43,77.34,83.7z"/>
	<path class="st1" fill='#A9EADD' d="M123.92,134.64c-0.52-0.4-1-0.87-1.57-1.19c-5.61-3.1-7.25-6.33-4.01-13.16c3.81-8.04-1.14-18.08-8.92-22.66
		c-7.67-4.52-17.48-3.44-23.98,2.65c-6.71,6.29-8.63,16.1-4.04,24.08c1.75,3.04,1.58,4.25-1.4,5.9c-4.62,2.56-7.38,6.95-9.79,11.6
		c-9.48-10.33-10.41-27.18-2.23-40.83c1.8-3,2.8-5.6,0.12-8.47c2.78-3.27,7.15-4.88,9.24-8.86c1.93,3.34,4.33,4.19,8.13,2.59
		c6.59-2.78,13.51-3.89,20.61-1.79c14.57,6.48,20.07,18.83,21.31,33.65C127.86,123.86,127.88,129.74,123.92,134.64z"/>
	<path class="st2" fill='#F6F6F6' d="M215.15,83.49c22.65,0.38,44.69,7.92,64.04,23.15c1.73,1.36,3.08,2.47,2.55,5.26
		c-4.35,22.96,9.13,45.44,31.34,52.22c2.59,0.79,3.63,1.7,4.23,4.43c11.52,52.22-20.62,107.37-71.71,123
		c-1.86,0.57-2.94,0.41-4.45-0.66c-18.78-13.19-37.62-13.22-56.26,0.02c-1.83,1.3-3.12,1.08-4.93,0.45
		c-35.48-12.37-58.64-36.64-69.47-72.48c-5.04-16.67-5.31-33.7-1.71-50.8c0.5-2.35,1.41-3.17,3.64-3.83
		c22.54-6.71,36.23-29.18,31.84-52.32c-0.52-2.76,0.81-3.88,2.53-5.28C164.96,91.92,189.28,83.43,215.15,83.49z"/>
	<path class="st1" fill='#A9EADD' d="M175.4,299.77c-6.85,12.18-2.92,11.73-15.16,5.96c-40.46-19.04-64.62-50.99-72.82-94.86
		c-2.52-13.49-1.97-27.14-0.27-40.76c0.58-4.64,2.6-4.46,6.46-4.36c5.63,0.14,5.98,2.17,4.92,6.89c-1.04,4.66-1.29,9.57-1.35,14.38
		c-0.65,50.86,28.49,93.75,75.98,112C173.88,299.29,174.62,299.51,175.4,299.77z"/>
	<path class="st1" fill='#A9EADD' d="M288.17,94.8c-1.27,3.96-2.56,4.95-6.67,1.93c-41.52-30.54-97.34-30.04-138.41,0.94
		c-0.79,0.59-1.6,1.15-2.4,1.72c-6.94-9.48-7.04-9.64,2.77-15.79c36.63-22.96,75.27-27,115.86-12.02c0.28,0.1,0.48,0.42,0.72,0.64
		c8.88,4.71,17.53,9.8,25.13,16.46C287.04,90.31,289.26,91.74,288.17,94.8z"/>
	<path class="st1" fill='#A9EADD' d="M237.25,341.22c-6.02-3.4-8.65-6.89-4.98-14.65c3.68-7.77-1.58-17.73-9.2-22.1
		c-7.36-4.22-17.4-3.06-23.66,2.71c-6.69,6.18-8.65,15.72-4.4,23.64c1.64,3.06,2.14,4.75-1.53,6.68c-4.5,2.36-7.1,6.8-9.46,11.31
		c-9.15-10.2-10.23-27.23-2.73-40.07c7.94-13.59,23.91-20.75,38.72-17.36c15.61,5.08,25.54,29.89,19.74,47.14
		C239.34,339.75,238.97,341.16,237.25,341.22z"/>
	<path class="st1" fill='#A9EADD' d="M351.18,134.33c-6.31-3.51-8.64-7.2-4.91-15.09c3.26-6.91-0.32-14.37-6.38-19.53
		c-6.23-5.31-13.52-6.45-20.96-3.19c-7.17,3.14-11.54,8.73-12.03,16.88c-0.27,4.42,0.29,8.62,2.9,12.34
		c0.96,1.36,1.55,2.45-0.5,3.48c-5.41,2.73-8.79,7.41-11.44,12.75c-9.47-11-10.27-28.07-2.07-41.24
		c8.1-13.02,24.11-19.82,38.17-16.23c15.96,5.68,26.07,30.86,19.25,47.97C352.84,133.4,352.43,134.35,351.18,134.33z"/>
	<path class="st3" fill='#87D8C9' d="M328.94,166.45c8.97-1.26,8.97-1.26,10.11,7.64c7.43,57.71-24.79,112.64-78.72,134.08
		c-1.54,0.61-3.34,2.61-5.1,0.15c5.05-3.81,10.95-6.17,16.14-9.81c22.41-15.71,38.94-35.97,49.18-61.46
		c5.13-12.77,7.69-26.01,9.27-39.56c0.43-8.86,0.14-17.65-1.7-26.36C327.78,169.53,327.74,167.84,328.94,166.45z"/>
	<path class="st1" fill='#A9EADD' d="M329.97,198.37c-1.17,27.21-10.67,51.37-27.33,72.66c-11.55,14.76-25.42,27.01-42.27,35.59
		c-1.62,0.83-3.19,1.83-5.13,1.7c-4.8-8.16-4.73-8.01,3.5-11.8c40.08-18.44,63.17-49.57,69.4-93.23c0.28-1.97,0.59-3.94,0.88-5.91
		C329.87,197.18,330.38,197.33,329.97,198.37z"/>
	<path class="st4" fill='#F7F5F5' d="M111.04,154.26c-7.84,4.53-25.88,2.54-31.98-3.36c-1.29-1.25-0.84-2.3-0.54-3.55
		c1.55-6.55,7.4-11.58,14.14-11.88c3.79-0.17,7.6,0.06,11.41,0.1C110.17,139.05,113.63,148.31,111.04,154.26z"/>
	<path class="st4" fill='#F7F5F5' d="M337.92,155.13c-10.16,3.19-19.87,1.96-29.22-2.96c-2.6-1.37-3.39-2.99-2.22-5.97
		c2.61-6.63,7.89-10.66,15.06-10.77c3.47-0.05,6.94,0.1,10.41,0.16C338.51,139.64,341.13,148.21,337.92,155.13z"/>
	<path class="st4" fill='#F7F5F5' d="M223,362.24c-10.07,3.51-19.47,1.43-28.58-3.37c-2.38-1.25-2.83-2.96-1.91-5.32
		c1.94-5.01,4.95-8.89,10.44-10.28c4.77-1.04,9.59-0.22,14.38-0.43c1.6-0.07,2.83,0.74,3.92,1.87
		C226.05,349.64,226.88,357.83,223,362.24z"/>
	<path class="st3" fill='#87D8C9' d="M123.92,134.64c1.67-6.93,2.98-13.85,1.72-21.05c-2.21-12.63-9-22.12-19.56-29.1
		c23.6,2.87,37.25,31.62,25.26,53.23c-0.8,1.44-1.72,2.82-2.83,4.63C126.87,139.6,125.39,137.12,123.92,134.64z"/>
	<path class="st3" fill='#87D8C9' d="M237.25,341.22c6.49-15.61,0.83-36.27-12.59-46.1c-1.6-1.17-3.1-2.48-4.65-3.72
		c26.31,4.83,38.32,35.3,22.3,57.6C240.57,346.33,238.91,343.78,237.25,341.22z"/>
	<path class="st3" fill='#87D8C9' d="M351.18,134.33c6.43-15.53,2.3-36.34-17.23-49.81c23.5,3.45,39.61,33.57,22.23,57.52
		C354.45,139.38,352.82,136.86,351.18,134.33z"/>
	<path class="st5" fill='#DFDFDF' d="M209,312.31c5.08-1.95,9.69-0.75,12.69,3.28c3.06,4.12,2.92,9.41-0.35,13.34c-3.29,3.94-7.95,4.78-13.34,2.39
		C214.08,325.36,214.31,321.06,209,312.31z"/>
	<path class="st6" fill='#E0E0E0' d="M94.98,105.38c4.84-2.39,8.99-1.09,12.36,2.72c3.16,3.56,3.76,7.8,1.36,11.96c-2.53,4.38-6.33,6.68-11.64,5.31
		c-1.08-1.27-0.41-2.53,0.11-3.72C99.75,115.76,98.99,110.36,94.98,105.38z"/>
	<path class="st6" fill='#E0E0E0' d="M322.77,105.33c4.89-2.34,9.06-0.99,12.37,2.87c3.11,3.63,3.37,7.87,1.14,12.08
		c-2.31,4.36-6.48,5.97-12.32,5.02c-0.35-0.84-0.17-1.67,0.26-2.38C328.06,116.69,326.85,110.89,322.77,105.33z"/>
	<path class="st7" fill='#F6F4F4' d="M322.77,105.33c4.47,2.19,6.67,9.1,4.42,14.44c-0.82,1.95-2.14,3.69-3.23,5.53
		c-5.17-1.38-7.78-5.07-7.91-10.09C315.93,110.63,318.06,106.95,322.77,105.33z"/>
	<path class="st8" fill='#F5F3F3' d="M94.98,105.38c4.51,2.01,6.45,7.5,4.66,13.72c-0.62,2.16-1.7,4.18-2.57,6.26c-5.32-0.77-8.02-4.3-8.56-9.2
		C87.96,111.21,89.95,107.25,94.98,105.38z"/>
	<path class="st8" fill='#F5F3F3' d="M209,312.31c5.6,2.38,5.35,7.35,4.87,12.02c-0.34,3.32-1,7.12-5.87,6.98c-4.25-1.92-6.04-5.5-5.77-9.85
		C202.49,317.15,204.47,313.67,209,312.31z"/>
	<path class="st5" fill='#DFDFDF' d="M223,362.24c2.55-6.5,0.73-12.16-3.29-17.43c-1.19-1.56-2.8-1.5-4.44-1.5c-4.11-0.01-8.21-0.02-12.32-0.03
		c6.83-1.76,13.68-1.4,20.51-0.06c0.79,0.15,1.56,0.57,2.27,0.98c4.56,2.63,8.63,6.58,7.88,11.67
		C232.91,360.58,227.17,361.04,223,362.24z"/>
	<path class="st6" fill='#E0E0E0' d="M337.92,155.13c0.89-7.39-0.97-13.95-5.96-19.55c7.07,0.02,12.59,3.81,15.06,9.95
		c1.36,3.38,0.85,5.65-2.72,6.97C342.14,153.3,340.04,154.25,337.92,155.13z"/>
	<path class="st6" fill='#E0E0E0' d="M111.04,154.26c0.26-7.19-2.3-13.34-6.98-18.68c5.04-0.61,8.96,1.58,12.2,5.12c2.35,2.57,4.93,6,3.5,9.15
		C118.46,152.72,114.71,154.24,111.04,154.26z"/>
	<path class="st9" fill='#B9D2F9' d="M288.17,94.8c-2.57-6.29-8.94-8.49-13.56-12.57c-4.45-3.93-10.47-5.58-14.57-10.02
		c10.96,3.61,20.6,9.65,29.74,16.5C293.68,91.63,288.88,92.8,288.17,94.8z"/>
	<path class="st10" fill='#CEDFF2' d="M329.97,198.37c-0.32-0.33-0.64-0.66-0.96-0.99c0.01-0.67,0.02-1.35,0.03-2.02c0.7-2.99,0.67-5.98,0.01-8.97
		c-0.66-5.42-1.42-10.84-1.9-16.28c-0.11-1.27-1.91-4.01,1.79-3.66c0.4,8.93,2.6,17.72,1.99,26.72
		C330.81,194.93,331.54,196.87,329.97,198.37z"/>
	<path class="st11" fill='#CEDFF1' d="M329.04,186.39c1.41,2.99,1.43,5.98-0.01,8.97C329.04,192.37,329.04,189.38,329.04,186.39z"/>
	<path class="st0" fill='#1FC8A9' d="M183.03,138.34c-0.92-4.04,1.07-6.04,4.66-7.52c40.54-16.74,86.11,9.98,91.4,53.67
		c4.43,36.6-19.89,68.27-57.17,74.42c-33.5,5.53-67.54-18.56-74.38-53.24c-4.37-22.15,1.64-41.76,16.64-58.63
		c2.56-2.88,5.28-3.9,8.68-1.54c3.78,2.75,1.77,5.6-0.12,8.12c-3.19,4.25-6.88,8.1-9.25,12.95c-8.99,18.4-8.43,36.54,1.34,54.47
		c0.32,0.58,0.68,1.14,0.77,1.95c1.05-11.86,6.58-20.46,17.97-24.3c4.09-1.38,3.68-2.56,1.88-5.74
		c-12.36-21.85,3.42-47.77,27.7-47.75c12.61,0.01,22.31,6.12,28.19,17.48c5.6,10.83,4.58,21.49-1.54,31.83
		c-0.5,0.85-1.35,1.45-1.78,2.77c8.82,1.99,15.84,6.48,19.85,14.9c1.25,3.76,3,7.42,2.24,11.22c9.23-15.48,11.8-32.35,5.52-49.59
		c-6.25-17.14-18.29-29.12-36.21-34.43c-12.33-3.87-24.48-3.2-36.6,1.11C189.34,141.7,185.31,143.42,183.03,138.34z"/>
	<path class="st1" fill='#A9EADD' d="M183.03,138.34c2.35,2.53,4.81,2.58,8.04,1.31c12.72-5.04,25.7-6.08,38.85-1.5
		c20.73,10.89,29.94,29.08,32.29,51.45c0.72,6.83-0.93,13.51-2.52,20.12c-0.33,1.38-0.84,2.96-2.83,2.93
		c-4.78-7.99-11.46-13.22-21.54-14.36c6.71-8.34,9.78-17.3,7.53-27.55c-1.58-7.24-5.33-13.21-11.2-17.77
		c-11.76-9.13-28.46-8.37-39.35,1.73c-12.14,11.26-12.92,26.98-2.14,43.19c-16.81,4.16-22.64,13.15-23.59,28.12
		c-6.37-8.34-9.63-17.41-10.6-27.23c-1.71-17.31,3.29-32.53,15.17-45.34c2.25-2.43,3.59-4.78,1.69-7.96
		C175.87,142.58,179.37,140.34,183.03,138.34z"/>
	<path class="st4" fill='#F7F5F5' d="M239.97,243.11c-1.61,0.58-1.54-0.56-1.56-1.55c-0.04-2.49,0.06-4.99-0.1-7.47c-0.19-2.87-1.79-4.79-4.73-4.67
		c-2.86,0.11-4.47,2.01-4.57,4.9c-0.1,3.15-0.31,6.34,0.04,9.46c0.4,3.5-1.28,4.63-4.29,5.16c-7.93,1.41-15.81,1.44-23.73-0.05
		c-2.89-0.54-4.37-1.6-4.04-4.86c0.31-3.12,0.12-6.31,0.05-9.46c-0.07-3.11-1.68-5.15-4.83-5.13c-2.96,0.01-4.32,2.07-4.53,4.91
		c-0.05,0.66,0.12,1.37-0.06,1.98c-0.67,2.29,1.8,5.5-1.4,6.83c-1.78,0.74-10.01-6.07-9.97-7.96c0.11-4.96-0.65-9.94,0.59-14.87
		c1.71-6.78,5.73-11.02,12.76-12.13c14.13-0.71,28.26-0.13,42.4-0.31c2.41-0.03,4.1,1.24,5.43,3.04c1.9,2.58,3.28,5.44,3.74,8.63
		c0.95,6.62,0.55,13.28,0.34,19.93C241.44,240.84,240.77,242.02,239.97,243.11z"/>
	<path class="st4" fill='#F7F5F5' d="M208.69,197.51c-10.92-1.73-18.06-12-16.58-23.83c1.34-10.67,11.69-18.49,22.9-17.28
		c3.04,1.3,5.07,3.63,6.66,6.44c5.11,9.06,5.52,18.36,0.75,27.55C219.64,195.72,215.41,199.29,208.69,197.51z"/>
	<path class="st3" fill='#87D8C9' d="M256.87,212.64c5.13-12.11,4.91-24.43,1.42-36.87c-4.11-14.66-12.59-26.15-25.15-34.7
		c-1.2-0.82-2.77-1.27-3.22-2.93c20.9,6.43,33.71,20.73,38.86,41.58c4.06,16.4,0.85,31.84-9.65,46.98
		C259.27,221.02,258.18,216.8,256.87,212.64z"/>
	<path class="st6" fill='#E0E0E0' d="M208.69,197.51c6.77,0.72,10.38-3.53,13.06-8.73c4.75-9.24,2.93-21.09-4.2-29.34c-0.86-1-1.69-2.03-2.54-3.04
		c8.55,0.4,14.21,5.07,17.4,12.59c3.38,7.99,2.23,15.71-3.69,22.16C223.38,196.97,216.78,199.83,208.69,197.51z"/>
	<path class="st6" fill='#E0E0E0' d="M239.97,243.11c0.01-6.32-0.1-12.64,0.07-18.95c0.14-5.08-1.92-9.3-4.43-13.44c-1.47-2.42-3.79-2.28-6.16-2.29
		c-13.29-0.06-26.58-0.15-39.88-0.23c1.32-1.01,2.86-0.67,4.33-0.68c12.46-0.03,24.91-0.07,37.37,0
		c11.95,0.07,18.49,6.63,18.59,18.46c0,0.5-0.09,1.02,0.01,1.49C251.75,235.97,247.04,240.29,239.97,243.11z"/>
</g>
</svg>
