<?xml version="1.0" encoding="utf-8"?>
<!-- Generator: Adobe Illustrator 26.3.1, SVG Export Plug-In . SVG Version: 6.00 Build 0)  -->
<svg version="1.1" id="Capa_1" xmlns="http://www.w3.org/2000/svg" xmlns:xlink="http://www.w3.org/1999/xlink" x="0px" y="0px"
	 viewBox="0 0 426 426.5" style="enable-background:new 0 0 426 426.5;" xml:space="preserve">
<style type="text/css">
	.st0{fill:#1FC8A9;}
	.st1{fill:#F6F6F6;}
	.st2{fill:#ECE3ED;}
	.st3{fill:#F0ECF1;}
	.st4{fill:#EFE9F0;}
	.st5{fill:#828282;}
	.st6{fill:#FFFFFF;}
</style>
<g>
	<path class="st0" fill='#1FC8A9' d="M213.25,88.2c46.3,0,92.6-0.01,138.9,0c14.31,0,20.78,6.44,20.79,20.65c0,69.6,0,139.2,0,208.81
		c0,14.21-6.48,20.64-20.79,20.64c-92.76,0-185.53,0-278.29,0c-14.31,0-20.79-6.43-20.79-20.64c0-69.6,0-139.2,0-208.81
		c0-14.21,6.47-20.65,20.79-20.65C120.32,88.19,166.79,88.2,213.25,88.2z"/>
	<path class="st1" fill='#F6F6F6' d="M212.99,174.51c46.47,0,92.93,0.08,139.4-0.12c4.72-0.02,5.67,1.39,5.66,5.82
		c-0.16,45.46-0.1,90.92-0.1,136.38c0,6.7-0.01,6.71-6.53,6.71c-92.27,0-184.53,0-276.8,0c-6.55,0-6.55-0.01-6.56-6.68
		c0-45.29,0.07-90.59-0.11-135.88c-0.02-4.83,0.86-6.4,6.14-6.37C120.38,174.62,166.69,174.51,212.99,174.51z"/>
	<path class="st1" fill='#F6F6F6' d="M212.99,159.52c-46.46,0-92.92-0.07-139.39,0.11c-4.69,0.02-5.74-1.35-5.65-5.8
		c0.28-14.48,0.1-28.97,0.1-43.45c0-7.19,0-7.19,7.06-7.19c87.93,0,175.86,0,263.78,0c4.66,0,9.34,0.2,13.99-0.06
		c4.01-0.22,5.16,1.43,5.12,5.27c-0.16,15.32-0.21,30.64,0.03,45.95c0.07,4.09-0.93,5.28-5.16,5.27
		C306.25,159.46,259.62,159.52,212.99,159.52z"/>
	<path class="st0" fill='#1FC8A9' d="M212.76,242.4c-34.31,0-68.62,0-102.93,0c-8.38,0-10.73-2.31-10.74-10.55c-0.01-11.16-0.03-22.31,0.01-33.47
		c0.02-7.22,2.74-9.98,9.95-9.98c69.29-0.02,138.57-0.02,207.86,0c7.26,0,9.96,2.73,9.99,9.95c0.04,11.49,0.05,22.98,0,34.47
		c-0.03,6.93-2.71,9.57-9.7,9.58C282.38,242.41,247.57,242.4,212.76,242.4z"/>
	<path class="st0" fill='#1FC8A9' d="M212.93,277.35c-34.96,0-69.92-0.02-104.88,0.03c-3.44,0-6.14-0.92-7.92-4.07c-1.51-2.66-1.07-5.09,0.48-7.5
		c1.36-2.11,3.42-3.12,5.83-3.39c1.32-0.15,2.66-0.06,3.99-0.06c68.42,0,136.85,0,205.27,0.01c1.98,0,3.99-0.26,5.92,0.53
		c3.49,1.42,5.53,4.1,5.1,7.71c-0.45,3.73-2.79,6.37-6.91,6.68c-1.66,0.12-3.33,0.06-4.99,0.06
		C280.85,277.35,246.89,277.35,212.93,277.35z"/>
	<path class="st0" fill='#1FC8A9' d="M212.99,309.5c-34.15,0-68.3,0-102.45,0c-7.63,0-11.43-2.47-11.4-7.36c0.03-4.84,4.15-7.63,11.41-7.63
		c68.3-0.01,136.6,0,204.9,0c0.5,0,1-0.01,1.5,0c5.98,0.16,9.89,3.18,9.9,7.64c0.01,4.57-3.61,7.33-9.92,7.34
		C282.29,309.51,247.64,309.5,212.99,309.5z"/>
	<path class="st0" fill='#1FC8A9' d="M294.5,124.12c14.3,0,28.6-0.02,42.9,0.01c5.85,0.01,9.38,2.8,9.38,7.29c0,4.34-3.84,7.66-9.33,7.67
		c-29.1,0.05-58.19,0.06-87.29-0.01c-5.52-0.01-9.24-3.42-9.1-7.85c0.14-4.34,3.56-7.09,9.04-7.1
		C264.91,124.1,279.71,124.12,294.5,124.12z"/>
	<path class="st0" fill='#1FC8A9' d="M96.54,114.21c9.86-0.04,17.42,7.39,17.47,17.18c0.05,9.57-7.95,17.63-17.38,17.49
		c-9.43-0.14-17.6-8.4-17.46-17.65C79.31,121.99,87.21,114.25,96.54,114.21z"/>
	<path class="st0" fill='#1FC8A9' d="M138.02,114.2c9.78,0.05,17.24,7.63,17.18,17.45c-0.06,9.35-7.79,17.11-17.13,17.2
		c-9.51,0.1-17.37-7.77-17.4-17.41C120.64,121.7,128.24,114.15,138.02,114.2z"/>
	<path class="st0" fill='#1FC8A9' d="M161.96,131.58c-0.05-9.95,7.27-17.39,17.1-17.38c9.86,0.01,17.28,7.44,17.29,17.32
		c0,9.38-7.57,17.12-16.97,17.34C169.88,149.08,162.01,141.28,161.96,131.58z"/>
	<path class="st1" fill='#F6F6F6' d="M213.02,227.41c-30.81,0-61.62,0.02-92.43-0.02c-7.52-0.01-6.41,0.9-6.5-6.74c-0.05-4.33,0.23-8.68-0.08-12.98
		c-0.27-3.65,1.16-4.39,4.54-4.37c20.98,0.14,41.97,0.07,62.95,0.07c41.3,0,82.61-0.02,123.91,0.02c7.47,0.01,6.42-0.99,6.5,6.74
		c0.05,4.33-0.23,8.68,0.08,12.98c0.26,3.64-1.18,4.38-4.54,4.36C275.97,227.37,244.49,227.41,213.02,227.41z"/>
	<path class="st2" fill='#ECE3ED' d="M98.99,131.57c-0.13,1.41-1.07,2.18-2.3,2.11c-1.44-0.08-2.56-1.02-2.29-2.62c0.21-1.22,1.18-1.96,2.54-1.83
		C98.34,129.37,98.93,130.25,98.99,131.57z"/>
	<path class="st3" fill='#F0ECF1' d="M138.13,133.55c-1.35,0.04-2.23-0.57-2.32-1.95c-0.08-1.29,0.47-2.25,1.92-2.33c1.33-0.07,2.22,0.54,2.36,1.93
		C140.22,132.61,139.44,133.31,138.13,133.55z"/>
	<path class="st4" fill='#EFE9F0' d="M178.9,129.25c1.51-0.01,2.27,0.74,2.31,2.1c0.03,1.3-0.6,2.28-2,2.3c-1.32,0.02-2.17-0.69-2.2-2.11
		C176.97,130.18,177.59,129.36,178.9,129.25z"/>
</g>
</svg>
