<?xml version="1.0" encoding="utf-8"?>
<!-- Generator: Adobe Illustrator 26.3.1, SVG Export Plug-In . SVG Version: 6.00 Build 0)  -->
<svg version="1.1" id="Capa_1" xmlns="http://www.w3.org/2000/svg" xmlns:xlink="http://www.w3.org/1999/xlink" x="0px" y="0px"
	 viewBox="0 0 426 426.5" style="enable-background:new 0 0 426 426.5;" xml:space="preserve">
<style type="text/css">
	.st0{fill:#1FC8A9;}
	.st1{fill:#F6F6F6;}
	.st2{fill:#E8F7F3;}
	.st3{fill:#A9EADD;}
	.st4{fill:#DAE5E2;}
	.st5{fill:#828282;}
	.st6{fill:#F4F4F4;}
	.st7{fill:#E2E2E2;}
	.st8{fill:#FFFFFF;}
	.st9{fill:#EDEDED;}
	.st10{fill:#F5F5F5;}
	.st11{fill:#B2B2B2;}
</style>
<g>
	<g>
		<g>
			<path class="st0" fill='#1FC8A9' d="M92.17,194.73c0-42.98,0-85.95,0-128.93c0-9.26,3.28-12.5,12.63-12.5c67.46,0,134.93,0,202.39,0
				c9.41,0,12.65,3.2,12.65,12.54c0.01,57.47,0.05,114.94-0.09,172.4c-0.01,3.92,0.99,5.29,4.95,6.01
				c25.42,4.59,46.86,28.62,50.53,54.05c5.04,34.93-19.17,66.16-50.26,73.37c-26.76,6.2-57.21-6.72-71.25-32.1
				c-1.73-3.14-3.61-3.98-6.96-3.98c-47.14,0.1-94.28,0.07-141.42,0.06c-10.07,0-13.16-3.06-13.16-12.99
				C92.16,280.02,92.17,237.37,92.17,194.73z"/>
			<path class="st1" fill='#F6F6F6' d="M206.11,72.23c30.14,0,60.28,0.07,90.42-0.09c3.68-0.02,4.64,0.79,4.63,4.58
				c-0.14,54.12-0.13,108.23-0.02,162.35c0.01,3.25-0.79,4.5-4.15,5.12c-25.91,4.77-47.67,28.12-50.89,54.17
				c-0.68,5.47-1.55,10.9-0.23,16.36c0.54,2.25-0.63,2.48-2.4,2.42c-2.5-0.08-4.99-0.02-7.49-0.02c-39.96,0-79.93-0.04-119.89,0.07
				c-3.59,0.01-5.04-0.48-5.04-4.69c0.15-78.59,0.14-157.19,0.02-235.78c-0.01-3.79,0.96-4.59,4.64-4.57
				C145.84,72.3,175.98,72.23,206.11,72.23z"/>
			<path class="st1" fill='#F6F6F6' d="M311.76,356.12c-27.64,0-49.72-22.07-49.66-49.63c0.05-22.17,14.18-49.81,49.93-49.64
				c27.11,0.13,49.25,22.43,49.29,49.64C361.36,334.25,339.51,356.12,311.76,356.12z"/>
			<path class="st2" fill='#E8F7F3' d="M209.56,72.23c29.05,0,58.09,0.07,87.14-0.09c3.55-0.02,4.48,0.79,4.47,4.58
				c-0.14,54.12-0.12,108.23-0.02,162.35c0.01,3.25-0.76,4.5-4,5.12c-24.97,4.77-45.94,28.12-49.05,54.17
				c-0.65,5.47-1.49,10.9-0.23,16.36c0.52,2.25-0.61,2.48-2.31,2.42c-2.4-0.08-4.81-0.02-7.22-0.02c-38.51,0-77.03-0.04-115.54,0.07
				c-3.46,0.01-4.86-0.48-4.85-4.69c0.15-78.59,0.14-157.19,0.01-235.78c-0.01-3.79,0.93-4.59,4.47-4.57
				C151.47,72.3,180.52,72.23,209.56,72.23z"/>
			<path class="st3" fill='#A9EADD' d="M239.59,119.26c-10.49,0-20.98,0.04-31.48-0.02c-6.24-0.03-10.02-3.58-10.05-9.21
				c-0.02-5.59,3.73-9.39,9.94-9.42c21.32-0.11,42.63-0.1,63.95,0c6.22,0.03,10.08,3.82,10.11,9.32c0.03,5.77-3.89,9.3-10.5,9.32
				C260.91,119.29,250.25,119.26,239.59,119.26z"/>
			<path class="st3" fill='#A9EADD' d="M239.98,213.11c10.49,0,20.98-0.04,31.47,0.02c6.61,0.04,10.58,3.58,10.61,9.26
				c0.03,5.64-3.98,9.5-10.5,9.53c-20.98,0.11-41.96,0.1-62.95,0c-6.81-0.03-10.73-3.94-10.54-9.92c0.18-5.64,4.08-8.85,10.93-8.88
				C219.33,213.07,229.66,213.1,239.98,213.11z"/>
			<path class="st3" fill='#A9EADD' d="M240.1,175.52c-10.49,0-20.98,0.04-31.46-0.01c-6.72-0.04-10.54-3.44-10.56-9.22
				c-0.02-5.92,3.56-9.24,10.42-9.27c20.98-0.07,41.95-0.06,62.93,0c6.82,0.02,10.6,3.39,10.63,9.13c0.04,5.87-3.98,9.34-11,9.37
				C260.74,175.55,250.42,175.52,240.1,175.52z"/>
			<path class="st0" fill='#1FC8A9' d="M129.96,220.74c-0.11-4.47,1.92-7.24,5.59-8.88c3.76-1.68,7.07-0.74,10.1,1.84
				c5.75,4.91,5.76,4.89,11.31-0.64c2.47-2.46,4.82-5.05,7.44-7.33c4.03-3.51,9.53-3.26,13.03,0.35c3.38,3.49,3.79,8.9,0.26,12.63
				c-6.73,7.1-13.68,14.01-20.8,20.72c-3.25,3.06-8.6,2.93-11.87-0.08c-4.51-4.15-8.77-8.57-13.02-13
				C130.47,224.77,129.72,222.71,129.96,220.74z"/>
			<path class="st0" fill='#1FC8A9' d="M139,267.25c4.19-0.17,6.85,2.49,9.17,5.29c2.17,2.62,3.59,2.31,5.7-0.06c3.09-3.47,6.46-6.7,9.84-9.89
				c4.46-4.2,9.91-4.24,13.73-0.26c3.64,3.79,3.59,9.16-0.46,13.37c-6.22,6.46-12.55,12.82-18.97,19.08
				c-4.09,3.98-9.41,4.16-13.42,0.44c-4.26-3.95-8.33-8.11-12.33-12.33c-2.8-2.95-3.11-6.62-1.53-10.19
				C132.26,269.25,135.22,267.49,139,267.25z"/>
			<path class="st0" fill='#1FC8A9' d="M129.95,164.53c-0.01-4.38,1.76-7.27,5.29-8.75c3.82-1.6,7.46-1.01,10.66,1.83
				c5.48,4.87,5.5,4.85,10.61-0.28c2.58-2.59,5.06-5.3,7.77-7.75c3.75-3.37,9.22-3.31,12.7-0.08c3.83,3.55,4.38,8.99,0.66,12.95
				c-6.62,7.02-13.47,13.83-20.45,20.49c-3.62,3.45-8.52,3.46-12.2,0.13c-4.44-4.01-8.57-8.37-12.75-12.66
				C130.55,168.69,129.7,166.53,129.95,164.53z"/>
			<path class="st0" fill='#1FC8A9' d="M129.98,108.33c-0.22-4.12,1.57-7.03,4.98-8.67c3.77-1.81,7.42-1.25,10.67,1.53
				c5.8,4.96,5.81,4.94,11.31-0.53c2.48-2.47,4.85-5.05,7.47-7.35c3.84-3.39,9.15-3.27,12.67,0.06c3.78,3.58,4.23,9,0.47,12.97
				c-6.64,7.01-13.48,13.83-20.47,20.48c-3.51,3.34-8.26,3.43-11.82,0.22c-4.69-4.23-9.03-8.85-13.44-13.38
				C130.37,112.17,129.8,110.24,129.98,108.33z"/>
			<path class="st4" fill='#DAE5E2' d="M313.82,356.12c-26.37,0-47.45-22.07-47.39-49.63c0.05-27.31,21.61-49.77,47.64-49.64
				c25.87,0.13,47,22.43,47.03,49.64C361.14,334.25,340.3,356.12,313.82,356.12z"/>
			<path class="st2" fill='#E8F7F3' d="M310.83,356.12c-26.06,0-46.89-22.07-46.83-49.63c0.05-27.31,21.36-49.77,47.08-49.64
				c25.57,0.13,46.45,22.43,46.48,49.64C357.6,334.25,337,356.12,310.83,356.12z"/>
		</g>
	</g>
	<path class="st4" fill='#DAE5E2' d="M238.34,317.12c0,0-5.3-25.3,12.13-53.67c10.54-17.16,33.88-26.49,39.52-28.24c0.8-0.25,1.33-0.98,1.33-1.81
		V72.14h6.9c1.63,0,2.95,1.32,2.95,2.95v7.76c0,10.72,0,131.11,0,143.66v13.84c0,1.71-1.06,3.24-2.67,3.82
		c-7.84,2.84-21.35,5.04-38,24.66c-9.66,11.38-11.3,24-11.62,37.21c-0.09,3.61,0.57,11.14,0.57,11.14L238.34,317.12z"/>
</g>
<g>
	<g>
		<path class="st0" fill='#1FC8A9' d="M288.56,307.64c0-9.91,0-19.82,0-29.74c0-4.95,3.01-7.98,7.92-7.98c10.15,0,20.31,0,30.46,0
			c4.87,0,7.92,3.03,7.92,7.86c0,19.95,0,39.89,0,59.84c0,4.83-3.06,7.86-7.92,7.86c-10.15,0-20.31,0-30.46,0
			c-4.91,0-7.92-3.04-7.92-7.99C288.56,327.55,288.56,317.59,288.56,307.64z"/>
		<path class="st1" fill='#F6F6F6' d="M291,307.7c0-9.91,0-19.82,0-29.73c0-3.72,1.88-5.61,5.61-5.61c10.07,0,20.14,0,30.22,0
			c3.73,0,5.61,1.88,5.61,5.61c0,19.82,0,39.65,0,59.47c0,3.73-1.88,5.61-5.61,5.61c-10.07,0-20.14,0-30.22,0
			c-3.72,0-5.61-1.88-5.61-5.61C290.99,327.53,291,317.61,291,307.7z"/>
		<path class="st0" fill='#1FC8A9' d="M329.99,306.52c0,8.24,0,16.49,0,24.73c0,1.78-0.26,2.05-2.03,2.05c-10.84,0-21.68,0-32.52,0
			c-1.74,0-2.01-0.27-2.01-2.06c0-16.53,0-33.05,0-49.58c0-1.69,0.29-1.98,1.96-1.98c10.88,0,21.76,0,32.64,0
			c1.66,0,1.95,0.3,1.95,2C329.99,289.95,329.99,298.24,329.99,306.52z"/>
		<path class="st0" fill='#1FC8A9' d="M309.19,277.23c-0.93,0-1.87-0.05-2.8,0.01c-1.22,0.09-0.71-0.8-0.76-1.31c-0.06-0.55-0.26-1.21,0.8-1.16
			c1.9,0.08,3.82,0.07,5.72,0.01c1.22-0.04,0.71,0.8,0.76,1.32c0.06,0.55,0.26,1.25-0.8,1.15
			C311.15,277.16,310.17,277.23,309.19,277.23z"/>
		<path class="st0" fill='#1FC8A9' d="M317.78,276.14c0.4,1.31-0.54,1.01-1.29,1.12c-1.2,0.17-1.07-0.53-1.15-1.34c-0.12-1.2,0.54-1.08,1.35-1.15
			C317.87,274.65,317.92,275.26,317.78,276.14z"/>
		<path class="st1" fill='#F6F6F6' d="M295.87,306.49c0-7.76,0.02-15.52-0.02-23.28c0-0.91,0.21-1.13,1.12-1.12c9.83,0.04,19.66,0.04,29.49,0
			c0.91,0,1.12,0.21,1.12,1.12c-0.03,15.52-0.03,31.04,0,46.55c0,0.91-0.21,1.13-1.12,1.12c-9.83-0.04-19.66-0.04-29.49,0
			c-0.91,0-1.13-0.21-1.12-1.12C295.89,322,295.87,314.24,295.87,306.49z"/>
		<path class="st0" fill='#1FC8A9' d="M308.04,304.64c0-0.69-0.02-1.38,0-2.07c0.03-1.04,0.25-2.07-1.46-1.91c-0.84,0.08-1.26-1.01-0.73-1.72
			c1.61-2.14,3.25-4.25,4.96-6.31c0.56-0.67,1.32-0.57,1.89,0.13c1.59,1.95,3.18,3.89,4.72,5.88c0.79,1.02,0.28,2.12-1.01,2.07
			c-1-0.04-1.1,0.34-1.07,1.17c0.05,1.91,0.03,3.82,0.01,5.72c-0.01,1.29-0.38,1.66-1.66,1.67c-1.34,0.01-2.68-0.02-4.02,0.01
			c-1.11,0.02-1.66-0.46-1.63-1.6C308.06,306.67,308.04,305.66,308.04,304.64z"/>
		<path class="st3" fill='#A9EADD' d="M315.35,317.3c0,1.54-0.06,3.09,0.02,4.63c0.05,1-0.61,0.8-1.1,0.73c-0.5-0.08-1.38,0.54-1.37-0.69
			c0.03-3.17,0.05-6.33-0.01-9.5c-0.02-1,0.61-0.8,1.1-0.73c0.5,0.08,1.4-0.54,1.37,0.69C315.33,314.05,315.35,315.68,315.35,317.3z
			"/>
		<path class="st3" fill='#A9EADD' d="M310.48,314.83c0,0.61-0.07,1.23,0.01,1.82c0.13,0.98-0.26,1.15-1.18,1.19c-1.1,0.05-1.37-0.29-1.29-1.34
			c0.1-1.33,0.08-2.68,0.01-4.02c-0.07-1.22,0.79-0.72,1.31-0.77c0.54-0.05,1.28-0.29,1.16,0.79
			C310.41,313.28,310.48,314.06,310.48,314.83z"/>
		<path class="st1" fill='#F6F6F6' d="M310.48,302.84c0-0.97,0-1.95,0-2.92c0-0.36,0.08-0.84-0.23-1.03c-1.11-0.69-0.4-1.22,0.08-1.81
			c1.37-1.68,1.38-1.69,2.71-0.03c0.44,0.55,1.33,1.07,0.13,1.8c-0.35,0.21-0.25,0.74-0.25,1.14c0,2.03-0.05,4.06,0.02,6.08
			c0.04,1-0.6,0.81-1.09,0.73c-0.49-0.09-1.41,0.56-1.37-0.68C310.51,305.03,310.48,303.94,310.48,302.84z"/>
	</g>
	<path class="st0" fill='#1FC8A9' d="M311.7,341.86c-0.65-0.04-1.31,0-1.93-0.13c-1.81-0.36-3.03-1.98-2.92-3.79c0.12-1.86,1.58-3.31,3.48-3.41
		c0.89-0.05,1.78-0.04,2.68,0c2.07,0.09,3.6,1.69,3.58,3.69c-0.02,1.95-1.53,3.5-3.55,3.6c-0.44,0.02-0.89,0-1.34,0
		C311.7,341.84,311.7,341.85,311.7,341.86z"/>
	<path class="st10" fill='#F5F5F5' d="M311.73,339.38c-0.44,0-0.89,0.04-1.33-0.01c-0.69-0.08-1.11-0.51-1.1-1.21c0.01-0.7,0.43-1.14,1.13-1.18
		c0.8-0.05,1.61-0.03,2.42-0.02c0.75,0.01,1.26,0.41,1.28,1.17c0.02,0.83-0.5,1.23-1.31,1.26c-0.36,0.01-0.73,0-1.09,0
		C311.73,339.39,311.73,339.38,311.73,339.38z"/>
</g>
</svg>
