<?xml version="1.0" encoding="utf-8"?>
<!-- Generator: Adobe Illustrator 26.3.1, SVG Export Plug-In . SVG Version: 6.00 Build 0)  -->
<svg version="1.1" id="Capa_1" xmlns="http://www.w3.org/2000/svg" xmlns:xlink="http://www.w3.org/1999/xlink" x="0px" y="0px"
	 viewBox="0 0 426 426.5" style="enable-background:new 0 0 426 426.5;" xml:space="preserve">
<style type="text/css">
	.st0{fill:#E8F7F3;}
	.st1{fill:#1FC8A9;}
	.st2{fill:#F6F6F6;}
	.st3{fill:#DAE5E2;}
	.st4{fill:#F4F4F4;}
	.st5{fill:#828282;}
	.st6{fill:#FFFFFF;}
	.st7{fill:#EDEDED;}
</style>
<g>
	<g>
		<rect x="134.32" y="93.02" class="st0" fill='#E8F7F3' width="160.47" height="160.47"/>
		<path class="st1" fill='#1FC8A9' d="M201.85,333.26c4.41,0,8.82-0.18,13.21,0.04c6.14,0.31,9.11,3.32,9.15,9.49c0.12,15.16,0.13,30.32,0,45.48
			c-0.06,6.23-3.03,9.17-9.34,9.18c-49.9,0.07-99.8,0.07-149.69-0.01c-6.21-0.01-8.99-3.07-9.03-9.39
			c-0.07-14.78-0.05-29.55-0.01-44.33c0.02-7.5,2.81-10.58,10.42-10.35c4.62,0.14,5.63-1.29,5.62-5.73
			c-0.16-48.55,0.05-97.1-0.2-145.65c-0.07-13.7,4.38-24.92,14.25-34.37c10.39-9.95,20.34-20.36,30.63-30.41
			c2.39-2.34,3.35-4.72,3.3-8.06c-0.18-12.47-0.14-24.95-0.06-37.42c0.16-26,16.94-42.7,42.9-42.72c30.32-0.03,60.65-0.04,90.97,0
			c25.22,0.04,42.18,16.86,42.43,42.03c0.09,8.63-0.11,17.27,0.08,25.9c0.07,3.26-0.95,4.59-4.24,4.24c-1.9-0.2-3.84-0.15-5.75-0.01
			c-3.83,0.29-6.96,0.07-5.97-5.23c0.58-3.11-1.87-2.68-3.73-2.69c-10.75-0.01-21.49-0.01-32.24-0.01
			c-34.35,0-68.71,0.08-103.06-0.1c-4.22-0.02-5.45,0.92-5.42,5.31c0.23,25.9,0.1,51.81,0.14,77.72c0,1.44-0.5,3.01,1.31,5.31
			c9.56-9.82,18.93-19.56,28.44-29.16c10.26-10.36,18.16-10.29,28.47,0.05c19.4,19.44,19.5,42.35,0.24,61.73
			c-10.55,10.61-21.13,21.2-31.75,31.76c-1.83,1.82-3.93,3.68-2.64,6.37c1.13,2.36,3.8,1.07,5.72,1.08
			c36.27,0.08,72.54,0.04,108.82,0.1c3.5,0.01,6.72,0.27,5.77-4.85c-0.41-2.22,0.7-2.81,2.91-2.99c12.93-1.1,13.1-1.17,12.86,11.58
			c-0.2,10.68,1.3,21.47-1.86,32.01c-4.51,15.04-18.11,26.68-33.86,27.78c-10.7,0.75-21.48,0.38-32.22,0.47
			c-2.32,0.02-4.49-0.09-6.22,2.02C216.85,325.96,209.82,329.95,201.85,333.26z"/>
		<path class="st1" fill='#1FC8A9' d="M320.64,101.2c40.03,0.19,71.97,32.58,71.72,72.72c-0.25,39.37-32.52,71.38-71.97,71.38
			c-40.11,0.01-72.34-32.69-72.03-73.09C248.66,132.98,281.2,101.01,320.64,101.2z"/>
		<path class="st1" fill='#1FC8A9' d="M162.8,101.16c0.57,0,1.15,0,1.72,0c12.42,0,12.35,0,11.58,12.68c-0.15,2.39-0.69,3.28-3.22,3.33
			c-4.15,0.08-9.61-1.89-12.07,0.96c-2.03,2.35-0.86,7.63-0.73,11.6c0.09,2.83-0.98,3.42-3.63,3.53
			c-12.27,0.5-12.27,0.59-12.26-11.64c0-4.01-0.08-8.03,0.1-12.04c0.26-5.48,3.25-8.32,8.77-8.39c3.25-0.04,6.5-0.01,9.75-0.01
			C162.8,101.17,162.8,101.17,162.8,101.16z"/>
		<path class="st0" fill='#E8F7F3' d="M120.26,138.99c0.41,0.61-0.22,2.57-0.21,4.4c0.06,16.12,0.16,32.23-0.06,48.35
			c-0.06,4.05,0.76,5.13,5.18,5.63c13.11,1.48,23.15-2.34,31.51-12.88c6.15-7.76,14.02-14.16,20.96-21.32
			c1.93-1.99,3.02-1.93,5.02-0.09c13.07,12.01,13.5,26.89,0.91,39.56c-11.62,11.69-23.23,23.4-35,34.94
			c-3.12,3.06-4.46,6.43-4.43,10.71c0.06,7.67,0.24,15.37-0.33,23c-0.87,11.66-8.58,19.73-20.2,21.53
			c-2.68,0.41-3.78,1.29-3.55,3.94c0.1,1.14,0.02,2.3,0.02,3.45c0,9.79,0.01,9.84,9.52,7.73c2.36-0.52,4.39-0.64,6.44,1.04
			c7.95,6.54,17.36,8.47,27.36,8.46c8.17-0.01,16.35,0,25.77,0c-4.47,3.72-5.43,7.64-5.01,11.93c0.28,2.85-0.48,3.99-3.68,3.97
			c-29.55-0.12-59.1-0.13-88.65,0c-3.29,0.01-3.65-1.28-3.65-4.03c0.08-50.27,0.07-100.54,0.07-150.8c0-5.14,0.89-10.31,4.51-13.89
			C101.71,155.76,111.15,147.41,120.26,138.99z"/>
		<path class="st0" fill='#E8F7F3' d="M208.74,77.24c-22.43,0-44.87-0.13-67.3,0.11c-4.39,0.05-5.45-1.17-5.36-5.44
			c0.35-17.18,9.67-26.76,26.67-26.77c30.3-0.03,60.59-0.03,90.89,0c17.07,0.02,26.88,10.13,27.03,27.23
			c0.04,4.2-1.32,4.99-5.19,4.96C253.23,77.15,230.99,77.24,208.74,77.24z"/>
		<path class="st2" fill='#F6F6F6' d="M140.05,381.37c-21.09,0-42.17-0.08-63.26,0.08c-3.64,0.03-4.98-0.76-4.82-4.66
			c0.32-7.65,0.24-15.33,0.03-22.99c-0.09-3.31,0.53-4.64,4.32-4.62c42.55,0.15,85.11,0.12,127.66,0.03
			c3.2-0.01,4.33,0.76,4.23,4.12c-0.24,7.85-0.33,15.73,0.03,23.57c0.19,4.1-1.47,4.57-4.94,4.55
			C182.22,381.31,161.13,381.37,140.05,381.37z"/>
		<path class="st0" fill='#E8F7F3' d="M141.81,381.37c-20.54,0-41.08-0.08-61.62,0.08c-3.54,0.03-4.85-0.76-4.69-4.66
			c0.31-7.65,0.23-15.33,0.03-22.99c-0.09-3.31,0.52-4.64,4.2-4.62c41.45,0.15,82.9,0.12,124.36,0.03c3.12-0.01,4.22,0.76,4.12,4.12
			c-0.23,7.85-0.32,15.73,0.03,23.57c0.18,4.1-1.44,4.57-4.81,4.55C182.89,381.31,162.35,381.37,141.81,381.37z"/>
		<path class="st3" fill="#DAE5E2" d="M205.09,349.17c3.12-0.01,3.22,0.76,3.12,4.12c0,9.91,0.03,15.72,0.03,23.57c0,5.37-0.36,4.57-3.73,4.55"/>
		<path class="st0" fill='#E8F7F3' d="M148.42,297.84c6.56-7.5,11.25-15.85,11.53-26.12c0.09-3.24,2.67-2.13,4.3-2.14
			c15.52-0.08,31.04-0.05,46.55-0.05c21.46,0,42.91,0.1,64.37-0.09c4.02-0.04,5.63,0.55,5.52,5.17
			c-0.4,16.01-9.42,26.36-25.35,26.56c-31.41,0.4-62.84,0.17-94.25,0.06C156.74,301.24,152.3,300.88,148.42,297.84z"/>
		<path class="st0" fill='#E8F7F3' d="M321.1,117.21c32.3,0.9,56.21,26.32,55.26,58.75c-0.88,30.06-27.49,54.38-58.39,53.38
			c-30.34-0.98-54.38-27.14-53.5-58.22C265.33,140.96,291.15,116.37,321.1,117.21z"/>
	</g>
	<g>
		<path class="st1" fill='#1FC8A9' d="M311.52,183.46c0-2.68-0.01-5.37,0-8.05c0.02-5.17,3.52-8.78,8.67-8.96c5.63-0.19,10.17-4.03,11.08-9.35
			c0.94-5.48-2.18-10.76-7.51-12.74c-6.74-2.5-14.39,2.33-15.05,9.49c-0.1,1.11-0.07,2.25-0.35,3.31c-1.25,4.75-5.43,6.87-9.04,6.47
			c-4.63-0.51-7.91-4.15-7.81-8.73c0.26-12.7,8.12-23.28,20.02-26.96c15.46-4.78,31.31,3.88,35.88,19.33
			c4.21,14.23-3.38,29.17-17.61,34.56c-1.08,0.41-1.3,0.91-1.28,1.92c0.06,2.73,0.04,5.47,0.01,8.2c-0.05,4.88-3.75,8.53-8.57,8.51
			c-4.72-0.02-8.38-3.69-8.43-8.5C311.5,189.13,311.52,186.3,311.52,183.46z"/>
		<path class="st1" fill='#1FC8A9' d="M328.53,215.37c-0.01,4.7-3.78,8.48-8.47,8.5c-4.75,0.02-8.55-3.8-8.54-8.58c0.01-4.81,3.76-8.47,8.62-8.44
			C324.87,206.86,328.55,210.6,328.53,215.37z"/>
	</g>
</g>
</svg>
